<svg xmlns="http://www.w3.org/2000/svg" xmlns:xlink="http://www.w3.org/1999/xlink" contentStyleType="text/css" data-diagram-type="DESCRIPTION" height="707px" preserveAspectRatio="none" style="width:2594px;height:707px;background:#FFFFFF;" version="1.1" viewBox="0 0 2594 707" width="2594px" zoomAndPan="magnify"><title>Rate UKMA Component Diagram (v1.0)</title><defs/><g><g class="title" data-source-line="1"><text fill="#000000" font-family="sans-serif" font-size="14" font-weight="bold" lengthAdjust="spacing" textLength="306.6875" x="1136.7663" y="22.9951">Rate UKMA Component Diagram (v1.0)</text></g><!--cluster Client--><g class="cluster" data-entity="Client" data-source-line="7" data-uid="ent0002" id="cluster_Client"><rect fill="none" height="103" rx="2.5" ry="2.5" style="stroke:#181818;stroke-width:1;" width="272.77" x="7" y="569.7369"/><text fill="#000000" font-family="sans-serif" font-size="14" font-weight="bold" lengthAdjust="spacing" textLength="46.0264" x="120.3718" y="584.732">Client</text></g><!--cluster External Systems--><g class="cluster" data-entity="External Systems" data-source-line="11" data-uid="ent0004" id="cluster_External Systems"><rect fill="none" height="191" rx="2.5" ry="2.5" style="stroke:#181818;stroke-width:1;" width="301.47" x="1769.63" y="510.7369"/><text fill="#000000" font-family="sans-serif" font-size="14" font-weight="bold" lengthAdjust="spacing" textLength="137.4229" x="1851.6536" y="525.732">External Systems</text></g><!--cluster Server (Django)--><g class="cluster" data-entity="Server .Django." data-source-line="16" data-uid="ent0007" id="cluster_Server .Django."><rect fill="#EEEEEE" height="438" rx="2.5" ry="2.5" style="stroke:#181818;stroke-width:1;" width="2165.45" x="422.77" y="48.7369"/><text fill="#000000" font-family="sans-serif" font-size="14" font-weight="bold" lengthAdjust="spacing" textLength="125.1523" x="1442.9188" y="63.732">Server (Django)</text></g><!--entity WebApp--><g class="entity" data-entity="WebApp" data-source-line="8" data-uid="ent0003" id="entity_WebApp"><rect fill="#F1F1F1" height="52.5938" rx="2.5" ry="2.5" style="stroke:#181818;stroke-width:0.5;" width="240.7666" x="23" y="604.4369"/><text fill="#000000" font-family="sans-serif" font-size="14" font-style="italic" lengthAdjust="spacing" textLength="96.332" x="95.2173" y="627.432">&#171;component&#187;</text><text fill="#000000" font-family="sans-serif" font-size="14" lengthAdjust="spacing" textLength="220.7666" x="33" y="643.7289">React (Single-Page Application)</text></g><!--entity MicrosoftOIDC--><g class="entity" data-entity="MicrosoftOIDC" data-source-line="12" data-uid="ent0005" id="entity_MicrosoftOIDC"><rect fill="#F1F1F1" height="52.5938" rx="2.5" ry="2.5" style="stroke:#181818;stroke-width:0.5;" width="245.1689" x="1797.78" y="633.4369"/><text fill="#000000" font-family="sans-serif" font-size="14" font-style="italic" lengthAdjust="spacing" textLength="96.332" x="1872.1985" y="656.432">&#171;component&#187;</text><text fill="#000000" font-family="sans-serif" font-size="14" lengthAdjust="spacing" textLength="225.1689" x="1807.78" y="672.7289">Microsoft OIDC Identity Provider</text></g><!--entity UkmaPortal--><g class="entity" data-entity="UkmaPortal" data-source-line="13" data-uid="ent0006" id="entity_UkmaPortal"><rect fill="#F1F1F1" height="52.5938" rx="2.5" ry="2.5" style="stroke:#181818;stroke-width:0.5;" width="269.4639" x="1785.63" y="545.4369"/><text fill="#000000" font-family="sans-serif" font-size="14" font-style="italic" lengthAdjust="spacing" textLength="96.332" x="1872.1959" y="568.432">&#171;component&#187;</text><text fill="#000000" font-family="sans-serif" font-size="14" lengthAdjust="spacing" textLength="249.4639" x="1795.63" y="584.7289">my.ukma.edu.ua (University Portal)</text></g><!--entity RestFacade--><g class="entity" data-entity="RestFacade" data-source-line="18" data-uid="ent0008" id="entity_RestFacade"><ellipse cx="525.77" cy="343.7369" fill="#F1F1F1" rx="8" ry="8" style="stroke:#181818;stroke-width:0.5;"/><text fill="#000000" font-family="sans-serif" font-size="14" lengthAdjust="spacing" textLength="159.168" x="446.186" y="373.732">REST API (OpenAPI v3)</text></g><!--entity AuthMiddleware--><g class="entity" data-entity="AuthMiddleware" data-source-line="20" data-uid="ent0009" id="entity_AuthMiddleware"><rect fill="#F1F1F1" height="52.5938" rx="2.5" ry="2.5" style="stroke:#181818;stroke-width:0.5;" width="207.8652" x="877.77" y="418.4369"/><text fill="#000000" font-family="sans-serif" font-size="14" font-style="italic" lengthAdjust="spacing" textLength="96.332" x="933.5366" y="441.432">&#171;component&#187;</text><text fill="#000000" font-family="sans-serif" font-size="14" lengthAdjust="spacing" textLength="187.8652" x="887.77" y="457.7289">Authentication Middleware</text></g><!--entity RecommendationService--><g class="entity" data-entity="RecommendationService" data-source-line="21" data-uid="ent0010" id="entity_RecommendationService"><rect fill="#F1F1F1" height="52.5938" rx="2.5" ry="2.5" style="stroke:#181818;stroke-width:0.5;" width="199.8398" x="881.78" y="200.4369"/><text fill="#000000" font-family="sans-serif" font-size="14" font-style="italic" lengthAdjust="spacing" textLength="96.332" x="933.5339" y="223.432">&#171;component&#187;</text><text fill="#000000" font-family="sans-serif" font-size="14" lengthAdjust="spacing" textLength="179.8398" x="891.78" y="239.7289">Recommendation Service</text></g><!--entity RatingService--><g class="entity" data-entity="RatingService" data-source-line="22" data-uid="ent0011" id="entity_RatingService"><rect fill="#F1F1F1" height="52.5938" rx="2.5" ry="2.5" style="stroke:#181818;stroke-width:0.5;" width="121.6367" x="1335.81" y="207.4369"/><text fill="#000000" font-family="sans-serif" font-size="14" font-style="italic" lengthAdjust="spacing" textLength="96.332" x="1348.4623" y="230.432">&#171;component&#187;</text><text fill="#000000" font-family="sans-serif" font-size="14" lengthAdjust="spacing" textLength="101.6367" x="1345.81" y="246.7289">Rating Service</text></g><!--entity CourseService--><g class="entity" data-entity="CourseService" data-source-line="23" data-uid="ent0012" id="entity_CourseService"><rect fill="#F1F1F1" height="52.5938" rx="2.5" ry="2.5" style="stroke:#181818;stroke-width:0.5;" width="125.0684" x="1857.83" y="296.4369"/><text fill="#000000" font-family="sans-serif" font-size="14" font-style="italic" lengthAdjust="spacing" textLength="96.332" x="1872.1982" y="319.432">&#171;component&#187;</text><text fill="#000000" font-family="sans-serif" font-size="14" lengthAdjust="spacing" textLength="105.0684" x="1867.83" y="335.7289">Course Service</text></g><!--entity UserService--><g class="entity" data-entity="UserService" data-source-line="24" data-uid="ent0013" id="entity_UserService"><rect fill="#F1F1F1" height="52.5938" rx="2.5" ry="2.5" style="stroke:#181818;stroke-width:0.5;" width="118.332" x="1861.2" y="134.4369"/><text fill="#000000" font-family="sans-serif" font-size="14" font-style="italic" lengthAdjust="spacing" textLength="96.332" x="1872.2" y="157.432">&#171;component&#187;</text><text fill="#000000" font-family="sans-serif" font-size="14" lengthAdjust="spacing" textLength="88.1016" x="1876.3152" y="173.7289">User Service</text></g><!--entity ScraperService--><g class="entity" data-entity="ScraperService" data-source-line="25" data-uid="ent0014" id="entity_ScraperService"><rect fill="#F1F1F1" height="52.5938" rx="2.5" ry="2.5" style="stroke:#181818;stroke-width:0.5;" width="130.3662" x="1331.45" y="418.4369"/><text fill="#000000" font-family="sans-serif" font-size="14" font-style="italic" lengthAdjust="spacing" textLength="96.332" x="1348.4671" y="441.432">&#171;component&#187;</text><text fill="#000000" font-family="sans-serif" font-size="14" lengthAdjust="spacing" textLength="110.3662" x="1341.45" y="457.7289">Scraper Service</text></g><!--entity CourseRepository--><g class="entity" data-entity="CourseRepository" data-source-line="27" data-uid="ent0015" id="entity_CourseRepository"><rect fill="#F1F1F1" height="52.5938" rx="2.5" ry="2.5" style="stroke:#181818;stroke-width:0.5;" width="148.3994" x="2262.06" y="295.4369"/><text fill="#000000" font-family="sans-serif" font-size="14" font-style="italic" lengthAdjust="spacing" textLength="96.332" x="2288.0937" y="318.432">&#171;component&#187;</text><text fill="#000000" font-family="sans-serif" font-size="14" lengthAdjust="spacing" textLength="128.3994" x="2272.06" y="334.7289">Course Repository</text></g><!--entity RatingRepository--><g class="entity" data-entity="RatingRepository" data-source-line="28" data-uid="ent0016" id="entity_RatingRepository"><rect fill="#F1F1F1" height="52.5938" rx="2.5" ry="2.5" style="stroke:#181818;stroke-width:0.5;" width="144.9678" x="2087.1" y="232.4369"/><text fill="#000000" font-family="sans-serif" font-size="14" font-style="italic" lengthAdjust="spacing" textLength="96.332" x="2111.4179" y="255.432">&#171;component&#187;</text><text fill="#000000" font-family="sans-serif" font-size="14" lengthAdjust="spacing" textLength="124.9678" x="2097.1" y="271.7289">Rating Repository</text></g><!--entity UserRepository--><g class="entity" data-entity="UserRepository" data-source-line="29" data-uid="ent0017" id="entity_UserRepository"><rect fill="#F1F1F1" height="52.5938" rx="2.5" ry="2.5" style="stroke:#181818;stroke-width:0.5;" width="131.4326" x="2270.55" y="152.4369"/><text fill="#000000" font-family="sans-serif" font-size="14" font-style="italic" lengthAdjust="spacing" textLength="96.332" x="2288.1003" y="175.432">&#171;component&#187;</text><text fill="#000000" font-family="sans-serif" font-size="14" lengthAdjust="spacing" textLength="111.4326" x="2280.55" y="191.7289">User Repository</text></g><!--entity ScraperRepository--><g class="entity" data-entity="ScraperRepository" data-source-line="30" data-uid="ent0018" id="entity_ScraperRepository"><rect fill="#F1F1F1" height="52.5938" rx="2.5" ry="2.5" style="stroke:#181818;stroke-width:0.5;" width="153.6973" x="1843.52" y="418.4369"/><text fill="#000000" font-family="sans-serif" font-size="14" font-style="italic" lengthAdjust="spacing" textLength="96.332" x="1872.2026" y="441.432">&#171;component&#187;</text><text fill="#000000" font-family="sans-serif" font-size="14" lengthAdjust="spacing" textLength="133.6973" x="1853.52" y="457.7289">Scraper Repository</text></g><!--entity FileStorage--><g class="entity" data-entity="FileStorage" data-source-line="32" data-uid="ent0019" id="entity_FileStorage"><rect fill="#F1F1F1" height="52.5938" rx="2.5" ry="2.5" style="stroke:#181818;stroke-width:0.5;" width="118.332" x="2277.1" y="418.4369"/><text fill="#000000" font-family="sans-serif" font-size="14" font-style="italic" lengthAdjust="spacing" textLength="96.332" x="2288.1" y="441.432">&#171;component&#187;</text><text fill="#000000" font-family="sans-serif" font-size="14" lengthAdjust="spacing" textLength="83.6719" x="2294.4301" y="457.7289">File Storage</text></g><!--entity PostgreSQL--><g class="entity" data-entity="PostgreSQL" data-source-line="33" data-uid="ent0020" id="entity_PostgreSQL"><path d="M2471.46,246.0869 C2471.46,236.0869 2521.8365,236.0869 2521.8365,236.0869 C2521.8365,236.0869 2572.2129,236.0869 2572.2129,246.0869 L2572.2129,271.3838 C2572.2129,281.3838 2521.8365,281.3838 2521.8365,281.3838 C2521.8365,281.3838 2471.46,281.3838 2471.46,271.3838 L2471.46,246.0869" fill="#F1F1F1" style="stroke:#181818;stroke-width:0.5;"/><path d="M2471.46,246.0869 C2471.46,256.0869 2521.8365,256.0869 2521.8365,256.0869 C2521.8365,256.0869 2572.2129,256.0869 2572.2129,246.0869" fill="none" style="stroke:#181818;stroke-width:0.5;"/><text fill="#000000" font-family="sans-serif" font-size="14" lengthAdjust="spacing" textLength="80.7529" x="2481.46" y="273.082">PostgreSQL</text></g><!--link RestFacade to RecommendationService--><g class="link" data-entity-1="RestFacade" data-entity-2="RecommendationService" data-source-line="35" data-uid="lnk21" id="link_RestFacade_RecommendationService"><path d="M534.73,339.8169 C553.26,330.8369 600.88,308.5569 642.77,295.7369 C721.64,271.6069 807.5656,254.4765 875.5756,242.8665" fill="none" id="RestFacade-to-RecommendationService" style="stroke:#181818;stroke-width:1;"/><polygon fill="#181818" points="881.49,241.8569,871.9452,239.4284,876.5613,242.6983,873.2914,247.3143,881.49,241.8569" style="stroke:#181818;stroke-width:1;"/><text fill="#000000" font-family="sans-serif" font-size="13" lengthAdjust="spacing" textLength="155.0923" x="667.77" y="245.8038">fetch recommendations</text></g><!--link RestFacade to RatingService--><g class="link" data-entity-1="RestFacade" data-entity-2="RatingService" data-source-line="36" data-uid="lnk22" id="link_RestFacade_RatingService"><path d="M534.67,343.1669 C584.62,339.4869 861.5,318.4469 1085.63,287.7369 C1172.91,275.7769 1267.3369,258.5842 1329.6469,246.6642" fill="none" id="RestFacade-to-RatingService" style="stroke:#181818;stroke-width:1;"/><polygon fill="#181818" points="1335.54,245.5369,1325.9487,243.2992,1330.6291,246.4763,1327.4519,251.1567,1335.54,245.5369" style="stroke:#181818;stroke-width:1;"/><text fill="#000000" font-family="sans-serif" font-size="13" lengthAdjust="spacing" textLength="145.5137" x="909.2" y="283.8038">submit &amp; fetch ratings</text></g><!--link RestFacade to CourseService--><g class="link" data-entity-1="RestFacade" data-entity-2="CourseService" data-source-line="37" data-uid="lnk23" id="link_RestFacade_CourseService"><path d="M534.71,343.7369 C570.79,343.7069 722.94,343.5469 847.77,342.7369 C1250.38,340.1069 1351.3,349.0769 1753.63,333.7369 C1788.07,332.4269 1820.4859,330.3728 1851.6459,328.1028" fill="none" id="RestFacade-to-CourseService" style="stroke:#181818;stroke-width:1;"/><polygon fill="#181818" points="1857.63,327.6669,1848.3632,324.3314,1852.6432,328.0302,1848.9444,332.3102,1857.63,327.6669" style="stroke:#181818;stroke-width:1;"/><text fill="#000000" font-family="sans-serif" font-size="13" lengthAdjust="spacing" textLength="107.4468" x="1131.63" y="338.8038">manage courses</text></g><!--link RestFacade to UserService--><g class="link" data-entity-1="RestFacade" data-entity-2="UserService" data-source-line="38" data-uid="lnk24" id="link_RestFacade_UserService"><path d="M532.52,334.7469 C547.56,312.0869 590.51,252.4469 642.77,224.7369 C984.98,43.2969 1121.43,115.4669 1508.63,125.7369 C1617.64,128.6269 1645.06,128.6669 1753.63,138.7369 C1789.32,142.0469 1823.2105,146.437 1854.8705,150.967" fill="none" id="RestFacade-to-UserService" style="stroke:#181818;stroke-width:1;"/><polygon fill="#181818" points="1860.81,151.8169,1852.4673,146.5824,1855.8604,151.1087,1851.3342,154.5018,1860.81,151.8169" style="stroke:#181818;stroke-width:1;"/><text fill="#000000" font-family="sans-serif" font-size="13" lengthAdjust="spacing" textLength="137.8267" x="1116.63" y="99.8038">manage user profiles</text></g><!--link RestFacade to AuthMiddleware--><g class="link" data-entity-1="RestFacade" data-entity-2="AuthMiddleware" data-source-line="40" data-uid="lnk25" id="link_RestFacade_AuthMiddleware"><path d="M534.68,349.6969 C552.72,362.9369 598.78,394.7169 642.77,408.7369 C719.08,433.0469 803.485,441.453 871.575,444.223" fill="none" id="RestFacade-to-AuthMiddleware" style="stroke:#181818;stroke-width:1;stroke-dasharray:7,7;"/><polygon fill="#181818" points="877.57,444.4669,868.74,440.1044,872.5741,444.2636,868.4148,448.0977,877.57,444.4669" style="stroke:#181818;stroke-width:1;"/><text fill="#000000" font-family="sans-serif" font-size="13" lengthAdjust="spacing" textLength="203.0171" x="643.77" y="404.8038">validate session cookie &amp; CSRF</text></g><!--link RecommendationService to RatingService--><g class="link" data-entity-1="RecommendationService" data-entity-2="RatingService" data-source-line="42" data-uid="lnk26" id="link_RecommendationService_RatingService"><path d="M1081.87,228.4169 C1160.85,229.7569 1262.8509,231.4849 1329.3309,232.6149" fill="none" id="RecommendationService-to-RatingService" style="stroke:#181818;stroke-width:1;"/><polygon fill="#181818" points="1335.33,232.7169,1326.3993,228.5645,1330.3307,232.6319,1326.2633,236.5633,1335.33,232.7169" style="stroke:#181818;stroke-width:1;"/><text fill="#000000" font-family="sans-serif" font-size="13" lengthAdjust="spacing" textLength="97.4048" x="1136.63" y="225.8038">get rating data</text></g><!--link RecommendationService to CourseService--><g class="link" data-entity-1="RecommendationService" data-entity-2="CourseService" data-source-line="43" data-uid="lnk27" id="link_RecommendationService_CourseService"><path d="M1082.02,252.5569 C1140.62,266.9269 1216.42,284.0169 1284.63,294.7369 C1492.76,327.4469 1737.6513,327.0616 1851.6413,324.6916" fill="none" id="RecommendationService-to-CourseService" style="stroke:#181818;stroke-width:1;"/><polygon fill="#181818" points="1857.64,324.5669,1848.5588,320.7548,1852.6411,324.6708,1848.7251,328.7531,1857.64,324.5669" style="stroke:#181818;stroke-width:1;"/><text fill="#000000" font-family="sans-serif" font-size="13" lengthAdjust="spacing" textLength="121.0625" x="1336.13" y="290.8038">get course catalog</text></g><!--link RecommendationService to UserService--><g class="link" data-entity-1="RecommendationService" data-entity-2="UserService" data-source-line="44" data-uid="lnk28" id="link_RecommendationService_UserService"><path d="M1082.09,209.9269 C1093.39,208.1269 1104.76,206.3569 1115.63,204.7369 C1397.17,162.8169 1469.17,138.4569 1753.63,148.7369 C1789.24,150.0269 1823.08,152.378 1854.76,154.968" fill="none" id="RecommendationService-to-UserService" style="stroke:#181818;stroke-width:1;"/><polygon fill="#181818" points="1860.74,155.4569,1852.0959,150.7368,1855.7566,155.0495,1851.444,158.7102,1860.74,155.4569" style="stroke:#181818;stroke-width:1;"/><text fill="#000000" font-family="sans-serif" font-size="13" lengthAdjust="spacing" textLength="102.6797" x="1345.63" y="146.8038">get user history</text></g><!--link RatingService to UserService--><g class="link" data-entity-1="RatingService" data-entity-2="UserService" data-source-line="45" data-uid="lnk29" id="link_RatingService_UserService"><path d="M1457.64,217.3769 C1482.54,211.0869 1511.83,204.3169 1538.63,199.7369 C1651.94,180.3669 1779.9938,169.7739 1854.9938,164.6739" fill="none" id="RatingService-to-UserService" style="stroke:#181818;stroke-width:1;"/><polygon fill="#181818" points="1860.98,164.2669,1851.7294,160.8867,1855.9915,164.6061,1852.2721,168.8682,1860.98,164.2669" style="stroke:#181818;stroke-width:1;"/><text fill="#000000" font-family="sans-serif" font-size="13" lengthAdjust="spacing" textLength="136.9888" x="1578.13" y="169.8038">resolve rating author</text></g><!--link RatingService to CourseService--><g class="link" data-entity-1="RatingService" data-entity-2="CourseService" data-source-line="46" data-uid="lnk30" id="link_RatingService_CourseService"><path d="M1457.72,259.1869 C1482.38,268.6469 1511.47,278.5669 1538.63,284.7369 C1649.24,309.8469 1775.6843,318.1387 1851.6243,321.0287" fill="none" id="RatingService-to-CourseService" style="stroke:#181818;stroke-width:1;"/><polygon fill="#181818" points="1857.62,321.2569,1848.7786,316.9175,1852.6236,321.0667,1848.4744,324.9117,1857.62,321.2569" style="stroke:#181818;stroke-width:1;"/><text fill="#000000" font-family="sans-serif" font-size="13" lengthAdjust="spacing" textLength="133.7515" x="1579.63" y="280.8038">resolve rated course</text></g><!--link ScraperService to CourseService--><g class="link" data-entity-1="ScraperService" data-entity-2="CourseService" data-source-line="47" data-uid="lnk31" id="link_ScraperService_CourseService"><path d="M1461.99,443.3769 C1550.22,440.6269 1703.54,432.5069 1753.63,408.7369 C1758.17,406.5769 1757.55,403.6669 1761.63,400.7369 C1791.17,379.5469 1821.8552,363.6518 1852.0952,350.0918" fill="none" id="ScraperService-to-CourseService" style="stroke:#181818;stroke-width:1;"/><polygon fill="#181818" points="1857.57,347.6369,1847.7212,347.6695,1853.0077,349.6827,1850.9945,354.9692,1857.57,347.6369" style="stroke:#181818;stroke-width:1;"/><text fill="#000000" font-family="sans-serif" font-size="13" lengthAdjust="spacing" textLength="100.166" x="1596.13" y="404.8038">update courses</text></g><!--link ScraperService to UserService--><g class="link" data-entity-1="ScraperService" data-entity-2="UserService" data-source-line="48" data-uid="lnk32" id="link_ScraperService_UserService"><path d="M1441.65,418.1069 C1464.52,402.2569 1491.25,380.2669 1508.63,354.7369 C1533.55,318.1369 1505.14,288.7069 1538.63,259.7369 C1611.85,196.3969 1660.2,250.0869 1753.63,224.7369 C1790.1,214.8469 1824.0714,202.0743 1855.3714,189.0343" fill="none" id="ScraperService-to-UserService" style="stroke:#181818;stroke-width:1;"/><polygon fill="#181818" points="1860.91,186.7269,1851.0639,186.4957,1856.2945,188.6497,1854.1404,193.8804,1860.91,186.7269" style="stroke:#181818;stroke-width:1;"/><text fill="#000000" font-family="sans-serif" font-size="13" lengthAdjust="spacing" textLength="127.4673" x="1582.63" y="220.8038">update enrollments</text></g><!--link CourseService to CourseRepository--><g class="link" data-entity-1="CourseService" data-entity-2="CourseRepository" data-source-line="50" data-uid="lnk33" id="link_CourseService_CourseRepository"><path d="M1983.33,322.5869 C2057.75,322.4069 2176.44,322.1213 2255.68,321.9313" fill="none" id="CourseService-to-CourseRepository" style="stroke:#181818;stroke-width:1;"/><polygon fill="#181818" points="2261.68,321.9169,2252.6704,317.9385,2256.68,321.9289,2252.6896,325.9384,2261.68,321.9169" style="stroke:#181818;stroke-width:1;"/></g><!--link RatingService to RatingRepository--><g class="link" data-entity-1="RatingService" data-entity-2="RatingRepository" data-source-line="51" data-uid="lnk34" id="link_RatingService_RatingRepository"><path d="M1457.82,244.0669 C1482.75,247.8769 1512,251.7469 1538.63,253.7369 C1736.66,268.5169 1965.2625,264.7602 2080.8625,261.4202" fill="none" id="RatingService-to-RatingRepository" style="stroke:#181818;stroke-width:1;"/><polygon fill="#181818" points="2086.86,261.2469,2077.7482,257.5085,2081.8621,261.3913,2077.9793,265.5051,2086.86,261.2469" style="stroke:#181818;stroke-width:1;"/></g><!--link UserService to UserRepository--><g class="link" data-entity-1="UserService" data-entity-2="UserRepository" data-source-line="52" data-uid="lnk35" id="link_UserService_UserRepository"><path d="M1979.79,163.2769 C2056.44,166.6069 2184.5657,172.1861 2264.3257,175.6561" fill="none" id="UserService-to-UserRepository" style="stroke:#181818;stroke-width:1;"/><polygon fill="#181818" points="2270.32,175.9169,2261.5024,171.5295,2265.3247,175.6996,2261.1546,179.5219,2270.32,175.9169" style="stroke:#181818;stroke-width:1;"/></g><!--link ScraperService to ScraperRepository--><g class="link" data-entity-1="ScraperService" data-entity-2="ScraperRepository" data-source-line="53" data-uid="lnk36" id="link_ScraperService_ScraperRepository"><path d="M1462.13,444.7369 C1558.64,444.7369 1734.27,444.7369 1837.18,444.7369" fill="none" id="ScraperService-to-ScraperRepository" style="stroke:#181818;stroke-width:1;"/><polygon fill="#181818" points="1843.18,444.7369,1834.18,440.7369,1838.18,444.7369,1834.18,448.7369,1843.18,444.7369" style="stroke:#181818;stroke-width:1;"/></g><!--link CourseRepository to PostgreSQL--><g class="link" data-entity-1="CourseRepository" data-entity-2="PostgreSQL" data-source-line="55" data-uid="lnk37" id="link_CourseRepository_PostgreSQL"><path d="M2410.87,296.4769 C2431.12,289.5269 2446.9253,284.1056 2465.4753,277.7356" fill="none" id="CourseRepository-to-PostgreSQL" style="stroke:#181818;stroke-width:1;"/><polygon fill="#181818" points="2471.15,275.7869,2461.3388,274.9267,2466.4211,277.4108,2463.937,282.4931,2471.15,275.7869" style="stroke:#181818;stroke-width:1;"/></g><!--link RatingRepository to PostgreSQL--><g class="link" data-entity-1="RatingRepository" data-entity-2="PostgreSQL" data-source-line="56" data-uid="lnk38" id="link_RatingRepository_PostgreSQL"><path d="M2232.19,258.7369 C2302.88,258.7369 2403.12,258.7369 2465.07,258.7369" fill="none" id="RatingRepository-to-PostgreSQL" style="stroke:#181818;stroke-width:1;"/><polygon fill="#181818" points="2471.07,258.7369,2462.07,254.7369,2466.07,258.7369,2462.07,262.7369,2471.07,258.7369" style="stroke:#181818;stroke-width:1;"/></g><!--link UserRepository to PostgreSQL--><g class="link" data-entity-1="UserRepository" data-entity-2="PostgreSQL" data-source-line="57" data-uid="lnk39" id="link_UserRepository_PostgreSQL"><path d="M2398.65,205.4869 C2422.2,215.7569 2443.2704,224.928 2465.6004,234.668" fill="none" id="UserRepository-to-PostgreSQL" style="stroke:#181818;stroke-width:1;"/><polygon fill="#181818" points="2471.1,237.0669,2464.4498,229.8022,2466.517,235.0678,2461.2514,237.135,2471.1,237.0669" style="stroke:#181818;stroke-width:1;"/></g><!--link ScraperRepository to FileStorage--><g class="link" data-entity-1="ScraperRepository" data-entity-2="FileStorage" data-source-line="58" data-uid="lnk40" id="link_ScraperRepository_FileStorage"><path d="M1997.28,444.7369 C2077.91,444.7369 2197.63,444.7369 2270.86,444.7369" fill="none" id="ScraperRepository-to-FileStorage" style="stroke:#181818;stroke-width:1;"/><polygon fill="#181818" points="2276.86,444.7369,2267.86,440.7369,2271.86,444.7369,2267.86,448.7369,2276.86,444.7369" style="stroke:#181818;stroke-width:1;"/></g><!--link WebApp to RestFacade--><g class="link" data-entity-1="WebApp" data-entity-2="RestFacade" data-source-line="61" data-uid="lnk41" id="link_WebApp_RestFacade"><path d="M179.83,603.9969 C264.3,540.2569 468.8704,385.9107 512.0904,353.3007" fill="none" id="WebApp-to-RestFacade" style="stroke:#181818;stroke-width:1;"/><polygon fill="#181818" points="516.88,349.6869,507.2864,351.9145,512.8887,352.6984,512.1048,358.3007,516.88,349.6869" style="stroke:#181818;stroke-width:1;"/><text fill="#000000" font-family="sans-serif" font-size="13" lengthAdjust="spacing" textLength="109.8335" x="296.77" y="432.8038">HTTPS (API calls)</text></g><!--link WebApp to MicrosoftOIDC--><g class="link" data-entity-1="WebApp" data-entity-2="MicrosoftOIDC" data-source-line="62" data-uid="lnk42" id="link_WebApp_MicrosoftOIDC"><path d="M264.26,637.8869 C339.12,641.7469 437.53,645.7369 524.77,645.7369 C524.77,645.7369 524.77,645.7369 1397.63,645.7369 C1534.57,645.7369 1685.6543,650.39 1791.3743,654.39" fill="none" id="WebApp-to-MicrosoftOIDC" style="stroke:#181818;stroke-width:1;"/><polygon fill="#181818" points="1797.37,654.6169,1788.5277,650.2795,1792.3736,654.4278,1788.2252,658.2737,1797.37,654.6169" style="stroke:#181818;stroke-width:1;"/><text fill="#000000" font-family="sans-serif" font-size="13" lengthAdjust="spacing" textLength="156.0317" x="903.7" y="641.8038">redirect for login (OIDC)</text></g><!--link AuthMiddleware to MicrosoftOIDC--><g class="link" data-entity-1="AuthMiddleware" data-entity-2="MicrosoftOIDC" data-source-line="63" data-uid="lnk43" id="link_AuthMiddleware_MicrosoftOIDC"><path d="M1085.99,467.7169 C1234,500.7469 1514.93,563.8369 1753.63,619.7369 C1771.64,623.9569 1784.9057,627.0964 1803.4857,631.5564" fill="none" id="AuthMiddleware-to-MicrosoftOIDC" style="stroke:#181818;stroke-width:1;"/><polygon fill="#181818" points="1809.32,632.9569,1801.5022,626.9667,1804.4581,631.7898,1799.6349,634.7457,1809.32,632.9569" style="stroke:#181818;stroke-width:1;"/><text fill="#000000" font-family="sans-serif" font-size="13" lengthAdjust="spacing" textLength="222.3711" x="1285.63" y="510.8038">code exchange &amp; token validation</text></g><!--link ScraperService to UkmaPortal--><g class="link" data-entity-1="ScraperService" data-entity-2="UkmaPortal" data-source-line="64" data-uid="lnk44" id="link_ScraperService_UkmaPortal"><path d="M1462.27,456.8369 C1549.32,473.2969 1699.55,502.3469 1753.63,516.7369 C1783.95,524.8069 1811.1708,533.4012 1839.6008,543.0912" fill="none" id="ScraperService-to-UkmaPortal" style="stroke:#181818;stroke-width:1;"/><polygon fill="#181818" points="1845.28,545.0269,1838.0517,538.3372,1840.5473,543.4138,1835.4708,545.9095,1845.28,545.0269" style="stroke:#181818;stroke-width:1;"/><text fill="#000000" font-family="sans-serif" font-size="13" lengthAdjust="spacing" textLength="213.6431" x="1539.63" y="469.8038">scrape course &amp; enrollment data</text></g><!--SRC=[ZPPDRzim38Rl_XL41XJ9eS66tO8YG92cMB4LpU86EnGzg3BZQB4jGvAp1SF- -oX_nBAjPkqfjT_d5KcHaeqm2SA66OJjruS5B6MQommp0xU2nOgbC3v-cdwS184-Y2ndzWblDA4v4QoG6vR52JgIdF43Yx4lI71dm4XG8juRY8Hz8sGM1BKUHij4aF48_WG0pnjatC0u51Q-Nbl18iyJmPcb9YzmStEEPJu7fk47lf8Y-EiuhduRL1bB83nfWwcklHy4Lr9BYkVn_dO9zn5v27E2jP974Q7oc9yHIrYFz3Gj3YcRObHC2mRZRIQEg7Hf8vLXYI_4BH7LsqwO8IfYONpxaqeb9oFui5gjA5HQHsIKmOvnKcrMuHCirlSmVimnip-EdqbBjXlKvevn5g55dXU5sTkCgb9Hw56Ku2-cq1EHrRQ2gl0aIJ6BAjh69ZYXC8IxqbfPUj23B7RPvc_eKKeTTYaBfV5TR2LrsAscCdf83skb3XbonN8lF21hQGCxCMymbzG1KfrU_XDpgtJAzHwyadRnCciF_4RMNRX9VCY_bRZ3MuCxGMCUqh_KoYz-q4fg1H7KBUoLKRb6QwbDh33y_crKBKdQzfbrRpiRhg_d_eQ36UpGyBqzQvotseExlNOkqWnqyPeA0rUDJodpy9r-S_YKPNQEUVdQmpczvhJacIli_kLAxgXCkfVrT3hlpMYB7raY8djwqwBQpYgNyY2GybY6cxlAo5SlNobc4AEfCoztw2BTBqH5L_a37JiiaV55Wtv5AeEo47kXwzxqRvSVLwXbSiGc0qOba-gYnp07nmEZEXkowCxxPOiYBpUaxOItuM4EDOoPaab2PJDbC_GNQHVk378_qNQJExB-gaqa7L4_Q2lo3dy_ZjhGcM4O1E7JT2Cu1zRH30AeDExPGdTgzH5G7nRdAMecvilJqpg4iRqxEKiIFN7rdIk-wQhgEmLsKW7rjCZeygMtaw0taqD-Har0A-DllgTBtGwbaGVCcg6rNpwzCfTRSVv0g4-cKj9CrfNJ6-MG_WC0]--></g></svg>