<svg xmlns="http://www.w3.org/2000/svg" xmlns:xlink="http://www.w3.org/1999/xlink" contentStyleType="text/css" data-diagram-type="DESCRIPTION" height="584px" preserveAspectRatio="none" style="width:2538px;height:584px;background:#FFFFFF;" version="1.1" viewBox="0 0 2538 584" width="2538px" zoomAndPan="magnify"><title>Rate UKMA Component Diagram (v1.0)</title><defs/><g><g class="title" data-source-line="1"><text fill="#000000" font-family="sans-serif" font-size="14" font-weight="bold" lengthAdjust="spacing" textLength="306.6875" x="1109.0513" y="22.9951">Rate UKMA Component Diagram (v1.0)</text></g><!--cluster Client--><g class="cluster" data-entity="Client" data-source-line="7" data-uid="ent0002" id="cluster_Client"><rect fill="none" height="103" rx="2.5" ry="2.5" style="stroke:#181818;stroke-width:1;" width="272.77" x="7" y="461.2969"/><text fill="#000000" font-family="sans-serif" font-size="14" font-weight="bold" lengthAdjust="spacing" textLength="46.0264" x="120.3718" y="476.292">Client</text></g><!--cluster External Systems--><g class="cluster" data-entity="External Systems" data-source-line="11" data-uid="ent0004" id="cluster_External Systems"><rect fill="none" height="103" rx="2.5" ry="2.5" style="stroke:#181818;stroke-width:1;" width="277.17" x="1585.47" y="475.2969"/><text fill="#000000" font-family="sans-serif" font-size="14" font-weight="bold" lengthAdjust="spacing" textLength="137.4229" x="1655.3436" y="490.292">External Systems</text></g><!--cluster Server (Django)--><g class="cluster" data-entity="Server .Django." data-source-line="15" data-uid="ent0006" id="cluster_Server .Django."><rect fill="#EEEEEE" height="388" rx="2.5" ry="2.5" style="stroke:#181818;stroke-width:1;" width="2110.02" x="422.77" y="44.2969"/><text fill="#000000" font-family="sans-serif" font-size="14" font-weight="bold" lengthAdjust="spacing" textLength="125.1523" x="1415.2038" y="59.292">Server (Django)</text></g><!--entity WebApp--><g class="entity" data-entity="WebApp" data-source-line="8" data-uid="ent0003" id="entity_WebApp"><rect fill="#F1F1F1" height="52.5938" rx="2.5" ry="2.5" style="stroke:#181818;stroke-width:0.5;" width="240.7666" x="23" y="495.9969"/><text fill="#000000" font-family="sans-serif" font-size="14" font-style="italic" lengthAdjust="spacing" textLength="96.332" x="95.2173" y="518.992">&#171;component&#187;</text><text fill="#000000" font-family="sans-serif" font-size="14" lengthAdjust="spacing" textLength="220.7666" x="33" y="535.2889">React (Single-Page Application)</text></g><!--entity MicrosoftOIDC--><g class="entity" data-entity="MicrosoftOIDC" data-source-line="12" data-uid="ent0005" id="entity_MicrosoftOIDC"><rect fill="#F1F1F1" height="52.5938" rx="2.5" ry="2.5" style="stroke:#181818;stroke-width:0.5;" width="245.1689" x="1601.47" y="509.9969"/><text fill="#000000" font-family="sans-serif" font-size="14" font-style="italic" lengthAdjust="spacing" textLength="96.332" x="1675.8885" y="532.992">&#171;component&#187;</text><text fill="#000000" font-family="sans-serif" font-size="14" lengthAdjust="spacing" textLength="225.1689" x="1611.47" y="549.2889">Microsoft OIDC Identity Provider</text></g><!--entity RestFacade--><g class="entity" data-entity="RestFacade" data-source-line="17" data-uid="ent0007" id="entity_RestFacade"><ellipse cx="525.77" cy="322.2969" fill="#F1F1F1" rx="8" ry="8" style="stroke:#181818;stroke-width:0.5;"/><text fill="#000000" font-family="sans-serif" font-size="14" lengthAdjust="spacing" textLength="159.168" x="446.186" y="352.292">REST API (OpenAPI v3)</text></g><!--entity AuthMiddleware--><g class="entity" data-entity="AuthMiddleware" data-source-line="19" data-uid="ent0008" id="entity_AuthMiddleware"><rect fill="#F1F1F1" height="52.5938" rx="2.5" ry="2.5" style="stroke:#181818;stroke-width:0.5;" width="207.8652" x="1107.61" y="363.9969"/><text fill="#000000" font-family="sans-serif" font-size="14" font-style="italic" lengthAdjust="spacing" textLength="96.332" x="1163.3766" y="386.992">&#171;component&#187;</text><text fill="#000000" font-family="sans-serif" font-size="14" lengthAdjust="spacing" textLength="187.8652" x="1117.61" y="403.2889">Authentication Middleware</text></g><!--entity RecommendationService--><g class="entity" data-entity="RecommendationService" data-source-line="20" data-uid="ent0009" id="entity_RecommendationService"><rect fill="#F1F1F1" height="52.5938" rx="2.5" ry="2.5" style="stroke:#181818;stroke-width:0.5;" width="199.8398" x="877.77" y="181.9969"/><text fill="#000000" font-family="sans-serif" font-size="14" font-style="italic" lengthAdjust="spacing" textLength="96.332" x="929.5239" y="204.992">&#171;component&#187;</text><text fill="#000000" font-family="sans-serif" font-size="14" lengthAdjust="spacing" textLength="179.8398" x="887.77" y="221.2889">Recommendation Service</text></g><!--entity RatingService--><g class="entity" data-entity="RatingService" data-source-line="21" data-uid="ent0010" id="entity_RatingService"><rect fill="#F1F1F1" height="52.5938" rx="2.5" ry="2.5" style="stroke:#181818;stroke-width:0.5;" width="121.6367" x="1396.65" y="289.9969"/><text fill="#000000" font-family="sans-serif" font-size="14" font-style="italic" lengthAdjust="spacing" textLength="96.332" x="1409.3023" y="312.992">&#171;component&#187;</text><text fill="#000000" font-family="sans-serif" font-size="14" lengthAdjust="spacing" textLength="101.6367" x="1406.65" y="329.2889">Rating Service</text></g><!--entity CourseService--><g class="entity" data-entity="CourseService" data-source-line="22" data-uid="ent0011" id="entity_CourseService"><rect fill="#F1F1F1" height="52.5938" rx="2.5" ry="2.5" style="stroke:#181818;stroke-width:0.5;" width="125.0684" x="1878.64" y="193.9969"/><text fill="#000000" font-family="sans-serif" font-size="14" font-style="italic" lengthAdjust="spacing" textLength="96.332" x="1893.0082" y="216.992">&#171;component&#187;</text><text fill="#000000" font-family="sans-serif" font-size="14" lengthAdjust="spacing" textLength="105.0684" x="1888.64" y="233.2889">Course Service</text></g><!--entity UserService--><g class="entity" data-entity="UserService" data-source-line="23" data-uid="ent0012" id="entity_UserService"><rect fill="#F1F1F1" height="52.5938" rx="2.5" ry="2.5" style="stroke:#181818;stroke-width:0.5;" width="118.332" x="1882.01" y="326.9969"/><text fill="#000000" font-family="sans-serif" font-size="14" font-style="italic" lengthAdjust="spacing" textLength="96.332" x="1893.01" y="349.992">&#171;component&#187;</text><text fill="#000000" font-family="sans-serif" font-size="14" lengthAdjust="spacing" textLength="88.1016" x="1897.1252" y="366.2889">User Service</text></g><!--entity ScraperService--><g class="entity" data-entity="ScraperService" data-source-line="24" data-uid="ent0013" id="entity_ScraperService"><rect fill="#F1F1F1" height="52.5938" rx="2.5" ry="2.5" style="stroke:#181818;stroke-width:0.5;" width="130.3662" x="1392.29" y="78.9969"/><text fill="#000000" font-family="sans-serif" font-size="14" font-style="italic" lengthAdjust="spacing" textLength="96.332" x="1409.3071" y="101.992">&#171;component&#187;</text><text fill="#000000" font-family="sans-serif" font-size="14" lengthAdjust="spacing" textLength="110.3662" x="1402.29" y="118.2889">Scraper Service</text></g><!--entity DjangoORM--><g class="entity" data-entity="DjangoORM" data-source-line="25" data-uid="ent0014" id="entity_DjangoORM"><rect fill="#F1F1F1" height="52.5938" rx="2.5" ry="2.5" style="stroke:#181818;stroke-width:0.5;" width="118.332" x="2064.71" y="280.9969"/><text fill="#000000" font-family="sans-serif" font-size="14" font-style="italic" lengthAdjust="spacing" textLength="96.332" x="2075.71" y="303.992">&#171;component&#187;</text><text fill="#000000" font-family="sans-serif" font-size="14" lengthAdjust="spacing" textLength="86.8506" x="2080.4507" y="320.2889">Django ORM</text></g><!--entity FileStorage--><g class="entity" data-entity="FileStorage" data-source-line="26" data-uid="ent0015" id="entity_FileStorage"><rect fill="#F1F1F1" height="52.5938" rx="2.5" ry="2.5" style="stroke:#181818;stroke-width:0.5;" width="118.332" x="1882.01" y="78.9969"/><text fill="#000000" font-family="sans-serif" font-size="14" font-style="italic" lengthAdjust="spacing" textLength="96.332" x="1893.01" y="101.992">&#171;component&#187;</text><text fill="#000000" font-family="sans-serif" font-size="14" lengthAdjust="spacing" textLength="83.6719" x="1899.3401" y="118.2889">File Storage</text></g><!--entity PostgreSQL--><g class="entity" data-entity="PostgreSQL" data-source-line="28" data-uid="ent0016" id="entity_PostgreSQL"><path d="M2416.04,294.6469 C2416.04,284.6469 2466.4165,284.6469 2466.4165,284.6469 C2466.4165,284.6469 2516.7929,284.6469 2516.7929,294.6469 L2516.7929,319.9438 C2516.7929,329.9438 2466.4165,329.9438 2466.4165,329.9438 C2466.4165,329.9438 2416.04,329.9438 2416.04,319.9438 L2416.04,294.6469" fill="#F1F1F1" style="stroke:#181818;stroke-width:0.5;"/><path d="M2416.04,294.6469 C2416.04,304.6469 2466.4165,304.6469 2466.4165,304.6469 C2466.4165,304.6469 2516.7929,304.6469 2516.7929,294.6469" fill="none" style="stroke:#181818;stroke-width:0.5;"/><text fill="#000000" font-family="sans-serif" font-size="14" lengthAdjust="spacing" textLength="80.7529" x="2426.04" y="321.642">PostgreSQL</text></g><!--link RestFacade to RecommendationService--><g class="link" data-entity-1="RestFacade" data-entity-2="RecommendationService" data-source-line="30" data-uid="lnk17" id="link_RestFacade_RecommendationService"><path d="M534.76,318.6569 C553.36,310.3169 601.12,289.5869 642.77,277.2969 C720.41,254.3869 804.4827,237.3174 871.4527,225.4074" fill="none" id="RestFacade-to-RecommendationService" style="stroke:#181818;stroke-width:1;"/><polygon fill="#181818" points="877.36,224.3569,867.7987,221.9945,872.4372,225.2323,869.1994,229.8709,877.36,224.3569" style="stroke:#181818;stroke-width:1;"/><text fill="#000000" font-family="sans-serif" font-size="13" lengthAdjust="spacing" textLength="155.0923" x="667.77" y="227.3638">fetch recommendations</text></g><!--link RestFacade to RatingService--><g class="link" data-entity-1="RestFacade" data-entity-2="RatingService" data-source-line="31" data-uid="lnk18" id="link_RestFacade_RatingService"><path d="M534.55,321.5469 C594.77,315.8169 992.77,279.9169 1315.47,299.2969 C1342.05,300.8969 1365.3503,303.3916 1390.2903,306.6416" fill="none" id="RestFacade-to-RatingService" style="stroke:#181818;stroke-width:1;"/><polygon fill="#181818" points="1396.24,307.4169,1387.8323,302.2874,1391.2819,306.7708,1386.7986,310.2204,1396.24,307.4169" style="stroke:#181818;stroke-width:1;"/><text fill="#000000" font-family="sans-serif" font-size="13" lengthAdjust="spacing" textLength="145.5137" x="905.19" y="290.3638">submit &amp; fetch ratings</text></g><!--link RestFacade to CourseService--><g class="link" data-entity-1="RestFacade" data-entity-2="CourseService" data-source-line="32" data-uid="lnk19" id="link_RestFacade_CourseService"><path d="M532.58,313.5369 C547.76,291.4469 591.01,233.3169 642.77,206.2969 C736.82,157.1969 772.08,173.6669 877.77,164.2969 C966.24,156.4569 988.82,162.1369 1077.61,164.2969 C1296.41,169.6269 1351.42,169.3769 1569.47,188.2969 C1573.04,188.6069 1573.91,188.9569 1577.47,189.2969 C1707.47,201.8469 1740.87,194.6369 1870.64,209.2969 C1873.19,209.5869 1869.8399,209.1247 1872.4599,209.4647" fill="none" id="RestFacade-to-CourseService" style="stroke:#181818;stroke-width:1;"/><polygon fill="#181818" points="1878.41,210.2369,1869.9996,205.1119,1873.4516,209.5934,1868.9701,213.0454,1878.41,210.2369" style="stroke:#181818;stroke-width:1;"/><text fill="#000000" font-family="sans-serif" font-size="13" lengthAdjust="spacing" textLength="107.4468" x="1158.04" y="161.3638">manage courses</text></g><!--link RestFacade to UserService--><g class="link" data-entity-1="RestFacade" data-entity-2="UserService" data-source-line="33" data-uid="lnk20" id="link_RestFacade_UserService"><path d="M534.44,322.7869 C595.49,326.6769 1009.05,352.4969 1345.47,360.2969 C1445,362.6069 1469.92,360.9569 1569.47,360.2969 C1703.33,359.4069 1736.83,360.0669 1870.64,356.2969 C1874.26,356.1969 1871.9936,356.2842 1875.7536,356.1542" fill="none" id="RestFacade-to-UserService" style="stroke:#181818;stroke-width:1;"/><polygon fill="#181818" points="1881.75,355.9469,1872.6172,352.2602,1876.753,356.1196,1872.8936,360.2555,1881.75,355.9469" style="stroke:#181818;stroke-width:1;"/><text fill="#000000" font-family="sans-serif" font-size="13" lengthAdjust="spacing" textLength="137.8267" x="1143.04" y="349.3638">manage user profiles</text></g><!--link RestFacade to AuthMiddleware--><g class="link" data-entity-1="RestFacade" data-entity-2="AuthMiddleware" data-source-line="35" data-uid="lnk21" id="link_RestFacade_AuthMiddleware"><path d="M534.66,328.1669 C552.67,341.1769 598.65,372.1169 642.77,383.2969 C800.91,423.3769 985.9084,415.1498 1101.1584,403.8998" fill="none" id="RestFacade-to-AuthMiddleware" style="stroke:#181818;stroke-width:1;stroke-dasharray:7,7;"/><polygon fill="#181818" points="1107.13,403.3169,1097.784,400.2102,1102.1537,403.8026,1098.5612,408.1723,1107.13,403.3169" style="stroke:#181818;stroke-width:1;"/><text fill="#000000" font-family="sans-serif" font-size="13" lengthAdjust="spacing" textLength="203.0171" x="643.77" y="379.3638">validate session cookie &amp; CSRF</text></g><!--link RecommendationService to RatingService--><g class="link" data-entity-1="RecommendationService" data-entity-2="RatingService" data-source-line="37" data-uid="lnk22" id="link_RecommendationService_RatingService"><path d="M1064.67,235.0769 C1078.94,239.1069 1093.64,243.0069 1107.61,246.2969 C1198.94,267.8169 1223.56,264.3769 1315.47,283.2969 C1342.07,288.7669 1365.4839,294.104 1390.4139,300.054" fill="none" id="RecommendationService-to-RatingService" style="stroke:#181818;stroke-width:1;"/><polygon fill="#181818" points="1396.25,301.4469,1388.4245,295.4668,1391.3866,300.2861,1386.5673,303.2483,1396.25,301.4469" style="stroke:#181818;stroke-width:1;"/><text fill="#000000" font-family="sans-serif" font-size="13" lengthAdjust="spacing" textLength="97.4048" x="1163.04" y="242.3638">get rating data</text></g><!--link RecommendationService to CourseService--><g class="link" data-entity-1="RecommendationService" data-entity-2="CourseService" data-source-line="38" data-uid="lnk23" id="link_RecommendationService_CourseService"><path d="M1077.96,209.5369 C1276.12,212.0069 1709.6105,217.422 1872.1605,219.452" fill="none" id="RecommendationService-to-CourseService" style="stroke:#181818;stroke-width:1;"/><polygon fill="#181818" points="1878.16,219.5269,1869.2107,215.4148,1873.1604,219.4644,1869.1108,223.4142,1878.16,219.5269" style="stroke:#181818;stroke-width:1;"/><text fill="#000000" font-family="sans-serif" font-size="13" lengthAdjust="spacing" textLength="121.0625" x="1396.97" y="209.3638">get course catalog</text></g><!--link RatingService to UserService--><g class="link" data-entity-1="RatingService" data-entity-2="UserService" data-source-line="39" data-uid="lnk24" id="link_RatingService_UserService"><path d="M1518.51,320.9069 C1611.57,328.0569 1783.5276,341.2678 1875.6676,348.3378" fill="none" id="RatingService-to-UserService" style="stroke:#181818;stroke-width:1;"/><polygon fill="#181818" points="1881.65,348.7969,1872.9824,344.12,1876.6647,348.4143,1872.3704,352.0966,1881.65,348.7969" style="stroke:#181818;stroke-width:1;"/><text fill="#000000" font-family="sans-serif" font-size="13" lengthAdjust="spacing" textLength="136.9888" x="1656.06" y="322.3638">resolve rating author</text></g><!--link RatingService to CourseService--><g class="link" data-entity-1="RatingService" data-entity-2="CourseService" data-source-line="40" data-uid="lnk25" id="link_RatingService_CourseService"><path d="M1518.68,299.0769 C1537.41,294.1369 1558.2,289.0769 1577.47,285.2969 C1706.46,260.0169 1743.12,278.1869 1870.64,246.2969 C1873.14,245.6669 1869.9195,246.6651 1872.4595,245.9251" fill="none" id="RatingService-to-CourseService" style="stroke:#181818;stroke-width:1;"/><polygon fill="#181818" points="1878.22,244.2469,1868.4604,242.9239,1873.4196,245.6454,1870.6981,250.6046,1878.22,244.2469" style="stroke:#181818;stroke-width:1;"/><text fill="#000000" font-family="sans-serif" font-size="13" lengthAdjust="spacing" textLength="133.7515" x="1657.56" y="242.3638">resolve rated course</text></g><!--link ScraperService to CourseService--><g class="link" data-entity-1="ScraperService" data-entity-2="CourseService" data-source-line="41" data-uid="lnk26" id="link_ScraperService_CourseService"><path d="M1522.93,118.8669 C1638.35,143.1669 1868.54,191.6569 1870.64,192.2969 C1873.13,193.0569 1869.9701,191.9628 1872.5101,192.8128" fill="none" id="ScraperService-to-CourseService" style="stroke:#181818;stroke-width:1;"/><polygon fill="#181818" points="1878.2,194.7169,1870.9346,188.0675,1873.4585,193.1301,1868.3958,195.654,1878.2,194.7169" style="stroke:#181818;stroke-width:1;"/><text fill="#000000" font-family="sans-serif" font-size="13" lengthAdjust="spacing" textLength="97.2842" x="1675.56" y="127.3638">import courses</text></g><!--link AuthMiddleware to DjangoORM--><g class="link" data-entity-1="AuthMiddleware" data-entity-2="DjangoORM" data-source-line="43" data-uid="lnk27" id="link_AuthMiddleware_DjangoORM"><path d="M1315.96,399.5169 C1500.63,414.6069 1879.41,438.9569 2003.71,397.2969 C2040.83,384.8569 2071.3266,359.9682 2093.6166,338.2082" fill="none" id="AuthMiddleware-to-DjangoORM" style="stroke:#181818;stroke-width:1;"/><polygon fill="#181818" points="2097.91,334.0169,2088.6757,337.4416,2094.3322,337.5096,2094.2641,343.1661,2097.91,334.0169" style="stroke:#181818;stroke-width:1;"/></g><!--link CourseService to DjangoORM--><g class="link" data-entity-1="CourseService" data-entity-2="DjangoORM" data-source-line="44" data-uid="lnk28" id="link_CourseService_DjangoORM"><path d="M1997.37,246.8769 C2019.58,257.5669 2039.7442,267.2736 2061.9842,277.9836" fill="none" id="CourseService-to-DjangoORM" style="stroke:#181818;stroke-width:1;"/><polygon fill="#181818" points="2067.39,280.5869,2061.0168,273.0781,2062.8851,278.4175,2057.5457,280.2859,2067.39,280.5869" style="stroke:#181818;stroke-width:1;"/></g><!--link RatingService to DjangoORM--><g class="link" data-entity-1="RatingService" data-entity-2="DjangoORM" data-source-line="45" data-uid="lnk29" id="link_RatingService_DjangoORM"><path d="M1518.57,307.2369 C1537.38,304.7969 1558.25,302.5069 1577.47,301.2969 C1754.44,290.1869 1958.3284,298.2198 2058.2984,303.5098" fill="none" id="RatingService-to-DjangoORM" style="stroke:#181818;stroke-width:1;"/><polygon fill="#181818" points="2064.29,303.8269,2055.5139,299.3569,2059.297,303.5627,2055.0912,307.3457,2064.29,303.8269" style="stroke:#181818;stroke-width:1;"/></g><!--link UserService to DjangoORM--><g class="link" data-entity-1="UserService" data-entity-2="DjangoORM" data-source-line="46" data-uid="lnk30" id="link_UserService_DjangoORM"><path d="M2000.34,338.4869 C2020.88,333.2669 2038.1454,328.8667 2058.6954,323.6367" fill="none" id="UserService-to-DjangoORM" style="stroke:#181818;stroke-width:1;"/><polygon fill="#181818" points="2064.51,322.1569,2054.8015,320.5002,2059.6645,323.3901,2056.7746,328.2531,2064.51,322.1569" style="stroke:#181818;stroke-width:1;"/></g><!--link DjangoORM to PostgreSQL--><g class="link" data-entity-1="DjangoORM" data-entity-2="PostgreSQL" data-source-line="48" data-uid="lnk31" id="link_DjangoORM_PostgreSQL"><path d="M2183.42,307.2969 C2248.93,307.2969 2347.95,307.2969 2409.66,307.2969" fill="none" id="DjangoORM-to-PostgreSQL" style="stroke:#181818;stroke-width:1;"/><polygon fill="#181818" points="2415.66,307.2969,2406.66,303.2969,2410.66,307.2969,2406.66,311.2969,2415.66,307.2969" style="stroke:#181818;stroke-width:1;"/><text fill="#000000" font-family="sans-serif" font-size="13" lengthAdjust="spacing" textLength="171.7041" x="2214.04" y="303.3638">read/write structured data</text></g><!--link ScraperService to FileStorage--><g class="link" data-entity-1="ScraperService" data-entity-2="FileStorage" data-source-line="50" data-uid="lnk32" id="link_ScraperService_FileStorage"><path d="M1522.94,105.2969 C1617.15,105.2969 1785.08,105.2969 1875.75,105.2969" fill="none" id="ScraperService-to-FileStorage" style="stroke:#181818;stroke-width:1;"/><polygon fill="#181818" points="1881.75,105.2969,1872.75,101.2969,1876.75,105.2969,1872.75,109.2969,1881.75,105.2969" style="stroke:#181818;stroke-width:1;"/><text fill="#000000" font-family="sans-serif" font-size="13" lengthAdjust="spacing" textLength="126.8262" x="1661.06" y="101.3638">export JSON dumps</text></g><!--link WebApp to RestFacade--><g class="link" data-entity-1="WebApp" data-entity-2="RestFacade" data-source-line="53" data-uid="lnk33" id="link_WebApp_RestFacade"><path d="M195.29,495.5269 C287.4,447.0969 470.6894,350.7293 511.5394,329.2493" fill="none" id="WebApp-to-RestFacade" style="stroke:#181818;stroke-width:1;"/><polygon fill="#181818" points="516.85,326.4569,507.0225,327.1052,512.4245,328.7839,510.7458,334.1859,516.85,326.4569" style="stroke:#181818;stroke-width:1;"/><text fill="#000000" font-family="sans-serif" font-size="13" lengthAdjust="spacing" textLength="109.8335" x="296.77" y="383.3638">HTTPS (API calls)</text></g><!--link WebApp to MicrosoftOIDC--><g class="link" data-entity-1="WebApp" data-entity-2="MicrosoftOIDC" data-source-line="54" data-uid="lnk34" id="link_WebApp_MicrosoftOIDC"><path d="M264.06,538.4969 C338.85,547.2569 437.25,556.2969 524.77,556.2969 C524.77,556.2969 524.77,556.2969 1212.54,556.2969 C1345.48,556.2969 1491.749,549.766 1595.139,544.086" fill="none" id="WebApp-to-MicrosoftOIDC" style="stroke:#181818;stroke-width:1;"/><polygon fill="#181818" points="1601.13,543.7569,1591.9241,540.2566,1596.1375,544.0311,1592.363,548.2445,1601.13,543.7569" style="stroke:#181818;stroke-width:1;"/><text fill="#000000" font-family="sans-serif" font-size="13" lengthAdjust="spacing" textLength="156.0317" x="667.27" y="552.3638">redirect for login (OIDC)</text></g><!--link AuthMiddleware to MicrosoftOIDC--><g class="link" data-entity-1="AuthMiddleware" data-entity-2="MicrosoftOIDC" data-source-line="55" data-uid="lnk35" id="link_AuthMiddleware_MicrosoftOIDC"><path d="M1277.57,417.0369 C1299,425.3669 1323.08,434.2169 1345.47,441.2969 C1429.9,468.0069 1520.9457,490.899 1595.4457,508.209" fill="none" id="AuthMiddleware-to-MicrosoftOIDC" style="stroke:#181818;stroke-width:1;"/><polygon fill="#181818" points="1601.29,509.5669,1593.4288,503.6338,1596.4197,508.4353,1591.6182,511.4262,1601.29,509.5669" style="stroke:#181818;stroke-width:1;"/><text fill="#000000" font-family="sans-serif" font-size="13" lengthAdjust="spacing" textLength="222.3711" x="1346.47" y="437.3638">code exchange &amp; token validation</text></g><!--SRC=[ZPLTRzem58RlyokEc3J11TsctQ4A2L6gTLi78wrsKUt2TGx18x4Zsw6jfltt7USB9rZT41U4ypxdsuuLDaFOCejm_-Ls0KkL5qgYj70bMAfP3kFZXultaoWo1o4BvlxXhIQsBmHhv9R9D4DFKZ1-O2aE1HdkB5W5MgHx2ubm5g5a53Lw62qpGOv7y3i2UDWYunR6iN3mTEC4YwB816UEclo4oyikb_aSc84V-4YAw8_dSVLiKKkMGVnYBEQcyNqhk5P6KJxhcwibt2JaGzWNs6Xr50dgWFCESKGlHepwY1h6Lx-eJZKPmPlLQaLnA92G57x7EAcsg_WE5fiR6AyBbEx7yIDfoVCMZRrcd2Nea8T5QVSkdRfEYfia6JunZO6adFOagBj6aXnbKjCkDy49XNEuBssKbG_wGwO-stxEVLHIZrsgKXlyBxQMUkozeJO6o03hf1uPSysA87n6Db8FhkS6w-rjFsW0hgMaTDoreFMEhTAq1Vz8rqaR9P7qfPwpHqQD6csKiQd6-FlNQXbEZsuPJgi1q-ayF36OmGujtxkJvbbD0FU7rIKx0rC-viB2szPF9GlmlO5vVCwaEmYyCWSuRrXUapgkT6CljDfHayoWwekB-M39J_YHPI9nTnS5DMxPkL87WLJ7CjvUruv2_GgrOWOfsgRoQZYlqiD6r7HTFz2vPPbAdODWlqCTcT7mZCgEsAR0g6QbN_LndeJd0vCc7NBHt_ZNNGXQMssxKH8zxBxZ_6Cmz36q3miOseUjwDj9q3rKfjFvg0fcoRidBTmEM5roMsegl1hVUTsEziuXuVXS5VivNd-3fCmBuwxr-YNI7BTk3zkT-tHtjubXxAvlphBCJ7nzxnNHZhL-py5EQQ2j49BkVx9Eea5Vp_aPJO4YupFVKmFSMbjrGDckFQtaNm00]--></g></svg>