<?xml version="1.0" encoding="UTF-8" standalone="no"?><svg xmlns="http://www.w3.org/2000/svg" xmlns:xlink="http://www.w3.org/1999/xlink" contentScriptType="application/ecmascript" contentStyleType="text/css" height="1115px" preserveAspectRatio="none" style="width:2764px;height:1115px;" version="1.1" viewBox="0 0 2764 1115" width="2764px" zoomAndPan="magnify"><defs><filter height="300%" id="fa2upna14zbxv" width="300%" x="-1" y="-1"><feGaussianBlur result="blurOut" stdDeviation="2.0"/><feColorMatrix in="blurOut" result="blurOut2" type="matrix" values="0 0 0 0 0 0 0 0 0 0 0 0 0 0 0 0 0 0 .4 0"/><feOffset dx="4.0" dy="4.0" in="blurOut2" result="blurOut3"/><feBlend in="SourceGraphic" in2="blurOut3" mode="normal"/></filter></defs><g><text fill="#000000" font-family="sans-serif" font-size="18" lengthAdjust="spacingAndGlyphs" textLength="356" x="1207.5" y="16.708">Rate UKMA Deployment Diagram (v1.0)</text><!--MD5=[52bd4819656a6938484a4a042299c7b0]
cluster GitHub--><polygon fill="#FFFFFF" filter="url(#fa2upna14zbxv)" points="358,55.4531,368,45.4531,630,45.4531,630,127.4531,620,137.4531,358,137.4531,358,55.4531" style="stroke: #000000; stroke-width: 1.5;"/><line style="stroke: #000000; stroke-width: 1.5;" x1="620" x2="629" y1="55.4531" y2="46.4531"/><line style="stroke: #000000; stroke-width: 1.5;" x1="358" x2="620" y1="55.4531" y2="55.4531"/><line style="stroke: #000000; stroke-width: 1.5;" x1="620" x2="620" y1="55.4531" y2="137.4531"/><text fill="#000000" font-family="sans-serif" font-size="14" font-weight="bold" lengthAdjust="spacingAndGlyphs" textLength="53" x="463.5" y="71.4482">GitHub</text><!--MD5=[30acc05ab54d13996aa86f47cefe7b18]
cluster Development Environment--><polygon fill="#FFFFFF" filter="url(#fa2upna14zbxv)" points="1845,427.9531,1855,417.9531,2248,417.9531,2248,748.9531,2238,758.9531,1845,758.9531,1845,427.9531" style="stroke: #000000; stroke-width: 1.5;"/><line style="stroke: #000000; stroke-width: 1.5;" x1="2238" x2="2247" y1="427.9531" y2="418.9531"/><line style="stroke: #000000; stroke-width: 1.5;" x1="1845" x2="2238" y1="427.9531" y2="427.9531"/><line style="stroke: #000000; stroke-width: 1.5;" x1="2238" x2="2238" y1="427.9531" y2="758.9531"/><text fill="#000000" font-family="sans-serif" font-size="14" font-style="italic" lengthAdjust="spacingAndGlyphs" textLength="49" x="2018" y="443.9482">«local»</text><text fill="#000000" font-family="sans-serif" font-size="14" font-weight="bold" lengthAdjust="spacingAndGlyphs" textLength="208" x="1938.5" y="460.2451">Development Environment</text><!--MD5=[5ff9f9d5d9d145b4420a63cd8635c7a4]
cluster DevDocker--><polygon fill="#FFFFFF" filter="url(#fa2upna14zbxv)" points="1869,491.9531,1879,481.9531,2224,481.9531,2224,724.9531,2214,734.9531,1869,734.9531,1869,491.9531" style="stroke: #000000; stroke-width: 1.5;"/><line style="stroke: #000000; stroke-width: 1.5;" x1="2214" x2="2223" y1="491.9531" y2="482.9531"/><line style="stroke: #000000; stroke-width: 1.5;" x1="1869" x2="2214" y1="491.9531" y2="491.9531"/><line style="stroke: #000000; stroke-width: 1.5;" x1="2214" x2="2214" y1="491.9531" y2="734.9531"/><text fill="#000000" font-family="sans-serif" font-size="14" font-weight="bold" lengthAdjust="spacingAndGlyphs" textLength="135" x="1975" y="507.9482">Docker Compose</text><!--MD5=[929d5cd9b6f7dd857cf22ad0bc8baa87]
cluster AWS Cloud--><path d="M43.3427,202.1754 C80.7159,134.843 144.8507,144.9147 176.3769,208.1336 C215.7409,143.6715 266.894,150.9763 307.9463,206.2788 C345.1255,145.2819 398.7998,145.5535 434.3141,207.9833 C476.7764,148.4282 521.8867,151.4704 563.3396,209.0947 C596.5136,153.4899 642.0077,148.0443 676.7514,207.5481 C715.9196,135.1306 762.4661,130.7604 814.8358,194.1226 C851.3486,154.1938 908.6803,151.6215 925.8801,214.9019 C959.056,152.7753 1017.128,130.3302 1063.184,201.6495 C1102.6136,155.5492 1160.3758,144.298 1187.0196,215.1839 C1210.187,155.0088 1267.7906,143.7071 1307.9422,197.0999 C1342.3318,135.6937 1403.9027,147.6912 1432.4436,203.3217 C1473.1852,132.2104 1517.4756,134.6427 1562.9718,198.7314 C1612.1014,136.6805 1653.196,147.071 1695.7548,205.9465 C1731.1578,155.4072 1773.6884,150.0049 1813,201.4531 C1816.6028,198.1152 1819.8967,200.0956 1820.5532,204.3747 C1878.7048,248.2646 1882.6797,300.2269 1816.061,339.9836 C1879.7137,382.4964 1888.4485,423.6931 1822.8001,472.7683 C1897.6648,508.281 1911.0622,574.4177 1837.7095,624.4949 C1911.158,658.0048 1894.157,721.6706 1839.7464,757.1438 C1914.4194,798.1882 1914.3442,860.2867 1836.8096,898.1612 C1880.9826,943.286 1873.0062,1003.7242 1806,1020.9531 C1812.1712,1017.3309 1819.0231,1019.5004 1819.2081,1027.6626 C1775.4271,1096.5273 1736.8404,1086.0237 1693.191,1027.5324 C1656.4641,1093.8872 1596.2633,1093.1173 1563.3734,1023.8593 C1530.2905,1088.9375 1489.5511,1080.8027 1444.4791,1036.9443 C1396.6396,1095.0379 1349.0353,1096.9043 1302.1183,1035.8422 C1277.789,1090.3924 1221.8821,1096.7161 1189.0212,1044.9151 C1139.2403,1103.1882 1099.9542,1089.2682 1060.8391,1032.981 C1034.1101,1093.0861 969.8315,1103.9692 929.5152,1048.4074 C890.9648,1101.1988 825.267,1095.4649 796.3446,1036.8939 C760.2181,1086.1751 703.9137,1094.1413 673.0842,1031.082 C637.6206,1089.7103 580.4021,1095.6903 549.1649,1026.9694 C511.7005,1085.4381 468.0673,1081.7998 430.0342,1027.5705 C387.8206,1095.722 347.4178,1091.1706 302.6909,1030.0462 C265.8671,1089.2887 207.719,1097.5828 166.8137,1034.583 C114.2827,1084.5994 64.9576,1080.481 30,1013.9531 C32.3642,1012.235 34.4119,1012.1957 35.2435,1015.5405 C-28.7747,976.0899 -22.2285,933.2606 29.522,888.5924 C-33.9512,843.5654 -41.774,793.5463 29.2233,748.2331 C-17.1784,708.6486 -16.4331,645.9813 47.9085,622.908 C-12.8999,590.9891 -18.4994,524.996 36.8984,483.8747 C-21.5635,438.9833 -40.1721,390.1844 35.1782,343.6514 C-43.9413,292.5519 -45.3567,243.5809 37,194.4531 C42.2495,193.7537 45.3211,196.9381 43.3427,202.1754 " fill="#FFFFFF" style="stroke: #000000; stroke-width: 1.5;"/><text fill="#000000" font-family="sans-serif" font-size="14" font-weight="bold" lengthAdjust="spacingAndGlyphs" textLength="86" x="878.5" y="212.4482">AWS Cloud</text><!--MD5=[fe8f50a05aabdcbd713e241071787256]
cluster Staging Environment--><rect fill="#FFFFFF" filter="url(#fa2upna14zbxv)" height="775.5" style="stroke: #000000; stroke-width: 1.5;" width="467" x="46" y="229.4531"/><text fill="#000000" font-family="sans-serif" font-size="14" font-weight="bold" lengthAdjust="spacingAndGlyphs" textLength="163" x="198" y="244.4482">Staging Environment</text><!--MD5=[a4f13fcec55c7dcbf8b6d305edc392fc]
cluster StagingEC2--><polygon fill="#FFFFFF" filter="url(#fa2upna14zbxv)" points="78,412.4531,88,402.4531,481,402.4531,481,962.9531,471,972.9531,78,972.9531,78,412.4531" style="stroke: #000000; stroke-width: 1.5;"/><line style="stroke: #000000; stroke-width: 1.5;" x1="471" x2="480" y1="412.4531" y2="403.4531"/><line style="stroke: #000000; stroke-width: 1.5;" x1="78" x2="471" y1="412.4531" y2="412.4531"/><line style="stroke: #000000; stroke-width: 1.5;" x1="471" x2="471" y1="412.4531" y2="972.9531"/><text fill="#000000" font-family="sans-serif" font-size="14" font-weight="bold" lengthAdjust="spacingAndGlyphs" textLength="178" x="186.5" y="428.4482">EC2 Instance (Staging)</text><text fill="#000000" font-family="sans-serif" font-size="14" font-weight="bold" lengthAdjust="spacingAndGlyphs" textLength="219" x="166" y="444.7451">t3.micro (2 vCPU, 1GB RAM)</text><text fill="#000000" font-family="sans-serif" font-size="14" font-weight="bold" lengthAdjust="spacingAndGlyphs" textLength="229" x="161" y="461.042">Ubuntu 22.04 LTS, 15GB SSD</text><!--MD5=[c91e652cc3b504570c0658326f52e8a4]
cluster StagingDocker--><polygon fill="#FFFFFF" filter="url(#fa2upna14zbxv)" points="118,500.4531,128,490.4531,449,490.4531,449,930.9531,439,940.9531,118,940.9531,118,500.4531" style="stroke: #000000; stroke-width: 1.5;"/><line style="stroke: #000000; stroke-width: 1.5;" x1="439" x2="448" y1="500.4531" y2="491.4531"/><line style="stroke: #000000; stroke-width: 1.5;" x1="118" x2="439" y1="500.4531" y2="500.4531"/><line style="stroke: #000000; stroke-width: 1.5;" x1="439" x2="439" y1="500.4531" y2="940.9531"/><text fill="#000000" font-family="sans-serif" font-size="14" font-weight="bold" lengthAdjust="spacingAndGlyphs" textLength="56" x="251.5" y="516.4482">Docker</text><!--MD5=[73447cf4e371a40ec407d5923ec3dd13]
cluster Production Environment--><rect fill="#FFFFFF" filter="url(#fa2upna14zbxv)" height="775.5" style="stroke: #000000; stroke-width: 1.5;" width="1260" x="537" y="229.4531"/><text fill="#000000" font-family="sans-serif" font-size="14" font-weight="bold" lengthAdjust="spacingAndGlyphs" textLength="190" x="1072" y="244.4482">Production Environment</text><!--MD5=[e7c7860dcca7a41268ff8cab8296b832]
cluster ProdEC2--><polygon fill="#FFFFFF" filter="url(#fa2upna14zbxv)" points="569,412.4531,579,402.4531,1436,402.4531,1436,962.9531,1426,972.9531,569,972.9531,569,412.4531" style="stroke: #000000; stroke-width: 1.5;"/><line style="stroke: #000000; stroke-width: 1.5;" x1="1426" x2="1435" y1="412.4531" y2="403.4531"/><line style="stroke: #000000; stroke-width: 1.5;" x1="569" x2="1426" y1="412.4531" y2="412.4531"/><line style="stroke: #000000; stroke-width: 1.5;" x1="1426" x2="1426" y1="412.4531" y2="972.9531"/><text fill="#000000" font-family="sans-serif" font-size="14" font-weight="bold" lengthAdjust="spacingAndGlyphs" textLength="205" x="896" y="428.4482">EC2 Instance (Production)</text><text fill="#000000" font-family="sans-serif" font-size="14" font-weight="bold" lengthAdjust="spacingAndGlyphs" textLength="215" x="891" y="444.7451">t3.small (2 vCPU, 2GB RAM)</text><text fill="#000000" font-family="sans-serif" font-size="14" font-weight="bold" lengthAdjust="spacingAndGlyphs" textLength="229" x="884" y="461.042">Ubuntu 22.04 LTS, 20GB SSD</text><!--MD5=[519f0a3c302a853c7ecc3c1811e5cfad]
cluster ProdDocker--><polygon fill="#FFFFFF" filter="url(#fa2upna14zbxv)" points="893,500.4531,903,490.4531,1226,490.4531,1226,930.9531,1216,940.9531,893,940.9531,893,500.4531" style="stroke: #000000; stroke-width: 1.5;"/><line style="stroke: #000000; stroke-width: 1.5;" x1="1216" x2="1225" y1="500.4531" y2="491.4531"/><line style="stroke: #000000; stroke-width: 1.5;" x1="893" x2="1216" y1="500.4531" y2="500.4531"/><line style="stroke: #000000; stroke-width: 1.5;" x1="1216" x2="1216" y1="500.4531" y2="940.9531"/><text fill="#000000" font-family="sans-serif" font-size="14" font-weight="bold" lengthAdjust="spacingAndGlyphs" textLength="56" x="1027.5" y="516.4482">Docker</text><!--MD5=[36d71a3ad63626dc976492fcee7da748]
cluster BackupEC2--><polygon fill="#FFFFFF" filter="url(#fa2upna14zbxv)" points="1468,817.9531,1478,807.9531,1773,807.9531,1773,930.9531,1763,940.9531,1468,940.9531,1468,817.9531" style="stroke: #000000; stroke-width: 1.5;"/><line style="stroke: #000000; stroke-width: 1.5;" x1="1763" x2="1772" y1="817.9531" y2="808.9531"/><line style="stroke: #000000; stroke-width: 1.5;" x1="1468" x2="1763" y1="817.9531" y2="817.9531"/><line style="stroke: #000000; stroke-width: 1.5;" x1="1763" x2="1763" y1="817.9531" y2="940.9531"/><text fill="#000000" font-family="sans-serif" font-size="14" font-weight="bold" lengthAdjust="spacingAndGlyphs" textLength="115" x="1559" y="833.9482">Backup Server</text><text fill="#000000" font-family="sans-serif" font-size="14" font-weight="bold" lengthAdjust="spacingAndGlyphs" textLength="219" x="1507" y="850.2451">t3.micro (2 vCPU, 1GB RAM)</text><text fill="#000000" font-family="sans-serif" font-size="14" font-weight="bold" lengthAdjust="spacingAndGlyphs" textLength="229" x="1502" y="866.542">Ubuntu 22.04 LTS, 30GB SSD</text><!--MD5=[488f37775d79b993cc487e13d5260ce9]
entity MainBranch--><rect fill="#FEFECE" filter="url(#fa2upna14zbxv)" height="36.2969" style="stroke: #A80036; stroke-width: 1.5;" width="105" x="374.5" y="85.4531"/><rect fill="#FEFECE" height="5" style="stroke: #A80036; stroke-width: 1.5;" width="10" x="369.5" y="90.4531"/><rect fill="#FEFECE" height="5" style="stroke: #A80036; stroke-width: 1.5;" width="10" x="369.5" y="111.75"/><text fill="#000000" font-family="sans-serif" font-size="14" lengthAdjust="spacingAndGlyphs" textLength="85" x="384.5" y="108.4482">Main Branch</text><!--MD5=[3b91bf7388c6bc0362a71a2f472b96e5]
entity LiveBranch--><rect fill="#FEFECE" filter="url(#fa2upna14zbxv)" height="36.2969" style="stroke: #A80036; stroke-width: 1.5;" width="99" x="514.5" y="85.4531"/><rect fill="#FEFECE" height="5" style="stroke: #A80036; stroke-width: 1.5;" width="10" x="509.5" y="90.4531"/><rect fill="#FEFECE" height="5" style="stroke: #A80036; stroke-width: 1.5;" width="10" x="509.5" y="111.75"/><text fill="#000000" font-family="sans-serif" font-size="14" lengthAdjust="spacingAndGlyphs" textLength="79" x="524.5" y="108.4482">Live Branch</text><!--MD5=[91ca34b3741e659d550c397c54494805]
entity DevReact--><rect fill="#FEFECE" filter="url(#fa2upna14zbxv)" height="52.5938" style="stroke: #A80036; stroke-width: 1.5;" width="139" x="1885.5" y="521.9531"/><rect fill="#FEFECE" height="5" style="stroke: #A80036; stroke-width: 1.5;" width="10" x="1880.5" y="526.9531"/><rect fill="#FEFECE" height="5" style="stroke: #A80036; stroke-width: 1.5;" width="10" x="1880.5" y="564.5469"/><text fill="#000000" font-family="sans-serif" font-size="14" lengthAdjust="spacingAndGlyphs" textLength="119" x="1895.5" y="544.9482">React Dev Server</text><text fill="#000000" font-family="sans-serif" font-size="14" lengthAdjust="spacingAndGlyphs" textLength="78" x="1895.5" y="561.2451">(port 3000)</text><!--MD5=[a7b08709fc849c98d0910b0c67f52213]
entity DevDjango--><rect fill="#FEFECE" filter="url(#fa2upna14zbxv)" height="52.5938" style="stroke: #A80036; stroke-width: 1.5;" width="148" x="2060" y="521.9531"/><rect fill="#FEFECE" height="5" style="stroke: #A80036; stroke-width: 1.5;" width="10" x="2055" y="526.9531"/><rect fill="#FEFECE" height="5" style="stroke: #A80036; stroke-width: 1.5;" width="10" x="2055" y="564.5469"/><text fill="#000000" font-family="sans-serif" font-size="14" lengthAdjust="spacingAndGlyphs" textLength="128" x="2070" y="544.9482">Django Dev Server</text><text fill="#000000" font-family="sans-serif" font-size="14" lengthAdjust="spacingAndGlyphs" textLength="78" x="2070" y="561.2451">(port 8000)</text><!--MD5=[81a082dc0398f0a3f71e99f4328413ba]
entity DevDB--><path d="M2083.5,683.9531 C2083.5,673.9531 2134,673.9531 2134,673.9531 C2134,673.9531 2184.5,673.9531 2184.5,683.9531 L2184.5,709.25 C2184.5,719.25 2134,719.25 2134,719.25 C2134,719.25 2083.5,719.25 2083.5,709.25 L2083.5,683.9531 " fill="#FEFECE" filter="url(#fa2upna14zbxv)" style="stroke: #000000; stroke-width: 1.5;"/><path d="M2083.5,683.9531 C2083.5,693.9531 2134,693.9531 2134,693.9531 C2134,693.9531 2184.5,693.9531 2184.5,683.9531 " fill="none" style="stroke: #000000; stroke-width: 1.5;"/><text fill="#000000" font-family="sans-serif" font-size="14" lengthAdjust="spacingAndGlyphs" textLength="81" x="2093.5" y="710.9482">PostgreSQL</text><!--MD5=[225f86e75b59eb6dac28099a6ec8059a]
entity StagingCI--><rect fill="#FEFECE" filter="url(#fa2upna14zbxv)" height="52.5938" style="stroke: #A80036; stroke-width: 1.5;" width="122" x="218" y="264.4531"/><rect fill="#FEFECE" height="5" style="stroke: #A80036; stroke-width: 1.5;" width="10" x="213" y="269.4531"/><rect fill="#FEFECE" height="5" style="stroke: #A80036; stroke-width: 1.5;" width="10" x="213" y="307.0469"/><text fill="#000000" font-family="sans-serif" font-size="14" lengthAdjust="spacingAndGlyphs" textLength="102" x="228" y="287.4482">GitHub Actions</text><text fill="#000000" font-family="sans-serif" font-size="14" lengthAdjust="spacingAndGlyphs" textLength="93" x="228" y="303.7451">(Auto-deploy)</text><!--MD5=[0c309cff42a169aee63a4131021f470a]
entity StagingReact--><rect fill="#FEFECE" filter="url(#fa2upna14zbxv)" height="36.2969" style="stroke: #A80036; stroke-width: 1.5;" width="112" x="134" y="678.4531"/><rect fill="#FEFECE" height="5" style="stroke: #A80036; stroke-width: 1.5;" width="10" x="129" y="683.4531"/><rect fill="#FEFECE" height="5" style="stroke: #A80036; stroke-width: 1.5;" width="10" x="129" y="704.75"/><text fill="#000000" font-family="sans-serif" font-size="14" lengthAdjust="spacingAndGlyphs" textLength="92" x="144" y="701.4482">React (Static)</text><!--MD5=[871537df11fcf8980d6142904b63e842]
entity StagingDjango--><rect fill="#FEFECE" filter="url(#fa2upna14zbxv)" height="36.2969" style="stroke: #A80036; stroke-width: 1.5;" width="152" x="281" y="678.4531"/><rect fill="#FEFECE" height="5" style="stroke: #A80036; stroke-width: 1.5;" width="10" x="276" y="683.4531"/><rect fill="#FEFECE" height="5" style="stroke: #A80036; stroke-width: 1.5;" width="10" x="276" y="704.75"/><text fill="#000000" font-family="sans-serif" font-size="14" lengthAdjust="spacingAndGlyphs" textLength="132" x="291" y="701.4482">Django + Gunicorn</text><!--MD5=[bea219385a9b32ba445983114d6cf62a]
entity StagingNginx--><rect fill="#FEFECE" filter="url(#fa2upna14zbxv)" height="36.2969" style="stroke: #A80036; stroke-width: 1.5;" width="58" x="328" y="530.4531"/><rect fill="#FEFECE" height="5" style="stroke: #A80036; stroke-width: 1.5;" width="10" x="323" y="535.4531"/><rect fill="#FEFECE" height="5" style="stroke: #A80036; stroke-width: 1.5;" width="10" x="323" y="556.75"/><text fill="#000000" font-family="sans-serif" font-size="14" lengthAdjust="spacingAndGlyphs" textLength="38" x="338" y="553.4482">Nginx</text><!--MD5=[c279f62dce766a07ef550c33c9cac0f1]
entity StagingDB--><path d="M306.5,889.9531 C306.5,879.9531 357,879.9531 357,879.9531 C357,879.9531 407.5,879.9531 407.5,889.9531 L407.5,915.25 C407.5,925.25 357,925.25 357,925.25 C357,925.25 306.5,925.25 306.5,915.25 L306.5,889.9531 " fill="#FEFECE" filter="url(#fa2upna14zbxv)" style="stroke: #000000; stroke-width: 1.5;"/><path d="M306.5,889.9531 C306.5,899.9531 357,899.9531 357,899.9531 C357,899.9531 407.5,899.9531 407.5,889.9531 " fill="none" style="stroke: #000000; stroke-width: 1.5;"/><text fill="#000000" font-family="sans-serif" font-size="14" lengthAdjust="spacingAndGlyphs" textLength="81" x="316.5" y="916.9482">PostgreSQL</text><!--MD5=[3b3cdfd9fe440a908a6d693d76d3c34d]
entity ProdCI--><rect fill="#FEFECE" filter="url(#fa2upna14zbxv)" height="52.5938" style="stroke: #A80036; stroke-width: 1.5;" width="122" x="553" y="264.4531"/><rect fill="#FEFECE" height="5" style="stroke: #A80036; stroke-width: 1.5;" width="10" x="548" y="269.4531"/><rect fill="#FEFECE" height="5" style="stroke: #A80036; stroke-width: 1.5;" width="10" x="548" y="307.0469"/><text fill="#000000" font-family="sans-serif" font-size="14" lengthAdjust="spacingAndGlyphs" textLength="102" x="563" y="287.4482">GitHub Actions</text><text fill="#000000" font-family="sans-serif" font-size="14" lengthAdjust="spacingAndGlyphs" textLength="93" x="563" y="303.7451">(Auto-deploy)</text><!--MD5=[166211f41e7560723890c8b0e4685cd0]
entity BackupScript--><rect fill="#FEFECE" filter="url(#fa2upna14zbxv)" height="52.5938" style="stroke: #A80036; stroke-width: 1.5;" width="169" x="1243.5" y="669.9531"/><rect fill="#FEFECE" height="5" style="stroke: #A80036; stroke-width: 1.5;" width="10" x="1238.5" y="674.9531"/><rect fill="#FEFECE" height="5" style="stroke: #A80036; stroke-width: 1.5;" width="10" x="1238.5" y="712.5469"/><text fill="#000000" font-family="sans-serif" font-size="14" lengthAdjust="spacingAndGlyphs" textLength="120" x="1253.5" y="692.9482">DB Backup Script</text><text fill="#000000" font-family="sans-serif" font-size="14" lengthAdjust="spacingAndGlyphs" textLength="149" x="1253.5" y="709.2451">(Daily Systemd Timer)</text><!--MD5=[ec17489ddffd89f37c579cb0e468b35a]
entity MonitoringService--><rect fill="#FEFECE" filter="url(#fa2upna14zbxv)" height="52.5938" style="stroke: #A80036; stroke-width: 1.5;" width="138" x="612" y="521.9531"/><rect fill="#FEFECE" height="5" style="stroke: #A80036; stroke-width: 1.5;" width="10" x="607" y="526.9531"/><rect fill="#FEFECE" height="5" style="stroke: #A80036; stroke-width: 1.5;" width="10" x="607" y="564.5469"/><text fill="#000000" font-family="sans-serif" font-size="14" lengthAdjust="spacingAndGlyphs" textLength="118" x="622" y="544.9482">AWS CloudWatch</text><text fill="#000000" font-family="sans-serif" font-size="14" lengthAdjust="spacingAndGlyphs" textLength="115" x="622" y="561.2451">or Custom Script</text><!--MD5=[184c1b748d7659c9b749ff072396cd8b]
entity ProdReact--><rect fill="#FEFECE" filter="url(#fa2upna14zbxv)" height="36.2969" style="stroke: #A80036; stroke-width: 1.5;" width="112" x="909" y="678.4531"/><rect fill="#FEFECE" height="5" style="stroke: #A80036; stroke-width: 1.5;" width="10" x="904" y="683.4531"/><rect fill="#FEFECE" height="5" style="stroke: #A80036; stroke-width: 1.5;" width="10" x="904" y="704.75"/><text fill="#000000" font-family="sans-serif" font-size="14" lengthAdjust="spacingAndGlyphs" textLength="92" x="919" y="701.4482">React (Static)</text><!--MD5=[761d3a61028c4ca3edfe429122b20872]
entity ProdDjango--><rect fill="#FEFECE" filter="url(#fa2upna14zbxv)" height="36.2969" style="stroke: #A80036; stroke-width: 1.5;" width="152" x="1056" y="678.4531"/><rect fill="#FEFECE" height="5" style="stroke: #A80036; stroke-width: 1.5;" width="10" x="1051" y="683.4531"/><rect fill="#FEFECE" height="5" style="stroke: #A80036; stroke-width: 1.5;" width="10" x="1051" y="704.75"/><text fill="#000000" font-family="sans-serif" font-size="14" lengthAdjust="spacingAndGlyphs" textLength="132" x="1066" y="701.4482">Django + Gunicorn</text><!--MD5=[7024ae6d0e7fe23406c57318eacae3a1]
entity ProdNginx--><rect fill="#FEFECE" filter="url(#fa2upna14zbxv)" height="36.2969" style="stroke: #A80036; stroke-width: 1.5;" width="58" x="1060" y="530.4531"/><rect fill="#FEFECE" height="5" style="stroke: #A80036; stroke-width: 1.5;" width="10" x="1055" y="535.4531"/><rect fill="#FEFECE" height="5" style="stroke: #A80036; stroke-width: 1.5;" width="10" x="1055" y="556.75"/><text fill="#000000" font-family="sans-serif" font-size="14" lengthAdjust="spacingAndGlyphs" textLength="38" x="1070" y="553.4482">Nginx</text><!--MD5=[2080150ee518dfaf18fbac8f9d847de5]
entity ProdDB--><path d="M1095.5,889.9531 C1095.5,879.9531 1146,879.9531 1146,879.9531 C1146,879.9531 1196.5,879.9531 1196.5,889.9531 L1196.5,915.25 C1196.5,925.25 1146,925.25 1146,925.25 C1146,925.25 1095.5,925.25 1095.5,915.25 L1095.5,889.9531 " fill="#FEFECE" filter="url(#fa2upna14zbxv)" style="stroke: #000000; stroke-width: 1.5;"/><path d="M1095.5,889.9531 C1095.5,899.9531 1146,899.9531 1146,899.9531 C1146,899.9531 1196.5,899.9531 1196.5,889.9531 " fill="none" style="stroke: #000000; stroke-width: 1.5;"/><text fill="#000000" font-family="sans-serif" font-size="14" lengthAdjust="spacingAndGlyphs" textLength="81" x="1105.5" y="916.9482">PostgreSQL</text><!--MD5=[991d7764ac6468db00fe0660c42e8f21]
entity BackupStorage--><path d="M1484,889.9531 C1484,879.9531 1549,879.9531 1549,879.9531 C1549,879.9531 1614,879.9531 1614,889.9531 L1614,915.25 C1614,925.25 1549,925.25 1549,925.25 C1549,925.25 1484,925.25 1484,915.25 L1484,889.9531 " fill="#FEFECE" filter="url(#fa2upna14zbxv)" style="stroke: #000000; stroke-width: 1.5;"/><path d="M1484,889.9531 C1484,899.9531 1549,899.9531 1549,899.9531 C1549,899.9531 1614,899.9531 1614,889.9531 " fill="none" style="stroke: #000000; stroke-width: 1.5;"/><text fill="#000000" font-family="sans-serif" font-size="14" lengthAdjust="spacingAndGlyphs" textLength="110" x="1494" y="916.9482">Backup Storage</text><!--MD5=[fee662a292a0353a69bd162820bae93b]
entity User--><ellipse cx="2070" cy="259.9531" fill="#FEFECE" filter="url(#fa2upna14zbxv)" rx="8" ry="8" style="stroke: #A80036; stroke-width: 1.5;"/><path d="M2070,267.9531 L2070,294.9531 M2057,275.9531 L2083,275.9531 M2070,294.9531 L2057,309.9531 M2070,294.9531 L2083,309.9531 " fill="none" filter="url(#fa2upna14zbxv)" style="stroke: #A80036; stroke-width: 1.5;"/><text fill="#000000" font-family="sans-serif" font-size="14" lengthAdjust="spacingAndGlyphs" textLength="103" x="2018.5" y="328.4482">Student/Admin</text><path d="M2264,660.9531 L2264,731.4844 L2524,731.4844 L2524,670.9531 L2514,660.9531 L2264,660.9531 " fill="#FBFB77" filter="url(#fa2upna14zbxv)" style="stroke: #A80036; stroke-width: 1.0;"/><path d="M2514,660.9531 L2514,670.9531 L2524,670.9531 L2514,660.9531 " fill="#FBFB77" style="stroke: #A80036; stroke-width: 1.0;"/><text fill="#000000" font-family="sans-serif" font-size="13" font-weight="bold" lengthAdjust="spacingAndGlyphs" textLength="109" x="2270" y="678.02">Daily Backups:</text><text fill="#000000" font-family="sans-serif" font-size="13" lengthAdjust="spacingAndGlyphs" textLength="122" x="2270" y="693.1528">- pg_dump at 3 AM</text><text fill="#000000" font-family="sans-serif" font-size="13" lengthAdjust="spacingAndGlyphs" textLength="239" x="2270" y="708.2856">- rsync to backup server (dump copy)</text><text fill="#000000" font-family="sans-serif" font-size="13" lengthAdjust="spacingAndGlyphs" textLength="107" x="2270" y="723.4185">- 7-day retention</text><path d="M2264,512.9531 L2264,583.4844 L2416,583.4844 L2416,522.9531 L2406,512.9531 L2264,512.9531 " fill="#FBFB77" filter="url(#fa2upna14zbxv)" style="stroke: #A80036; stroke-width: 1.0;"/><path d="M2406,512.9531 L2406,522.9531 L2416,522.9531 L2406,512.9531 " fill="#FBFB77" style="stroke: #A80036; stroke-width: 1.0;"/><text fill="#000000" font-family="sans-serif" font-size="13" font-weight="bold" lengthAdjust="spacingAndGlyphs" textLength="128" x="2270" y="530.02">Basic Monitoring:</text><text fill="#000000" font-family="sans-serif" font-size="13" lengthAdjust="spacingAndGlyphs" textLength="131" x="2270" y="545.1528">- CPU, Memory, Disk</text><text fill="#000000" font-family="sans-serif" font-size="13" lengthAdjust="spacingAndGlyphs" textLength="70" x="2270" y="560.2856">- Error logs</text><text fill="#000000" font-family="sans-serif" font-size="13" lengthAdjust="spacingAndGlyphs" textLength="111" x="2270" y="575.4185">- Custom metrics</text><path d="M2451.5,512.9531 L2451.5,583.4844 L2752.5,583.4844 L2752.5,522.9531 L2742.5,512.9531 L2451.5,512.9531 " fill="#FBFB77" filter="url(#fa2upna14zbxv)" style="stroke: #A80036; stroke-width: 1.0;"/><path d="M2742.5,512.9531 L2742.5,522.9531 L2752.5,522.9531 L2742.5,512.9531 " fill="#FBFB77" style="stroke: #A80036; stroke-width: 1.0;"/><text fill="#000000" font-family="sans-serif" font-size="13" font-weight="bold" lengthAdjust="spacingAndGlyphs" textLength="247" x="2457.5" y="530.02">Load Balancing and Auto-scaling:</text><text fill="#000000" font-family="sans-serif" font-size="13" lengthAdjust="spacingAndGlyphs" textLength="207" x="2457.5" y="545.1528">- AWS Application Load Balancer</text><text fill="#000000" font-family="sans-serif" font-size="13" lengthAdjust="spacingAndGlyphs" textLength="244" x="2457.5" y="560.2856">- Auto-scaling group for EC2 instances</text><text fill="#000000" font-family="sans-serif" font-size="13" lengthAdjust="spacingAndGlyphs" textLength="280" x="2457.5" y="575.4185">- For later versions (users number increase)</text><!--MD5=[c96cc11e282896741c770faef618c0b3]
link User to DevReact--><path d="M2107.91,331.7631 C2118.39,347.4931 2123.99,364.9931 2112,378.4531 C2101.73,389.9831 2055.8,377.8231 2043,386.4531 C1997.49,417.1231 1973.38,479.4131 1962.48,516.8931 " fill="none" id="User-&gt;DevReact" style="stroke: #A80036; stroke-width: 1.0;"/><polygon fill="#A80036" points="1961.09,521.7831,1967.4027,514.2233,1962.4598,516.9744,1959.7087,512.0316,1961.09,521.7831" style="stroke: #A80036; stroke-width: 1.0;"/><text fill="#000000" font-family="sans-serif" font-size="13" lengthAdjust="spacingAndGlyphs" textLength="93" x="2119" y="374.52">localhost:3000</text><!--MD5=[459d9d2ba548aa9e63da213d8ba75670]
link User to DevDjango--><path d="M2121.56,296.7831 C2163.13,303.7031 2219.11,320.5331 2247,361.4531 C2251.26,367.6931 2249.19,371.2231 2247,378.4531 C2230.35,433.3031 2189.35,486.5731 2161.6,518.1931 " fill="none" id="User-&gt;DevDjango" style="stroke: #A80036; stroke-width: 1.0;"/><polygon fill="#A80036" points="2158.28,521.9431,2167.2412,517.8569,2161.5947,518.1998,2161.2518,512.5533,2158.28,521.9431" style="stroke: #A80036; stroke-width: 1.0;"/><text fill="#000000" font-family="sans-serif" font-size="13" lengthAdjust="spacingAndGlyphs" textLength="116" x="2250" y="374.52">localhost:8000/api</text><!--MD5=[a6f202151267c54df24839b999077695]
link DevDjango to DevDB--><path d="M2134,575.2231 C2134,601.4631 2134,641.9931 2134,668.6131 " fill="none" id="DevDjango-&gt;DevDB" style="stroke: #A80036; stroke-width: 1.0;"/><polygon fill="#A80036" points="2134,673.7531,2138,664.7531,2134,668.7531,2130,664.7531,2134,673.7531" style="stroke: #A80036; stroke-width: 1.0;"/><!--MD5=[d8028c4f8b6bcd785c019cda2fde25dd]
link MainBranch to StagingCI--><path d="M413.34,121.5731 C388.14,153.1631 334.05,220.9531 302.73,260.2031 " fill="none" id="MainBranch-&gt;StagingCI" style="stroke: #A80036; stroke-width: 1.0;"/><polygon fill="#A80036" points="299.4,264.3831,308.1336,259.8307,302.513,260.4704,301.8733,254.8499,299.4,264.3831" style="stroke: #A80036; stroke-width: 1.0;"/><text fill="#000000" font-family="sans-serif" font-size="13" lengthAdjust="spacingAndGlyphs" textLength="84" x="389" y="166.52">push triggers</text><!--MD5=[305a8054fa425b953d249964bd7f022f]
link StagingCI to StagingEC2--><path d="M217.73,313.3131 C183.24,328.4631 142.32,352.2431 118,386.4531 C115.3988,390.1113 112.9964,393.9287 110.7785,397.8719 C110.224,398.8578 109.681,399.8514 109.1493,400.8525 C108.8834,401.353 108.6204,401.8553 108.3602,402.3595 " fill="none" id="StagingCI-&gt;StagingEC2" style="stroke: #A80036; stroke-width: 1.0;"/><polygon fill="#A80036" points="108.3602,402.3595,116.0428,396.1969,110.6537,397.9165,108.9341,392.5273,108.3602,402.3595" style="stroke: #A80036; stroke-width: 1.0;"/><text fill="#000000" font-family="sans-serif" font-size="13" lengthAdjust="spacingAndGlyphs" textLength="42" x="139" y="374.52">deploy</text><!--MD5=[f59384afcccb40f32fd6cc288f66e101]
link LiveBranch to ProdCI--><path d="M568.61,121.5731 C577.06,152.9031 595.11,219.8631 605.72,259.2431 " fill="none" id="LiveBranch-&gt;ProdCI" style="stroke: #A80036; stroke-width: 1.0;"/><polygon fill="#A80036" points="607.11,264.3831,608.6327,254.6527,605.8101,259.555,600.9078,256.7325,607.11,264.3831" style="stroke: #A80036; stroke-width: 1.0;"/><text fill="#000000" font-family="sans-serif" font-size="13" lengthAdjust="spacingAndGlyphs" textLength="84" x="583" y="166.52">push triggers</text><!--MD5=[68fb5a3dc4d74beec6436cc4893b2e04]
link ProdCI to ProdEC2--><path d="M608.62,317.5331 C604.75,336.5031 599.61,363.0131 596,386.4531 C595.325,390.8344 594.6611,395.2859 594.0096,399.7826 C593.9281,400.3447 593.8469,400.9074 593.7658,401.4709 C593.7253,401.7526 593.6848,402.0345 593.6444,402.3165 " fill="none" id="ProdCI-&gt;ProdEC2" style="stroke: #A80036; stroke-width: 1.0;"/><polygon fill="#A80036" points="593.6444,402.3165,598.881,393.9752,594.3539,397.3671,590.962,392.84,593.6444,402.3165" style="stroke: #A80036; stroke-width: 1.0;"/><text fill="#000000" font-family="sans-serif" font-size="13" lengthAdjust="spacingAndGlyphs" textLength="42" x="601" y="374.52">deploy</text><!--MD5=[b6c7749c329d241bfe463a92b8db69e3]
link User to StagingNginx--><path d="M2018.26,306.4731 C1971.62,319.8331 1901.3,340.6831 1841,361.4531 C1821.18,368.2831 1817.6,374.5431 1797,378.4531 C1763.27,384.8531 593.4,375.0931 561,386.4531 C480.07,414.8331 406.86,489.8231 374.52,526.5631 " fill="none" id="User-&gt;StagingNginx" style="stroke: #A80036; stroke-width: 1.0;"/><polygon fill="#A80036" points="371.15,530.4231,380.0857,526.2815,374.4415,526.6594,374.0637,521.0151,371.15,530.4231" style="stroke: #A80036; stroke-width: 1.0;"/><text fill="#000000" font-family="sans-serif" font-size="13" lengthAdjust="spacingAndGlyphs" textLength="99" x="1842" y="374.52">staging domain</text><!--MD5=[ee75d493fe4b4e08cc9ace1fa627ba16]
link StagingNginx to StagingReact--><path d="M341.26,566.6731 C335.91,572.3131 329.82,578.5231 324,583.9531 C287.94,617.6031 243.48,653.6031 215.93,675.3131 " fill="none" id="StagingNginx-&gt;StagingReact" style="stroke: #A80036; stroke-width: 1.0;"/><polygon fill="#A80036" points="211.99,678.4131,221.5331,675.9781,215.9151,675.3158,216.5774,669.6979,211.99,678.4131" style="stroke: #A80036; stroke-width: 1.0;"/><!--MD5=[b57a73c5cddedd30aca2363a3e7c0e68]
link StagingNginx to StagingDjango--><path d="M357,566.4831 C357,592.8331 357,643.4731 357,672.8531 " fill="none" id="StagingNginx-&gt;StagingDjango" style="stroke: #A80036; stroke-width: 1.0;"/><polygon fill="#A80036" points="357,678.0731,361,669.0731,357,673.0731,353,669.0731,357,678.0731" style="stroke: #A80036; stroke-width: 1.0;"/><!--MD5=[fb1d5a875ae4d9b88f8c637c3f132cdd]
link StagingDjango to StagingDB--><path d="M357,714.4931 C357,749.9431 357,831.8631 357,874.5231 " fill="none" id="StagingDjango-&gt;StagingDB" style="stroke: #A80036; stroke-width: 1.0;"/><polygon fill="#A80036" points="357,879.7731,361,870.7731,357,874.7731,353,870.7731,357,879.7731" style="stroke: #A80036; stroke-width: 1.0;"/><!--MD5=[4cb14242615cf40873e174f49b0f3cf7]
link User to ProdNginx--><path d="M2020.61,331.5531 C1994.67,351.5231 1965.19,372.7031 1950,378.4531 C1916.16,391.2431 1904.76,381.0131 1869,386.4531 C1578.01,430.7331 1231.63,512.6931 1123.18,539.0531 " fill="none" id="User-&gt;ProdNginx" style="stroke: #A80036; stroke-width: 1.0;"/><polygon fill="#A80036" points="1118.2,540.2631,1127.8919,542.0146,1123.0574,539.0774,1125.9946,534.2429,1118.2,540.2631" style="stroke: #A80036; stroke-width: 1.0;"/><text fill="#000000" font-family="sans-serif" font-size="13" lengthAdjust="spacingAndGlyphs" textLength="120" x="1978" y="374.52">production domain</text><!--MD5=[50b556d447430eec736ffe20f4b4571d]
link ProdNginx to ProdReact--><path d="M1074.6,566.7931 C1069.16,572.6931 1062.67,579.0331 1056,583.9531 C1032.01,601.6531 1016,591.8431 996,613.9531 C981,630.5331 972.99,655.1231 968.9,672.9431 " fill="none" id="ProdNginx-&gt;ProdReact" style="stroke: #A80036; stroke-width: 1.0;"/><polygon fill="#A80036" points="967.75,678.2431,973.5629,670.2926,968.8074,673.3562,965.7438,668.6008,967.75,678.2431" style="stroke: #A80036; stroke-width: 1.0;"/><text fill="#000000" font-family="sans-serif" font-size="13" lengthAdjust="spacingAndGlyphs" textLength="103" x="997" y="627.02">serve static files</text><!--MD5=[97c5f32183e667bdb600be300a49b12b]
link ProdNginx to ProdDjango--><path d="M1094.02,566.4831 C1101.81,592.9431 1116.81,643.8931 1125.45,673.2131 " fill="none" id="ProdNginx-&gt;ProdDjango" style="stroke: #A80036; stroke-width: 1.0;"/><polygon fill="#A80036" points="1126.88,678.0731,1128.1732,668.3095,1125.4669,673.277,1120.4994,670.5706,1126.88,678.0731" style="stroke: #A80036; stroke-width: 1.0;"/><text fill="#000000" font-family="sans-serif" font-size="13" lengthAdjust="spacingAndGlyphs" textLength="119" x="1112" y="627.02">proxy API requests</text><!--MD5=[a3c8a9309a00642dd374ee7c71386935]
link ProdDjango to ProdDB--><path d="M1133.17,714.4931 C1135.61,750.0131 1141.25,832.1931 1144.17,874.7831 " fill="none" id="ProdDjango-&gt;ProdDB" style="stroke: #A80036; stroke-width: 1.0;"/><polygon fill="#A80036" points="1144.51,879.7731,1147.8849,870.5206,1144.1679,874.7848,1139.9037,871.0679,1144.51,879.7731" style="stroke: #A80036; stroke-width: 1.0;"/><!--MD5=[7f4171d56cb8d40a11cf804bb7f89e6e]
link BackupScript to ProdDB--><path d="M1304.95,723.2931 C1269.97,762.4931 1203.88,836.5831 1168.96,875.7231 " fill="none" id="BackupScript-&gt;ProdDB" style="stroke: #A80036; stroke-width: 1.0;"/><polygon fill="#A80036" points="1165.27,879.8631,1174.2476,875.8131,1168.5998,876.1332,1168.2797,870.4854,1165.27,879.8631" style="stroke: #A80036; stroke-width: 1.0;"/><text fill="#000000" font-family="sans-serif" font-size="13" lengthAdjust="spacingAndGlyphs" textLength="37" x="1259" y="788.02">dump</text><!--MD5=[77c6e84d0d5dcc534549005349d76f26]
link BackupScript to BackupStorage--><path d="M1355.99,723.2931 C1398.72,762.7331 1479.7,837.4831 1521.89,876.4331 " fill="none" id="BackupScript-&gt;BackupStorage" style="stroke: #A80036; stroke-width: 1.0;"/><polygon fill="#A80036" points="1525.61,879.8631,1521.7245,870.8131,1521.9415,876.4658,1516.2888,876.6828,1525.61,879.8631" style="stroke: #A80036; stroke-width: 1.0;"/><text fill="#000000" font-family="sans-serif" font-size="13" lengthAdjust="spacingAndGlyphs" textLength="101" x="1426" y="788.02">rsync copy daily</text><!--MD5=[a8bfae53378d2ffabeb14b82400ba86e]
link MonitoringService to MonitoringService--><path d="M750.01,534.6331 C769.77,535.1731 785,539.7831 785,548.4531 C785,556.3131 772.49,560.8331 755.44,562.0131 " fill="none" id="MonitoringService-&gt;MonitoringService" style="stroke: #A80036; stroke-width: 1.0;"/><polygon fill="#A80036" points="750.01,562.2731,759.1935,565.8318,755.0041,562.0306,758.8053,557.8412,750.01,562.2731" style="stroke: #A80036; stroke-width: 1.0;"/><text fill="#000000" font-family="sans-serif" font-size="13" lengthAdjust="spacingAndGlyphs" textLength="97" x="791" y="545.52">collect metrics,</text><text fill="#000000" font-family="sans-serif" font-size="13" lengthAdjust="spacingAndGlyphs" textLength="35" x="822" y="560.6528">notify</text><!--MD5=[a49089ec42144b23e990b93d3cba15c3]
link BackupScript to GMN50--><path d="M1412.67,674.2231 C1570.27,636.1731 1918.74,567.7231 2206.5,622.4531 C2246.21,630.0031 2288.25,645.8031 2322.44,660.8731 " fill="none" id="BackupScript-GMN50" style="stroke: #A80036; stroke-width: 1.0; stroke-dasharray: 7.0,7.0;"/><!--MD5=[d3e060de9165d0361df69dbe72651877]
link MonitoringService to GMN53--><path d="M702.21,521.7031 C739.03,477.6931 819.57,391.6431 910.5,358.9531 C978.25,334.5931 2142.59,325.8031 2206.5,358.9531 C2268.84,391.2931 2308.22,467.5931 2326.98,512.8931 " fill="none" id="MonitoringService-GMN53" style="stroke: #A80036; stroke-width: 1.0; stroke-dasharray: 7.0,7.0;"/><!--MD5=[05a6fd91ac6ca92663329233ba0ae11b]
link ProdEC2 to GMN56--><path d="M568.9716,501.7825 C568.7312,499.5384 568.5062,497.2437 568.301,494.9054 C567.48,485.5521 566.9744,475.5016 567.055,465.2069 C567.3775,424.0281 577.08,378.9431 613.5,358.9531 C657.4,334.8531 2370.33,339.5431 2416.5,358.9531 C2490.77,390.1831 2550.18,467.2631 2580.34,512.9231 " fill="none" id="ProdEC2-GMN56" style="stroke: #A80036; stroke-width: 1.0; stroke-dasharray: 7.0,7.0;"/><!--MD5=[b81473ea2f4e73743569e14dc84ed571]
@startuml deployment-diagram

title Rate UKMA Deployment Diagram (v1.0)

skinparam rectangle BorderColor #1976D2
skinparam node BorderColor #1976D2
skinparam database BackgroundColor #C8E6C9

actor "Student/Admin" as User

node "GitHub" {
    component "Main Branch" as MainBranch
    component "Live Branch" as LiveBranch
}

node "Development Environment" <<local>> {
    node "Docker Compose" as DevDocker {
        component "React Dev Server\n(port 3000)" as DevReact
        component "Django Dev Server\n(port 8000)" as DevDjango
        database "PostgreSQL" as DevDB
    }
}

cloud "AWS Cloud" {
    rectangle "Staging Environment" {
        node "EC2 Instance (Staging)\nt3.micro (2 vCPU, 1GB RAM)\nUbuntu 22.04 LTS, 15GB SSD" as StagingEC2 {
            node "Docker" as StagingDocker {
                component "React (Static)" as StagingReact
                component "Django + Gunicorn" as StagingDjango
                component "Nginx" as StagingNginx
                database "PostgreSQL" as StagingDB
            }
        }
        component "GitHub Actions\n(Auto-deploy)" as StagingCI
    }
    
    rectangle "Production Environment" {
        node "EC2 Instance (Production)\nt3.small (2 vCPU, 2GB RAM)\nUbuntu 22.04 LTS, 20GB SSD" as ProdEC2 {
            node "Docker" as ProdDocker {
                component "React (Static)" as ProdReact
                component "Django + Gunicorn" as ProdDjango
                component "Nginx" as ProdNginx
                database "PostgreSQL" as ProdDB
            }
            
            component "DB Backup Script\n(Daily Systemd Timer)" as BackupScript
            component "AWS CloudWatch\nor Custom Script" as MonitoringService
        }
        
        node "Backup Server\nt3.micro (2 vCPU, 1GB RAM)\nUbuntu 22.04 LTS, 30GB SSD" as BackupEC2 {
            database "Backup Storage" as BackupStorage
        }
        
        component "GitHub Actions\n(Auto-deploy)" as ProdCI
    }
}

User - -> DevReact : "localhost:3000"
User - -> DevDjango : "localhost:8000/api"
DevDjango - -> DevDB

MainBranch - -> StagingCI : "push triggers"
StagingCI - -> StagingEC2 : "deploy"
LiveBranch - -> ProdCI : "push triggers"
ProdCI - -> ProdEC2 : "deploy"

User - -> StagingNginx : staging domain
StagingNginx - -> StagingReact
StagingNginx - -> StagingDjango
StagingDjango - -> StagingDB

User - -> ProdNginx : production domain
ProdNginx - -> ProdReact : "serve static files"
ProdNginx - -> ProdDjango : "proxy API requests"
ProdDjango - -> ProdDB
BackupScript - -> ProdDB : "dump"
BackupScript - -> BackupStorage : "rsync copy daily"
MonitoringService - -> MonitoringService : "collect metrics,\nnotify"

note right of BackupScript
  **Daily Backups:**
  - pg_dump at 3 AM
  - rsync to backup server (dump copy)
  - 7-day retention
end note

note right of MonitoringService
  **Basic Monitoring:**
  - CPU, Memory, Disk
  - Error logs
  - Custom metrics
end note

note right of ProdEC2
  **Load Balancing and Auto-scaling:**
  - AWS Application Load Balancer
  - Auto-scaling group for EC2 instances
  - For later versions (users number increase)
end note

@enduml

PlantUML version 1.2020.02(Sun Mar 01 12:22:07 EET 2020)
(GPL source distribution)
Java Runtime: OpenJDK Runtime Environment
JVM: OpenJDK 64-Bit Server VM
Java Version: 17.0.16+8-Ubuntu-0ubuntu122.04.1
Operating System: Linux
Default Encoding: UTF-8
Language: en
Country: US
--></g></svg>