<svg xmlns="http://www.w3.org/2000/svg" xmlns:xlink="http://www.w3.org/1999/xlink" contentStyleType="text/css" data-diagram-type="DESCRIPTION" height="897px" preserveAspectRatio="none" style="width:1149px;height:897px;background:#FFFFFF;" version="1.1" viewBox="0 0 1149 897" width="1149px" zoomAndPan="magnify"><title>Rate UKMA - High-Level Architecture (v1.0)</title><defs/><g><g class="title" data-source-line="1"><text fill="#000000" font-family="sans-serif" font-size="14" font-weight="bold" lengthAdjust="spacing" textLength="342.8018" x="396.0991" y="22.9951">Rate UKMA - High-Level Architecture (v1.0)</text></g><!--cluster Presentation Layer--><g class="cluster" data-entity="Presentation Layer" data-source-line="6" data-uid="ent0002" id="cluster_Presentation Layer"><rect fill="none" height="87.3" rx="2.5" ry="2.5" style="stroke:#181818;stroke-width:1;" width="194" x="443" y="44.2969"/><text fill="#000000" font-family="sans-serif" font-size="14" font-weight="bold" lengthAdjust="spacing" textLength="150.4385" x="464.7808" y="59.292">Presentation Layer</text></g><!--cluster EDGE--><g class="cluster" data-entity="EDGE" data-source-line="10" data-uid="ent0004" id="cluster_EDGE"><rect fill="none" height="243.29" rx="2.5" ry="2.5" style="stroke:#181818;stroke-width:1;" width="240" x="403" y="164.5969"/><text fill="#000000" font-family="sans-serif" font-size="14" font-weight="bold" lengthAdjust="spacing" textLength="87.8691" x="479.0654" y="179.592">Edge Layer</text></g><!--cluster BL--><g class="cluster" data-entity="BL" data-source-line="15" data-uid="ent0007" id="cluster_BL"><rect fill="none" height="320.89" rx="2.5" ry="2.5" style="stroke:#181818;stroke-width:1;" width="393" x="667" y="320.5969"/><text fill="#000000" font-family="sans-serif" font-size="14" font-weight="bold" lengthAdjust="spacing" textLength="165.1973" x="780.9014" y="335.592">Business Logic Layer</text></g><!--cluster Data Access Layer--><g class="cluster" data-entity="Data Access Layer" data-source-line="31" data-uid="ent0020" id="cluster_Data Access Layer"><rect fill="none" height="87.29" rx="2.5" ry="2.5" style="stroke:#181818;stroke-width:1;" width="715" x="428" y="674.4869"/><text fill="#000000" font-family="sans-serif" font-size="14" font-weight="bold" lengthAdjust="spacing" textLength="144.4434" x="713.2783" y="689.482">Data Access Layer</text></g><!--cluster Data Layer--><g class="cluster" data-entity="Data Layer" data-source-line="38" data-uid="ent0025" id="cluster_Data Layer"><rect fill="none" height="96.3" rx="2.5" ry="2.5" style="stroke:#181818;stroke-width:1;" width="271" x="586" y="794.7769"/><text fill="#000000" font-family="sans-serif" font-size="14" font-weight="bold" lengthAdjust="spacing" textLength="85.9756" x="678.5122" y="809.772">Data Layer</text></g><!--cluster External Systems--><g class="cluster" data-entity="External Systems" data-source-line="43" data-uid="ent0028" id="cluster_External Systems"><rect fill="none" height="87.3" rx="2.5" ry="2.5" style="stroke:#181818;stroke-width:1;" width="582" x="7" y="554.1869"/><text fill="#000000" font-family="sans-serif" font-size="14" font-weight="bold" lengthAdjust="spacing" textLength="137.4229" x="229.2886" y="569.182">External Systems</text></g><!--entity WebApp--><g class="entity" data-entity="WebApp" data-source-line="7" data-uid="ent0003" id="entity_WebApp"><rect fill="#F1F1F1" height="36.2969" rx="2.5" ry="2.5" style="stroke:#181818;stroke-width:0.5;" width="161.1826" x="459.41" y="79.2969"/><text fill="#000000" font-family="sans-serif" font-size="14" lengthAdjust="spacing" textLength="141.1826" x="469.41" y="102.292">Web Frontend (SPA)</text></g><!--entity REST--><g class="entity" data-entity="REST" data-source-line="11" data-uid="ent0005" id="entity_REST"><ellipse cx="540" cy="228.5969" fill="#F1F1F1" rx="8" ry="8" style="stroke:#181818;stroke-width:0.5;"/><text fill="#000000" font-family="sans-serif" font-size="14" lengthAdjust="spacing" textLength="159.168" x="460.416" y="258.592">REST API (OpenAPI v3)</text></g><!--entity Auth--><g class="entity" data-entity="Auth" data-source-line="12" data-uid="ent0006" id="entity_Auth"><rect fill="#F1F1F1" height="36.2969" rx="2.5" ry="2.5" style="stroke:#181818;stroke-width:0.5;" width="207.8652" x="419.07" y="355.5969"/><text fill="#000000" font-family="sans-serif" font-size="14" lengthAdjust="spacing" textLength="187.8652" x="429.07" y="378.592">Authentication Middleware</text></g><!--entity CourseSvc--><g class="entity" data-entity="CourseSvc" data-source-line="16" data-uid="ent0008" id="entity_CourseSvc"><rect fill="#F1F1F1" height="36.2969" rx="2.5" ry="2.5" style="stroke:#181818;stroke-width:0.5;" width="125.0684" x="918.47" y="589.1869"/><text fill="#000000" font-family="sans-serif" font-size="14" lengthAdjust="spacing" textLength="105.0684" x="928.47" y="612.182">Course Service</text></g><!--entity RatingSvc--><g class="entity" data-entity="RatingSvc" data-source-line="17" data-uid="ent0009" id="entity_RatingSvc"><rect fill="#F1F1F1" height="36.2969" rx="2.5" ry="2.5" style="stroke:#181818;stroke-width:0.5;" width="121.6367" x="885.18" y="454.8869"/><text fill="#000000" font-family="sans-serif" font-size="14" lengthAdjust="spacing" textLength="101.6367" x="895.18" y="477.882">Rating Service</text></g><!--entity UserSvc--><g class="entity" data-entity="UserSvc" data-source-line="18" data-uid="ent0010" id="entity_UserSvc"><rect fill="#F1F1F1" height="36.2969" rx="2.5" ry="2.5" style="stroke:#181818;stroke-width:0.5;" width="108.1016" x="774.95" y="589.1869"/><text fill="#000000" font-family="sans-serif" font-size="14" lengthAdjust="spacing" textLength="88.1016" x="784.95" y="612.182">User Service</text></g><!--entity RecoSvc--><g class="entity" data-entity="RecoSvc" data-source-line="19" data-uid="ent0011" id="entity_RecoSvc"><rect fill="#F1F1F1" height="36.2969" rx="2.5" ry="2.5" style="stroke:#181818;stroke-width:0.5;" width="199.8398" x="761.08" y="355.5969"/><text fill="#000000" font-family="sans-serif" font-size="14" lengthAdjust="spacing" textLength="179.8398" x="771.08" y="378.592">Recommendation Service</text></g><!--entity ScraperSvc--><g class="entity" data-entity="ScraperSvc" data-source-line="20" data-uid="ent0012" id="entity_ScraperSvc"><rect fill="#F1F1F1" height="36.2969" rx="2.5" ry="2.5" style="stroke:#181818;stroke-width:0.5;" width="130.3662" x="682.82" y="454.8869"/><text fill="#000000" font-family="sans-serif" font-size="14" lengthAdjust="spacing" textLength="110.3662" x="692.82" y="477.882">Scraper Service</text></g><!--entity CourseRepository--><g class="entity" data-entity="CourseRepository" data-source-line="32" data-uid="ent0021" id="entity_CourseRepository"><rect fill="#F1F1F1" height="36.2969" rx="2.5" ry="2.5" style="stroke:#181818;stroke-width:0.5;" width="148.3994" x="978.8" y="709.4869"/><text fill="#000000" font-family="sans-serif" font-size="14" lengthAdjust="spacing" textLength="128.3994" x="988.8" y="732.482">Course Repository</text></g><!--entity RatingRepository--><g class="entity" data-entity="RatingRepository" data-source-line="33" data-uid="ent0022" id="entity_RatingRepository"><rect fill="#F1F1F1" height="36.2969" rx="2.5" ry="2.5" style="stroke:#181818;stroke-width:0.5;" width="144.9678" x="632.52" y="709.4869"/><text fill="#000000" font-family="sans-serif" font-size="14" lengthAdjust="spacing" textLength="124.9678" x="642.52" y="732.482">Rating Repository</text></g><!--entity UserRepository--><g class="entity" data-entity="UserRepository" data-source-line="34" data-uid="ent0023" id="entity_UserRepository"><rect fill="#F1F1F1" height="36.2969" rx="2.5" ry="2.5" style="stroke:#181818;stroke-width:0.5;" width="131.4326" x="812.28" y="709.4869"/><text fill="#000000" font-family="sans-serif" font-size="14" lengthAdjust="spacing" textLength="111.4326" x="822.28" y="732.482">User Repository</text></g><!--entity ScraperRepository--><g class="entity" data-entity="ScraperRepository" data-source-line="35" data-uid="ent0024" id="entity_ScraperRepository"><rect fill="#F1F1F1" height="36.2969" rx="2.5" ry="2.5" style="stroke:#181818;stroke-width:0.5;" width="153.6973" x="444.15" y="709.4869"/><text fill="#000000" font-family="sans-serif" font-size="14" lengthAdjust="spacing" textLength="133.6973" x="454.15" y="732.482">Scraper Repository</text></g><!--entity MainDB--><g class="entity" data-entity="MainDB" data-source-line="39" data-uid="ent0026" id="entity_MainDB"><path d="M740.62,839.7769 C740.62,829.7769 790.9965,829.7769 790.9965,829.7769 C790.9965,829.7769 841.3729,829.7769 841.3729,839.7769 L841.3729,865.0738 C841.3729,875.0738 790.9965,875.0738 790.9965,875.0738 C790.9965,875.0738 740.62,875.0738 740.62,865.0738 L740.62,839.7769" fill="#F1F1F1" style="stroke:#181818;stroke-width:0.5;"/><path d="M740.62,839.7769 C740.62,849.7769 790.9965,849.7769 790.9965,849.7769 C790.9965,849.7769 841.3729,849.7769 841.3729,839.7769" fill="none" style="stroke:#181818;stroke-width:0.5;"/><text fill="#000000" font-family="sans-serif" font-size="14" lengthAdjust="spacing" textLength="80.7529" x="750.62" y="866.772">PostgreSQL</text></g><!--entity FileStore--><g class="entity" data-entity="FileStore" data-source-line="40" data-uid="ent0027" id="entity_FileStore"><rect fill="#F1F1F1" height="36.2969" rx="2.5" ry="2.5" style="stroke:#181818;stroke-width:0.5;" width="103.6719" x="602.16" y="834.2769"/><text fill="#000000" font-family="sans-serif" font-size="14" lengthAdjust="spacing" textLength="83.6719" x="612.16" y="857.272">File Storage</text></g><!--entity OIDC--><g class="entity" data-entity="OIDC" data-source-line="44" data-uid="ent0029" id="entity_OIDC"><rect fill="#F1F1F1" height="36.2969" rx="2.5" ry="2.5" style="stroke:#181818;stroke-width:0.5;" width="245.1689" x="23.42" y="589.1869"/><text fill="#000000" font-family="sans-serif" font-size="14" lengthAdjust="spacing" textLength="225.1689" x="33.42" y="612.182">Microsoft OIDC Identity Provider</text></g><!--entity UkmaPortal--><g class="entity" data-entity="UkmaPortal" data-source-line="45" data-uid="ent0030" id="entity_UkmaPortal"><rect fill="#F1F1F1" height="36.2969" rx="2.5" ry="2.5" style="stroke:#181818;stroke-width:0.5;" width="269.4639" x="303.27" y="589.1869"/><text fill="#000000" font-family="sans-serif" font-size="14" lengthAdjust="spacing" textLength="249.4639" x="313.27" y="612.182">my.ukma.edu.ua (University Portal)</text></g><!--link RatingSvc to CourseSvc--><g class="link" data-entity-1="RatingSvc" data-entity-2="CourseSvc" data-source-line="22" data-uid="lnk13" id="link_RatingSvc_CourseSvc"><path d="M950.65,491.6069 C957.34,516.9069 968.0968,557.5461 974.7968,582.8961" fill="none" id="RatingSvc-to-CourseSvc" style="stroke:#181818;stroke-width:1;"/><polygon fill="#181818" points="976.33,588.6969,977.8975,578.9736,975.0524,583.8629,970.1631,581.0178,976.33,588.6969" style="stroke:#181818;stroke-width:1;"/></g><!--link RatingSvc to UserSvc--><g class="link" data-entity-1="RatingSvc" data-entity-2="UserSvc" data-source-line="23" data-uid="lnk14" id="link_RatingSvc_UserSvc"><path d="M930.46,491.6069 C908.09,516.9069 870.984,558.8516 848.574,584.2016" fill="none" id="RatingSvc-to-UserSvc" style="stroke:#181818;stroke-width:1;"/><polygon fill="#181818" points="844.6,588.6969,853.5578,584.6032,847.9116,584.9508,847.5641,579.3046,844.6,588.6969" style="stroke:#181818;stroke-width:1;"/></g><!--link RecoSvc to RatingSvc--><g class="link" data-entity-1="RecoSvc" data-entity-2="RatingSvc" data-source-line="24" data-uid="lnk15" id="link_RecoSvc_RatingSvc"><path d="M876.2,392.1369 C891.57,409.7369 911.2735,432.2775 926.7035,449.9475" fill="none" id="RecoSvc-to-RatingSvc" style="stroke:#181818;stroke-width:1;"/><polygon fill="#181818" points="930.65,454.4669,927.7432,445.0567,927.3613,450.7007,921.7173,450.3187,930.65,454.4669" style="stroke:#181818;stroke-width:1;"/></g><!--link RecoSvc to CourseSvc--><g class="link" data-entity-1="RecoSvc" data-entity-2="CourseSvc" data-source-line="25" data-uid="lnk16" id="link_RecoSvc_CourseSvc"><path d="M935.73,392.2669 C968.78,404.1369 1004.5,423.5669 1024,454.8869 C1051.01,498.2769 1019.0938,554.1948 998.0538,583.8248" fill="none" id="RecoSvc-to-CourseSvc" style="stroke:#181818;stroke-width:1;"/><polygon fill="#181818" points="994.58,588.7169,1003.0521,583.6946,997.4749,584.6401,996.5294,579.0629,994.58,588.7169" style="stroke:#181818;stroke-width:1;"/></g><!--link RecoSvc to UserSvc--><g class="link" data-entity-1="RecoSvc" data-entity-2="UserSvc" data-source-line="26" data-uid="lnk17" id="link_RecoSvc_UserSvc"><path d="M858.59,392.1469 C852.66,435.0669 838.2113,539.6534 832.2513,582.7834" fill="none" id="RecoSvc-to-UserSvc" style="stroke:#181818;stroke-width:1;"/><polygon fill="#181818" points="831.43,588.7269,836.6243,580.3591,832.1144,583.7739,828.6996,579.264,831.43,588.7269" style="stroke:#181818;stroke-width:1;"/></g><!--link ScraperSvc to CourseSvc--><g class="link" data-entity-1="ScraperSvc" data-entity-2="CourseSvc" data-source-line="27" data-uid="lnk18" id="link_ScraperSvc_CourseSvc"><path d="M791.09,491.5469 C822.42,504.9469 865.41,524.7269 901,546.1869 C922.13,558.9269 939.7704,572.2569 955.4504,584.9769" fill="none" id="ScraperSvc-to-CourseSvc" style="stroke:#181818;stroke-width:1;"/><polygon fill="#181818" points="960.11,588.7569,955.6406,579.9805,956.227,585.6069,950.6006,586.1933,960.11,588.7569" style="stroke:#181818;stroke-width:1;"/></g><!--link ScraperSvc to UserSvc--><g class="link" data-entity-1="ScraperSvc" data-entity-2="UserSvc" data-source-line="28" data-uid="lnk19" id="link_ScraperSvc_UserSvc"><path d="M758.76,491.6069 C774.25,516.9069 799.5471,558.2297 815.0671,583.5797" fill="none" id="ScraperSvc-to-UserSvc" style="stroke:#181818;stroke-width:1;"/><polygon fill="#181818" points="818.2,588.6969,816.9121,578.9326,815.5893,584.4326,810.0893,583.1097,818.2,588.6969" style="stroke:#181818;stroke-width:1;"/></g><!--link CourseSvc to CourseRepository--><g class="link" data-entity-1="CourseSvc" data-entity-2="CourseRepository" data-source-line="48" data-uid="lnk31" id="link_CourseSvc_CourseRepository"><path d="M991.62,625.7869 C1005.24,648.1569 1025.5811,681.5812 1039.2111,703.9812" fill="none" id="CourseSvc-to-CourseRepository" style="stroke:#181818;stroke-width:1;"/><polygon fill="#181818" points="1042.33,709.1069,1041.0688,699.3391,1039.7309,704.8355,1034.2346,703.4976,1042.33,709.1069" style="stroke:#181818;stroke-width:1;"/></g><!--link RatingSvc to RatingRepository--><g class="link" data-entity-1="RatingSvc" data-entity-2="RatingRepository" data-source-line="49" data-uid="lnk32" id="link_RatingSvc_RatingRepository"><path d="M884.8,482.8569 C843.3,491.9369 790.16,510.1169 757,546.1869 C713.87,593.1069 706.4897,667.6002 705.3097,703.0302" fill="none" id="RatingSvc-to-RatingRepository" style="stroke:#181818;stroke-width:1;"/><polygon fill="#181818" points="705.11,709.0269,709.4074,700.165,705.2764,704.0296,701.4118,699.8987,705.11,709.0269" style="stroke:#181818;stroke-width:1;"/></g><!--link UserSvc to UserRepository--><g class="link" data-entity-1="UserSvc" data-entity-2="UserRepository" data-source-line="50" data-uid="lnk33" id="link_UserSvc_UserRepository"><path d="M836.23,625.7869 C845.49,648.1569 859.1636,681.1637 868.4436,703.5637" fill="none" id="UserSvc-to-UserRepository" style="stroke:#181818;stroke-width:1;"/><polygon fill="#181818" points="870.74,709.1069,870.9908,699.2612,868.8263,704.4876,863.5999,702.3231,870.74,709.1069" style="stroke:#181818;stroke-width:1;"/></g><!--link ScraperSvc to ScraperRepository--><g class="link" data-entity-1="ScraperSvc" data-entity-2="ScraperRepository" data-source-line="51" data-uid="lnk34" id="link_ScraperSvc_ScraperRepository"><path d="M727.39,491.5469 C717.58,500.1669 705.87,510.8969 696,521.1869 C644.6,574.7669 637.33,593.1169 589,649.4869 C571.22,670.2169 554.3924,689.248 540.5224,704.808" fill="none" id="ScraperSvc-to-ScraperRepository" style="stroke:#181818;stroke-width:1;"/><polygon fill="#181818" points="536.53,709.2869,545.5046,705.2302,539.857,705.5545,539.5327,699.9069,536.53,709.2869" style="stroke:#181818;stroke-width:1;"/></g><!--link WebApp to REST--><g class="link" data-entity-1="WebApp" data-entity-2="REST" data-source-line="53" data-uid="lnk35" id="link_WebApp_REST"><path d="M540,115.8569 C540,144.2269 540,193.2869 540,213.7169" fill="none" id="WebApp-to-REST" style="stroke:#181818;stroke-width:1;"/><polygon fill="#181818" points="540,219.7169,544,210.7169,540,214.7169,536,210.7169,540,219.7169" style="stroke:#181818;stroke-width:1;"/></g><!--link REST to Auth--><g class="link" data-entity-1="REST" data-entity-2="Auth" data-source-line="54" data-uid="lnk36" id="link_REST_Auth"><path d="M539.09,237.2869 C536.45,259.4769 529.4979,317.9988 525.7779,349.3088" fill="none" id="REST-to-Auth" style="stroke:#181818;stroke-width:1;stroke-dasharray:7,7;"/><polygon fill="#181818" points="525.07,355.2669,530.1039,346.8017,525.6599,350.3018,522.1598,345.8578,525.07,355.2669" style="stroke:#181818;stroke-width:1;"/><text fill="#000000" font-family="sans-serif" font-size="13" lengthAdjust="spacing" textLength="147.4434" x="534" y="300.6638">session cookie + CSRF</text></g><!--link REST to CourseSvc--><g class="link" data-entity-1="REST" data-entity-2="CourseSvc" data-source-line="55" data-uid="lnk37" id="link_REST_CourseSvc"><path d="M548.71,229.3369 C611.96,227.7269 999.76,221.6369 1055,312.5969 C1096.21,380.4569 1090.57,418.3369 1059,491.1869 C1042.68,528.8469 1017.4422,562.6254 999.7722,584.1954" fill="none" id="REST-to-CourseSvc" style="stroke:#181818;stroke-width:1;"/><polygon fill="#181818" points="995.97,588.8369,1004.7677,584.4095,999.1385,584.969,998.5791,579.3399,995.97,588.8369" style="stroke:#181818;stroke-width:1;"/></g><!--link REST to RatingSvc--><g class="link" data-entity-1="REST" data-entity-2="RatingSvc" data-source-line="56" data-uid="lnk38" id="link_REST_RatingSvc"><path d="M548.94,229.8069 C606.19,231.4069 920.61,243.3069 978,312.5969 C1012.4,354.1269 980.8237,417.3387 960.9537,449.3587" fill="none" id="REST-to-RatingSvc" style="stroke:#181818;stroke-width:1;"/><polygon fill="#181818" points="957.79,454.4569,965.9343,448.9187,960.4264,450.2084,959.1367,444.7005,957.79,454.4569" style="stroke:#181818;stroke-width:1;"/></g><!--link REST to UserSvc--><g class="link" data-entity-1="REST" data-entity-2="UserSvc" data-source-line="57" data-uid="lnk39" id="link_REST_UserSvc"><path d="M548.84,229.4169 C609.71,228.4669 965.83,226.5869 1011,312.5969 C1048,383.0569 1067.29,424.4069 1024,491.1869 C991.43,541.4369 951.79,514.4669 901,546.1869 C881.24,558.5269 865.4953,571.7734 851.5553,584.6634" fill="none" id="REST-to-UserSvc" style="stroke:#181818;stroke-width:1;"/><polygon fill="#181818" points="847.15,588.7369,856.4736,585.5635,850.8211,585.3423,851.0423,579.6898,847.15,588.7369" style="stroke:#181818;stroke-width:1;"/></g><!--link REST to RecoSvc--><g class="link" data-entity-1="REST" data-entity-2="RecoSvc" data-source-line="58" data-uid="lnk40" id="link_REST_RecoSvc"><path d="M548.91,232.7069 C572.32,240.9669 637.38,264.3769 690,287.5969 C738.85,309.1469 788.5768,334.4795 822.6968,352.3795" fill="none" id="REST-to-RecoSvc" style="stroke:#181818;stroke-width:1;"/><polygon fill="#181818" points="828.01,355.1669,821.8984,347.4436,823.5823,352.844,818.1819,354.5279,828.01,355.1669" style="stroke:#181818;stroke-width:1;"/></g><!--link Auth to OIDC--><g class="link" data-entity-1="Auth" data-entity-2="OIDC" data-source-line="59" data-uid="lnk41" id="link_Auth_OIDC"><path d="M494.35,392.3369 C424.25,435.4069 249.7724,542.5862 179.7124,585.6262" fill="none" id="Auth-to-OIDC" style="stroke:#181818;stroke-width:1;"/><polygon fill="#181818" points="174.6,588.7669,184.3623,587.4641,178.8603,586.1496,180.1747,580.6476,174.6,588.7669" style="stroke:#181818;stroke-width:1;"/></g><!--link CourseRepository to MainDB--><g class="link" data-entity-1="CourseRepository" data-entity-2="MainDB" data-source-line="61" data-uid="lnk42" id="link_CourseRepository_MainDB"><path d="M1015.46,746.2269 C968.77,768.1069 894.4529,802.9405 843.6529,826.7505" fill="none" id="CourseRepository-to-MainDB" style="stroke:#181818;stroke-width:1;"/><polygon fill="#181818" points="838.22,829.2969,848.0669,829.0992,842.7474,827.1749,844.6717,821.8554,838.22,829.2969" style="stroke:#181818;stroke-width:1;"/></g><!--link RatingRepository to MainDB--><g class="link" data-entity-1="RatingRepository" data-entity-2="MainDB" data-source-line="62" data-uid="lnk43" id="link_RatingRepository_MainDB"><path d="M717.32,746.2269 C732.65,768.1069 755.3888,800.5718 772.0588,824.3818" fill="none" id="RatingRepository-to-MainDB" style="stroke:#181818;stroke-width:1;"/><polygon fill="#181818" points="775.5,829.2969,773.6149,819.6301,772.6323,825.201,767.0615,824.2184,775.5,829.2969" style="stroke:#181818;stroke-width:1;"/></g><!--link UserRepository to MainDB--><g class="link" data-entity-1="UserRepository" data-entity-2="MainDB" data-source-line="63" data-uid="lnk44" id="link_UserRepository_MainDB"><path d="M865.54,746.2269 C850.03,768.1069 827.0187,800.5912 810.1487,824.4012" fill="none" id="UserRepository-to-MainDB" style="stroke:#181818;stroke-width:1;"/><polygon fill="#181818" points="806.68,829.2969,815.1469,824.2658,809.5706,825.2171,808.6193,819.6408,806.68,829.2969" style="stroke:#181818;stroke-width:1;"/></g><!--link ScraperRepository to FileStore--><g class="link" data-entity-1="ScraperRepository" data-entity-2="FileStore" data-source-line="64" data-uid="lnk45" id="link_ScraperRepository_FileStore"><path d="M540.06,746.2269 C565.34,769.5669 605.3015,806.4668 630.5715,829.7968" fill="none" id="ScraperRepository-to-FileStore" style="stroke:#181818;stroke-width:1;"/><polygon fill="#181818" points="634.98,833.8669,631.0806,824.8228,631.3063,830.4752,625.6539,830.7008,634.98,833.8669" style="stroke:#181818;stroke-width:1;"/></g><!--link ScraperSvc to UkmaPortal--><g class="link" data-entity-1="ScraperSvc" data-entity-2="UkmaPortal" data-source-line="66" data-uid="lnk46" id="link_ScraperSvc_UkmaPortal"><path d="M682.63,473.4269 C594.5,474.1469 444.62,481.4069 410,521.1869 C393.25,540.4369 405.8905,565.1367 419.7005,583.8767" fill="none" id="ScraperSvc-to-UkmaPortal" style="stroke:#181818;stroke-width:1;"/><polygon fill="#181818" points="423.26,588.7069,421.1409,579.0887,420.2938,584.6818,414.7007,583.8346,423.26,588.7069" style="stroke:#181818;stroke-width:1;"/><text fill="#000000" font-family="sans-serif" font-size="13" lengthAdjust="spacing" textLength="213.6431" x="411" y="534.2538">scrape course &amp; enrollment data</text></g><!--SRC=[RLHDRnen4BtlhnZbK15Le5QzzH1f4qWR5HJA5lLGvU1u9yHYiLUsTrjKzRzt_C6k3U60ODxpytoyiHMsGTWmYx3zjYfX2b_5xdMwn1uRA3L_5HQvxJJ2fFyu-t1T56OlPCiqEm1NXrP9bBQoHnBHH6Hors12QHdVinq6Gi8e8W1NQus699WLIiAI7L5VmTy2uDTFV8PxhQH5MSEaMfVNJy0CKBXis-9V8h6ewJiU9SPY_cNX9GITrI-C4sMpg7v0kNw0oMEBqlteFrrxjaFSTMLdNoaFmKCcAr7N3Vvc6lsj3itklEsCa6WCBDLEyEJsssL8_qvrsY1Kg7l1IMJu42TWLSyTaNelvEvjOi0YSMjGlq7pH8UTz93cSg2cXKB60qwFi4Yhk6RjMu94YvXZ4dL80gRJcopt71bpYDUGc8kdHUH8ffKXezQOoyMHC-Xq9XtJd5a69UT-KecvudGss2eZhDB7ftGoOpWPq0Ktn7Ekdr7E7EQJCq_zpyXZxnFoHJr98JHazioCsoDbx4vZzNtfRRXYGivltKNtWbQl8YKIy5vs0VSVyoNwGyiYMGFLqLWycDYebU1Q6VLYuV5XVWSFjTiHUuIrLhseKNj51pdouJZhzWSsmxgRTGmcMobwrCRpbRQi2Iky9Kxuxp8O9fgP8gb_T5dgfuGG1-zxVJ920YSsyV1bXulmg0Hrznxuvs8sk_5x3v_1a7_SCd6bzWBXFTnLc_l0oaqvX4RJ3w6JFqTEt4P_YGluFXRd3OXLnOcULv-ZUUb3Ho9wKNb0HqCKvoirJCermMFK0xywxm2bLar3ButrDlmF]--></g><script xmlns=""/></svg>
