<svg xmlns="http://www.w3.org/2000/svg" xmlns:xlink="http://www.w3.org/1999/xlink" contentStyleType="text/css" data-diagram-type="SEQUENCE" height="1168px" preserveAspectRatio="none" style="width:1230px;height:1168px;background:#FFFFFF;" version="1.1" viewBox="0 0 1230 1168" width="1230px" zoomAndPan="magnify"><title>[US-009] Submit Course Rating &amp; Review</title><defs/><g><text fill="#000000" font-family="sans-serif" font-size="14" font-weight="bold" lengthAdjust="spacing" textLength="324.9395" x="453.9226" y="27.9951">[US-009] Submit Course Rating &amp; Review</text><rect fill="none" height="789.3906" style="stroke:#000000;stroke-width:1.5;" width="1213.7847" x="10" y="281.2578"/><g><title>Student</title><rect fill="#000000" fill-opacity="0.00000" height="969.0547" width="8" x="46.5557" y="118.5938"/><line style="stroke:#181818;stroke-width:0.5;stroke-dasharray:5,5;" x1="50" x2="50" y1="118.5938" y2="1087.6484"/></g><g><title>WebApp .React SPA.</title><rect fill="#000000" fill-opacity="0.00000" height="969.0547" width="8" x="297.0527" y="118.5938"/><line style="stroke:#181818;stroke-width:0.5;stroke-dasharray:5,5;" x1="300.2876" x2="300.2876" y1="118.5938" y2="1087.6484"/></g><g><title>REST Fa.ade</title><rect fill="#000000" fill-opacity="0.00000" height="969.0547" width="8" x="504.481" y="118.5938"/><line style="stroke:#181818;stroke-width:0.5;stroke-dasharray:5,5;" x1="508.0459" x2="508.0459" y1="118.5938" y2="1087.6484"/></g><g><title>Auth Middleware</title><rect fill="#000000" fill-opacity="0.00000" height="969.0547" width="8" x="644.7065" y="118.5938"/><line style="stroke:#181818;stroke-width:0.5;stroke-dasharray:5,5;" x1="647.7534" x2="647.7534" y1="118.5938" y2="1087.6484"/></g><g><title>User Service</title><rect fill="#000000" fill-opacity="0.00000" height="969.0547" width="8" x="807.2759" y="118.5938"/><line style="stroke:#181818;stroke-width:0.5;stroke-dasharray:5,5;" x1="811.2251" x2="811.2251" y1="118.5938" y2="1087.6484"/></g><g><title>Rating Service</title><rect fill="#000000" fill-opacity="0.00000" height="969.0547" width="8" x="926.145" y="118.5938"/><line style="stroke:#181818;stroke-width:0.5;stroke-dasharray:5,5;" x1="929.3267" x2="929.3267" y1="118.5938" y2="1087.6484"/></g><g><title>Course Service</title><rect fill="#000000" fill-opacity="0.00000" height="969.0547" width="8" x="1053.4976" y="118.5938"/><line style="stroke:#181818;stroke-width:0.5;stroke-dasharray:5,5;" x1="1056.9634" x2="1056.9634" y1="118.5938" y2="1087.6484"/></g><g><title>PostgreSQL</title><rect fill="#000000" fill-opacity="0.00000" height="969.0547" width="8" x="1166.4082" y="118.5938"/><line style="stroke:#181818;stroke-width:0.5;stroke-dasharray:5,5;" x1="1170.0317" x2="1170.0317" y1="118.5938" y2="1087.6484"/></g><g class="participant participant-head" data-participant="Student"><text fill="#000000" font-family="sans-serif" font-size="14" lengthAdjust="spacing" textLength="55.1113" x="20" y="115.292">Student</text><ellipse cx="50.5557" cy="50.7969" fill="#E2E2F0" rx="8" ry="8" style="stroke:#181818;stroke-width:0.5;"/><path d="M50.5557,58.7969 L50.5557,85.7969 M37.5557,66.7969 L63.5557,66.7969 M50.5557,85.7969 L37.5557,100.7969 M50.5557,85.7969 L63.5557,100.7969" fill="none" style="stroke:#181818;stroke-width:0.5;"/></g><g class="participant participant-tail" data-participant="Student"><text fill="#000000" font-family="sans-serif" font-size="14" lengthAdjust="spacing" textLength="55.1113" x="20" y="1099.6436">Student</text><ellipse cx="50.5557" cy="1111.4453" fill="#E2E2F0" rx="8" ry="8" style="stroke:#181818;stroke-width:0.5;"/><path d="M50.5557,1119.4453 L50.5557,1146.4453 M37.5557,1127.4453 L63.5557,1127.4453 M50.5557,1146.4453 L37.5557,1161.4453 M50.5557,1146.4453 L63.5557,1161.4453" fill="none" style="stroke:#181818;stroke-width:0.5;"/></g><g class="participant participant-head" data-participant="WebApp"><rect fill="#E2E2F0" height="30.2969" rx="2.5" ry="2.5" style="stroke:#181818;stroke-width:0.5;" width="159.5303" x="221.2876" y="87.2969"/><text fill="#000000" font-family="sans-serif" font-size="14" lengthAdjust="spacing" textLength="145.5303" x="228.2876" y="107.292">WebApp (React SPA)</text></g><g class="participant participant-tail" data-participant="WebApp"><rect fill="#E2E2F0" height="30.2969" rx="2.5" ry="2.5" style="stroke:#181818;stroke-width:0.5;" width="159.5303" x="221.2876" y="1086.6484"/><text fill="#000000" font-family="sans-serif" font-size="14" lengthAdjust="spacing" textLength="145.5303" x="228.2876" y="1106.6436">WebApp (React SPA)</text></g><g class="participant participant-head" data-participant="RestFacade"><rect fill="#E2E2F0" height="30.2969" rx="2.5" ry="2.5" style="stroke:#181818;stroke-width:0.5;" width="104.8701" x="456.0459" y="87.2969"/><text fill="#000000" font-family="sans-serif" font-size="14" lengthAdjust="spacing" textLength="90.8701" x="463.0459" y="107.292">REST Fa&#231;ade</text></g><g class="participant participant-tail" data-participant="RestFacade"><rect fill="#E2E2F0" height="30.2969" rx="2.5" ry="2.5" style="stroke:#181818;stroke-width:0.5;" width="104.8701" x="456.0459" y="1086.6484"/><text fill="#000000" font-family="sans-serif" font-size="14" lengthAdjust="spacing" textLength="90.8701" x="463.0459" y="1106.6436">REST Fa&#231;ade</text></g><g class="participant participant-head" data-participant="Auth"><rect fill="#E2E2F0" height="30.2969" rx="2.5" ry="2.5" style="stroke:#181818;stroke-width:0.5;" width="131.9063" x="582.7534" y="87.2969"/><text fill="#000000" font-family="sans-serif" font-size="14" lengthAdjust="spacing" textLength="117.9063" x="589.7534" y="107.292">Auth Middleware</text></g><g class="participant participant-tail" data-participant="Auth"><rect fill="#E2E2F0" height="30.2969" rx="2.5" ry="2.5" style="stroke:#181818;stroke-width:0.5;" width="131.9063" x="582.7534" y="1086.6484"/><text fill="#000000" font-family="sans-serif" font-size="14" lengthAdjust="spacing" textLength="117.9063" x="589.7534" y="1106.6436">Auth Middleware</text></g><g class="participant participant-head" data-participant="UserService"><rect fill="#E2E2F0" height="30.2969" rx="2.5" ry="2.5" style="stroke:#181818;stroke-width:0.5;" width="102.1016" x="760.2251" y="87.2969"/><text fill="#000000" font-family="sans-serif" font-size="14" lengthAdjust="spacing" textLength="88.1016" x="767.2251" y="107.292">User Service</text></g><g class="participant participant-tail" data-participant="UserService"><rect fill="#E2E2F0" height="30.2969" rx="2.5" ry="2.5" style="stroke:#181818;stroke-width:0.5;" width="102.1016" x="760.2251" y="1086.6484"/><text fill="#000000" font-family="sans-serif" font-size="14" lengthAdjust="spacing" textLength="88.1016" x="767.2251" y="1106.6436">User Service</text></g><g class="participant participant-head" data-participant="RatingService"><rect fill="#E2E2F0" height="30.2969" rx="2.5" ry="2.5" style="stroke:#181818;stroke-width:0.5;" width="115.6367" x="872.3267" y="87.2969"/><text fill="#000000" font-family="sans-serif" font-size="14" lengthAdjust="spacing" textLength="101.6367" x="879.3267" y="107.292">Rating Service</text></g><g class="participant participant-tail" data-participant="RatingService"><rect fill="#E2E2F0" height="30.2969" rx="2.5" ry="2.5" style="stroke:#181818;stroke-width:0.5;" width="115.6367" x="872.3267" y="1086.6484"/><text fill="#000000" font-family="sans-serif" font-size="14" lengthAdjust="spacing" textLength="101.6367" x="879.3267" y="1106.6436">Rating Service</text></g><g class="participant participant-head" data-participant="CourseService"><rect fill="#E2E2F0" height="30.2969" rx="2.5" ry="2.5" style="stroke:#181818;stroke-width:0.5;" width="119.0684" x="997.9634" y="87.2969"/><text fill="#000000" font-family="sans-serif" font-size="14" lengthAdjust="spacing" textLength="105.0684" x="1004.9634" y="107.292">Course Service</text></g><g class="participant participant-tail" data-participant="CourseService"><rect fill="#E2E2F0" height="30.2969" rx="2.5" ry="2.5" style="stroke:#181818;stroke-width:0.5;" width="119.0684" x="997.9634" y="1086.6484"/><text fill="#000000" font-family="sans-serif" font-size="14" lengthAdjust="spacing" textLength="105.0684" x="1004.9634" y="1106.6436">Course Service</text></g><g class="participant participant-head" data-participant="DB"><text fill="#000000" font-family="sans-serif" font-size="14" lengthAdjust="spacing" textLength="80.7529" x="1127.0317" y="115.292">PostgreSQL</text><path d="M1152.4082,66.2969 C1152.4082,56.2969 1170.4082,56.2969 1170.4082,56.2969 C1170.4082,56.2969 1188.4082,56.2969 1188.4082,66.2969 L1188.4082,92.2969 C1188.4082,102.2969 1170.4082,102.2969 1170.4082,102.2969 C1170.4082,102.2969 1152.4082,102.2969 1152.4082,92.2969 L1152.4082,66.2969" fill="#E2E2F0" style="stroke:#181818;stroke-width:0.5;"/><path d="M1152.4082,66.2969 C1152.4082,76.2969 1170.4082,76.2969 1170.4082,76.2969 C1170.4082,76.2969 1188.4082,76.2969 1188.4082,66.2969" fill="none" style="stroke:#181818;stroke-width:0.5;"/></g><g class="participant participant-tail" data-participant="DB"><text fill="#000000" font-family="sans-serif" font-size="14" lengthAdjust="spacing" textLength="80.7529" x="1127.0317" y="1099.6436">PostgreSQL</text><path d="M1152.4082,1112.9453 C1152.4082,1102.9453 1170.4082,1102.9453 1170.4082,1102.9453 C1170.4082,1102.9453 1188.4082,1102.9453 1188.4082,1112.9453 L1188.4082,1138.9453 C1188.4082,1148.9453 1170.4082,1148.9453 1170.4082,1148.9453 C1170.4082,1148.9453 1152.4082,1148.9453 1152.4082,1138.9453 L1152.4082,1112.9453" fill="#E2E2F0" style="stroke:#181818;stroke-width:0.5;"/><path d="M1152.4082,1112.9453 C1152.4082,1122.9453 1170.4082,1122.9453 1170.4082,1122.9453 C1170.4082,1122.9453 1188.4082,1122.9453 1188.4082,1112.9453" fill="none" style="stroke:#181818;stroke-width:0.5;"/></g><g class="message" data-participant-1="Student" data-participant-2="WebApp"><polygon fill="#181818" points="289.0527,145.7266,299.0527,149.7266,289.0527,153.7266,293.0527,149.7266" style="stroke:#181818;stroke-width:1;"/><line style="stroke:#181818;stroke-width:1;" x1="50.5557" x2="295.0527" y1="149.7266" y2="149.7266"/><text fill="#000000" font-family="sans-serif" font-size="13" lengthAdjust="spacing" textLength="143.0254" x="57.5557" y="144.6606">Open Grading Section</text></g><g class="message" data-participant-1="WebApp" data-participant-2="RestFacade"><polygon fill="#181818" points="496.481,174.8594,506.481,178.8594,496.481,182.8594,500.481,178.8594" style="stroke:#181818;stroke-width:1;"/><line style="stroke:#181818;stroke-width:1;" x1="301.0527" x2="502.481" y1="178.8594" y2="178.8594"/><text fill="#000000" font-family="sans-serif" font-size="13" lengthAdjust="spacing" textLength="88.1372" x="308.0527" y="173.7935">GET /user/me</text></g><g class="message" data-participant-1="RestFacade" data-participant-2="UserService"><polygon fill="#181818" points="799.2759,203.9922,809.2759,207.9922,799.2759,211.9922,803.2759,207.9922" style="stroke:#181818;stroke-width:1;"/><line style="stroke:#181818;stroke-width:1;" x1="508.481" x2="805.2759" y1="207.9922" y2="207.9922"/><text fill="#000000" font-family="sans-serif" font-size="13" lengthAdjust="spacing" textLength="101.1372" x="515.481" y="202.9263">Get user profile</text></g><g class="message" data-participant-1="UserService" data-participant-2="Auth"><polygon fill="#181818" points="659.7065,233.125,649.7065,237.125,659.7065,241.125,655.7065,237.125" style="stroke:#181818;stroke-width:1;"/><line style="stroke:#181818;stroke-width:1;" x1="653.7065" x2="810.2759" y1="237.125" y2="237.125"/><text fill="#000000" font-family="sans-serif" font-size="13" lengthAdjust="spacing" textLength="138.5693" x="665.7065" y="232.0591">Check session cookie</text></g><g class="message" data-participant-1="Auth" data-participant-2="DB"><polygon fill="#181818" points="1158.4082,262.2578,1168.4082,266.2578,1158.4082,270.2578,1162.4082,266.2578" style="stroke:#181818;stroke-width:1;"/><line style="stroke:#181818;stroke-width:1;" x1="648.7065" x2="1164.4082" y1="266.2578" y2="266.2578"/><text fill="#000000" font-family="sans-serif" font-size="13" lengthAdjust="spacing" textLength="105.6504" x="655.7065" y="261.1919">Validate session</text></g><path d="M10,281.2578 L74.4429,281.2578 L74.4429,288.3906 L64.4429,298.3906 L10,298.3906 L10,281.2578" fill="#EEEEEE" style="stroke:#000000;stroke-width:1.5;"/><rect fill="none" height="789.3906" style="stroke:#000000;stroke-width:1.5;" width="1213.7847" x="10" y="281.2578"/><text fill="#000000" font-family="sans-serif" font-size="13" font-weight="bold" lengthAdjust="spacing" textLength="19.4429" x="25" y="294.3247">alt</text><text fill="#000000" font-family="sans-serif" font-size="11" font-weight="bold" lengthAdjust="spacing" textLength="91.5288" x="89.4429" y="293.4683">[Session valid]</text><g class="message" data-participant-1="DB" data-participant-2="Auth"><polygon fill="#181818" points="659.7065,315.5234,649.7065,319.5234,659.7065,323.5234,655.7065,319.5234" style="stroke:#181818;stroke-width:1;"/><line style="stroke:#181818;stroke-width:1;stroke-dasharray:2,2;" x1="653.7065" x2="1169.4082" y1="319.5234" y2="319.5234"/><text fill="#000000" font-family="sans-serif" font-size="13" lengthAdjust="spacing" textLength="18.7573" x="665.7065" y="314.4575">OK</text></g><g class="message" data-participant-1="Auth" data-participant-2="UserService"><polygon fill="#181818" points="799.2759,344.6563,809.2759,348.6563,799.2759,352.6563,803.2759,348.6563" style="stroke:#181818;stroke-width:1;"/><line style="stroke:#181818;stroke-width:1;stroke-dasharray:2,2;" x1="648.7065" x2="805.2759" y1="348.6563" y2="348.6563"/><text fill="#000000" font-family="sans-serif" font-size="13" lengthAdjust="spacing" textLength="58.1445" x="655.7065" y="343.5903">User info</text></g><g class="message" data-participant-1="UserService" data-participant-2="RestFacade"><polygon fill="#181818" points="519.481,373.7891,509.481,377.7891,519.481,381.7891,515.481,377.7891" style="stroke:#181818;stroke-width:1;"/><line style="stroke:#181818;stroke-width:1;stroke-dasharray:2,2;" x1="513.481" x2="810.2759" y1="377.7891" y2="377.7891"/><text fill="#000000" font-family="sans-serif" font-size="13" lengthAdjust="spacing" textLength="183.4282" x="525.481" y="372.7231">Profile + completed courses</text></g><g class="message" data-participant-1="RestFacade" data-participant-2="WebApp"><polygon fill="#181818" points="312.0527,402.9219,302.0527,406.9219,312.0527,410.9219,308.0527,406.9219" style="stroke:#181818;stroke-width:1;"/><line style="stroke:#181818;stroke-width:1;stroke-dasharray:2,2;" x1="306.0527" x2="507.481" y1="406.9219" y2="406.9219"/><text fill="#000000" font-family="sans-serif" font-size="13" lengthAdjust="spacing" textLength="183.4282" x="318.0527" y="401.856">Profile + completed courses</text></g><g class="message" data-participant-1="WebApp" data-participant-2="Student"><polygon fill="#181818" points="61.5557,432.0547,51.5557,436.0547,61.5557,440.0547,57.5557,436.0547" style="stroke:#181818;stroke-width:1;"/><line style="stroke:#181818;stroke-width:1;stroke-dasharray:2,2;" x1="55.5557" x2="300.0527" y1="436.0547" y2="436.0547"/><text fill="#000000" font-family="sans-serif" font-size="13" lengthAdjust="spacing" textLength="112.3535" x="67.5557" y="430.9888">Show grading list</text></g><g class="message" data-participant-1="Student" data-participant-2="WebApp"><polygon fill="#181818" points="289.0527,461.1875,299.0527,465.1875,289.0527,469.1875,293.0527,465.1875" style="stroke:#181818;stroke-width:1;"/><line style="stroke:#181818;stroke-width:1;" x1="50.5557" x2="295.0527" y1="465.1875" y2="465.1875"/><text fill="#000000" font-family="sans-serif" font-size="13" lengthAdjust="spacing" textLength="226.4971" x="57.5557" y="460.1216">Submit rating + optional comment</text></g><g class="message" data-participant-1="WebApp" data-participant-2="RestFacade"><polygon fill="#181818" points="496.481,490.3203,506.481,494.3203,496.481,498.3203,500.481,494.3203" style="stroke:#181818;stroke-width:1;"/><line style="stroke:#181818;stroke-width:1;" x1="301.0527" x2="502.481" y1="494.3203" y2="494.3203"/><text fill="#000000" font-family="sans-serif" font-size="13" lengthAdjust="spacing" textLength="88.061" x="308.0527" y="489.2544">POST /ratings</text></g><g class="message" data-participant-1="RestFacade" data-participant-2="Auth"><polygon fill="#181818" points="636.7065,519.4531,646.7065,523.4531,636.7065,527.4531,640.7065,523.4531" style="stroke:#181818;stroke-width:1;"/><line style="stroke:#181818;stroke-width:1;" x1="508.481" x2="642.7065" y1="523.4531" y2="523.4531"/><text fill="#000000" font-family="sans-serif" font-size="13" lengthAdjust="spacing" textLength="105.6504" x="515.481" y="518.3872">Validate session</text></g><g class="message" data-participant-1="Auth" data-participant-2="DB"><polygon fill="#181818" points="1158.4082,548.5859,1168.4082,552.5859,1158.4082,556.5859,1162.4082,552.5859" style="stroke:#181818;stroke-width:1;"/><line style="stroke:#181818;stroke-width:1;" x1="648.7065" x2="1164.4082" y1="552.5859" y2="552.5859"/><text fill="#000000" font-family="sans-serif" font-size="13" lengthAdjust="spacing" textLength="105.6504" x="655.7065" y="547.52">Validate session</text></g><g class="message" data-participant-1="DB" data-participant-2="Auth"><polygon fill="#181818" points="659.7065,577.7188,649.7065,581.7188,659.7065,585.7188,655.7065,581.7188" style="stroke:#181818;stroke-width:1;"/><line style="stroke:#181818;stroke-width:1;stroke-dasharray:2,2;" x1="653.7065" x2="1169.4082" y1="581.7188" y2="581.7188"/><text fill="#000000" font-family="sans-serif" font-size="13" lengthAdjust="spacing" textLength="18.7573" x="665.7065" y="576.6528">OK</text></g><g class="message" data-participant-1="Auth" data-participant-2="RestFacade"><polygon fill="#181818" points="519.481,606.8516,509.481,610.8516,519.481,614.8516,515.481,610.8516" style="stroke:#181818;stroke-width:1;"/><line style="stroke:#181818;stroke-width:1;stroke-dasharray:2,2;" x1="513.481" x2="647.7065" y1="610.8516" y2="610.8516"/><text fill="#000000" font-family="sans-serif" font-size="13" lengthAdjust="spacing" textLength="45.627" x="525.481" y="605.7856">User id</text></g><g class="message" data-participant-1="RestFacade" data-participant-2="RatingService"><polygon fill="#181818" points="918.145,635.9844,928.145,639.9844,918.145,643.9844,922.145,639.9844" style="stroke:#181818;stroke-width:1;"/><line style="stroke:#181818;stroke-width:1;" x1="508.481" x2="924.145" y1="639.9844" y2="639.9844"/><text fill="#000000" font-family="sans-serif" font-size="13" lengthAdjust="spacing" textLength="88.7593" x="515.481" y="634.9185">Submit rating</text></g><g class="message" data-participant-1="RestFacade" data-participant-2="CourseService"><polygon fill="#181818" points="1045.4976,665.1172,1055.4976,669.1172,1045.4976,673.1172,1049.4976,669.1172" style="stroke:#181818;stroke-width:1;"/><line style="stroke:#181818;stroke-width:1;" x1="508.481" x2="1051.4976" y1="669.1172" y2="669.1172"/><text fill="#000000" font-family="sans-serif" font-size="13" lengthAdjust="spacing" textLength="85.7061" x="515.481" y="664.0513">Verify course</text></g><g class="message" data-participant-1="CourseService" data-participant-2="DB"><polygon fill="#181818" points="1158.4082,694.25,1168.4082,698.25,1158.4082,702.25,1162.4082,698.25" style="stroke:#181818;stroke-width:1;"/><line style="stroke:#181818;stroke-width:1;" x1="1057.4976" x2="1164.4082" y1="698.25" y2="698.25"/><text fill="#000000" font-family="sans-serif" font-size="13" lengthAdjust="spacing" textLength="47.1694" x="1064.4976" y="693.1841">Lookup</text></g><g class="message" data-participant-1="DB" data-participant-2="CourseService"><polygon fill="#181818" points="1068.4976,723.3828,1058.4976,727.3828,1068.4976,731.3828,1064.4976,727.3828" style="stroke:#181818;stroke-width:1;"/><line style="stroke:#181818;stroke-width:1;stroke-dasharray:2,2;" x1="1062.4976" x2="1169.4082" y1="727.3828" y2="727.3828"/><text fill="#000000" font-family="sans-serif" font-size="13" lengthAdjust="spacing" textLength="18.7573" x="1074.4976" y="722.3169">OK</text></g><g class="message" data-participant-1="CourseService" data-participant-2="RestFacade"><polygon fill="#181818" points="519.481,752.5156,509.481,756.5156,519.481,760.5156,515.481,756.5156" style="stroke:#181818;stroke-width:1;"/><line style="stroke:#181818;stroke-width:1;stroke-dasharray:2,2;" x1="513.481" x2="1056.4976" y1="756.5156" y2="756.5156"/><text fill="#000000" font-family="sans-serif" font-size="13" lengthAdjust="spacing" textLength="73.8994" x="525.481" y="751.4497">Course info</text></g><g class="message" data-participant-1="RestFacade" data-participant-2="RatingService"><polygon fill="#181818" points="918.145,781.6484,928.145,785.6484,918.145,789.6484,922.145,785.6484" style="stroke:#181818;stroke-width:1;"/><line style="stroke:#181818;stroke-width:1;" x1="508.481" x2="924.145" y1="785.6484" y2="785.6484"/><text fill="#000000" font-family="sans-serif" font-size="13" lengthAdjust="spacing" textLength="196.5742" x="515.481" y="780.5825">Submit rating with course info</text></g><g class="message" data-participant-1="RatingService" data-participant-2="DB"><polygon fill="#181818" points="1158.4082,810.7813,1168.4082,814.7813,1158.4082,818.7813,1162.4082,814.7813" style="stroke:#181818;stroke-width:1;"/><line style="stroke:#181818;stroke-width:1;" x1="930.145" x2="1164.4082" y1="814.7813" y2="814.7813"/><text fill="#000000" font-family="sans-serif" font-size="13" lengthAdjust="spacing" textLength="144.6567" x="937.145" y="809.7153">Store or update rating</text></g><g class="message" data-participant-1="DB" data-participant-2="RatingService"><polygon fill="#181818" points="941.145,839.9141,931.145,843.9141,941.145,847.9141,937.145,843.9141" style="stroke:#181818;stroke-width:1;"/><line style="stroke:#181818;stroke-width:1;stroke-dasharray:2,2;" x1="935.145" x2="1169.4082" y1="843.9141" y2="843.9141"/><text fill="#000000" font-family="sans-serif" font-size="13" lengthAdjust="spacing" textLength="52.3301" x="947.145" y="838.8481">Success</text></g><g class="message" data-participant-1="RatingService" data-participant-2="RestFacade"><polygon fill="#181818" points="519.481,869.0469,509.481,873.0469,519.481,877.0469,515.481,873.0469" style="stroke:#181818;stroke-width:1;"/><line style="stroke:#181818;stroke-width:1;stroke-dasharray:2,2;" x1="513.481" x2="929.145" y1="873.0469" y2="873.0469"/><text fill="#000000" font-family="sans-serif" font-size="13" lengthAdjust="spacing" textLength="84.335" x="525.481" y="867.981">Confirmation</text></g><g class="message" data-participant-1="RestFacade" data-participant-2="WebApp"><polygon fill="#181818" points="312.0527,898.1797,302.0527,902.1797,312.0527,906.1797,308.0527,902.1797" style="stroke:#181818;stroke-width:1;"/><line style="stroke:#181818;stroke-width:1;stroke-dasharray:2,2;" x1="306.0527" x2="507.481" y1="902.1797" y2="902.1797"/><text fill="#000000" font-family="sans-serif" font-size="13" lengthAdjust="spacing" textLength="84.335" x="318.0527" y="897.1138">Confirmation</text></g><g class="message" data-participant-1="WebApp" data-participant-2="Student"><polygon fill="#181818" points="61.5557,927.3125,51.5557,931.3125,61.5557,935.3125,57.5557,931.3125" style="stroke:#181818;stroke-width:1;"/><line style="stroke:#181818;stroke-width:1;stroke-dasharray:2,2;" x1="55.5557" x2="300.0527" y1="931.3125" y2="931.3125"/><text fill="#000000" font-family="sans-serif" font-size="13" lengthAdjust="spacing" textLength="157.1172" x="67.5557" y="926.2466">Show updated feedback</text></g><line style="stroke:#000000;stroke-width:1;stroke-dasharray:2,2;" x1="10" x2="1223.7847" y1="940.3125" y2="940.3125"/><text fill="#000000" font-family="sans-serif" font-size="11" font-weight="bold" lengthAdjust="spacing" textLength="161.7666" x="15" y="950.5229">[Session invalid / expired]</text><g class="message" data-participant-1="DB" data-participant-2="Auth"><polygon fill="#181818" points="659.7065,971.25,649.7065,975.25,659.7065,979.25,655.7065,975.25" style="stroke:#181818;stroke-width:1;"/><line style="stroke:#181818;stroke-width:1;stroke-dasharray:2,2;" x1="653.7065" x2="1169.4082" y1="975.25" y2="975.25"/><text fill="#000000" font-family="sans-serif" font-size="13" lengthAdjust="spacing" textLength="64.1685" x="665.7065" y="970.1841">Not found</text></g><g class="message" data-participant-1="Auth" data-participant-2="RestFacade"><polygon fill="#181818" points="519.481,1000.3828,509.481,1004.3828,519.481,1008.3828,515.481,1004.3828" style="stroke:#181818;stroke-width:1;"/><line style="stroke:#181818;stroke-width:1;stroke-dasharray:2,2;" x1="513.481" x2="647.7065" y1="1004.3828" y2="1004.3828"/><text fill="#000000" font-family="sans-serif" font-size="13" lengthAdjust="spacing" textLength="116.2256" x="525.481" y="999.3169">401 Unauthorized</text></g><g class="message" data-participant-1="RestFacade" data-participant-2="WebApp"><polygon fill="#181818" points="312.0527,1029.5156,302.0527,1033.5156,312.0527,1037.5156,308.0527,1033.5156" style="stroke:#181818;stroke-width:1;"/><line style="stroke:#181818;stroke-width:1;stroke-dasharray:2,2;" x1="306.0527" x2="507.481" y1="1033.5156" y2="1033.5156"/><text fill="#000000" font-family="sans-serif" font-size="13" lengthAdjust="spacing" textLength="96.7192" x="318.0527" y="1028.4497">Session invalid</text></g><g class="message" data-participant-1="WebApp" data-participant-2="Student"><polygon fill="#181818" points="61.5557,1058.6484,51.5557,1062.6484,61.5557,1066.6484,57.5557,1062.6484" style="stroke:#181818;stroke-width:1;"/><line style="stroke:#181818;stroke-width:1;stroke-dasharray:2,2;" x1="55.5557" x2="300.0527" y1="1062.6484" y2="1062.6484"/><text fill="#000000" font-family="sans-serif" font-size="13" lengthAdjust="spacing" textLength="107.4658" x="67.5557" y="1057.5825">Redirect to login</text></g><!--SRC=[bPNFZjCm4CRlVehH7X1eLRL8NEW1gVltm49BieK3uk36azPgQbkEqm8ln8FmOanYPviucvMuDPxVsDzyCtQTT0N2ztKwcStU_u2qsXoaWsjTsH8XuKwgBRo218yIJupnp6aBgQi4AiSCjqvcqd3buE8RRXR6mEi42O9qjNXp0Rm4lzn7azlq4UxutpzSO0CbMBexdj5d7rnKRWUVf105dhZrRBtMfzObaYQqHvbvf5u8tz71lfukwvUUfOC9NTeljRJWZcyu8HShNRgjnVJBGuFTN34MJ8B9X-01p65fKC6zvSAho9pKYeKeSMSRYBs_VOHfHPLC3yWw4U8wzTKWEgWvC5Rdia3M3HFTc3Y7wnrcUoYnBEbGoBJUIsHDZ9YRAoA-ya9IITX2rEw2EXaoZdMKGOrEphikFzAItsKWhEcBLBacfASfBdNbXSCboJgO0XqA-bKxNL9gj_QkcIzdjQvIHjk9EQGxVO9jyB-GfMD4FjUeS0sidvTBqAPk5I_gemxrw9yFY6jPqcnFVMAi_icrWTEjXsETUDdsdW3lkc23itkJ7jSue7kJNaj2A_DVmM2Y-_5M-0EDLMNESkDT6jrHQbn0k7RDuFnV4N2Iv4ZMoOSeeTMPqZE6G4zPPHgVdqm8keV7P1crOhZVKBpAfJrmvxisDhiHDZwiNf-0755iUBPd38lcJVANKghcMi8KyAUH5eSNzBDsaEjAYT61UJTx2sl5AQQj_DriCIOxEdPCUOA2jD2_WDDGwArK39Nu1m00]--></g></svg>