<svg xmlns="http://www.w3.org/2000/svg" xmlns:xlink="http://www.w3.org/1999/xlink" contentStyleType="text/css" data-diagram-type="SEQUENCE" height="1022px" preserveAspectRatio="none" style="width:1038px;height:1022px;background:#FFFFFF;" version="1.1" viewBox="0 0 1038 1022" width="1038px" zoomAndPan="magnify"><title>[US-009] Submit Course Rating &amp; Review</title><defs/><g><text fill="#000000" font-family="sans-serif" font-size="14" font-weight="bold" lengthAdjust="spacing" textLength="324.9395" x="357.9548" y="27.9951">[US-009] Submit Course Rating &amp; Review</text><rect fill="none" height="672.8594" style="stroke:#000000;stroke-width:1.5;" width="1021.8491" x="10" y="252.125"/><g><title>Student</title><rect fill="#000000" fill-opacity="0.00000" height="823.3906" width="8" x="46.5557" y="118.5938"/><line style="stroke:#181818;stroke-width:0.5;stroke-dasharray:5,5;" x1="50" x2="50" y1="118.5938" y2="941.9844"/></g><g><title>WebApp .React SPA.</title><rect fill="#000000" fill-opacity="0.00000" height="823.3906" width="8" x="297.0527" y="118.5938"/><line style="stroke:#181818;stroke-width:0.5;stroke-dasharray:5,5;" x1="300.2876" x2="300.2876" y1="118.5938" y2="941.9844"/></g><g><title>Auth Middleware</title><rect fill="#000000" fill-opacity="0.00000" height="823.3906" width="8" x="452.771" y="118.5938"/><line style="stroke:#181818;stroke-width:0.5;stroke-dasharray:5,5;" x1="455.8179" x2="455.8179" y1="118.5938" y2="941.9844"/></g><g><title>User Service</title><rect fill="#000000" fill-opacity="0.00000" height="823.3906" width="8" x="615.3403" y="118.5938"/><line style="stroke:#181818;stroke-width:0.5;stroke-dasharray:5,5;" x1="619.2896" x2="619.2896" y1="118.5938" y2="941.9844"/></g><g><title>Rating Service</title><rect fill="#000000" fill-opacity="0.00000" height="823.3906" width="8" x="734.2095" y="118.5938"/><line style="stroke:#181818;stroke-width:0.5;stroke-dasharray:5,5;" x1="737.3911" x2="737.3911" y1="118.5938" y2="941.9844"/></g><g><title>Course Service</title><rect fill="#000000" fill-opacity="0.00000" height="823.3906" width="8" x="861.562" y="118.5938"/><line style="stroke:#181818;stroke-width:0.5;stroke-dasharray:5,5;" x1="865.0278" x2="865.0278" y1="118.5938" y2="941.9844"/></g><g><title>PostgreSQL</title><rect fill="#000000" fill-opacity="0.00000" height="823.3906" width="8" x="974.4727" y="118.5938"/><line style="stroke:#181818;stroke-width:0.5;stroke-dasharray:5,5;" x1="978.0962" x2="978.0962" y1="118.5938" y2="941.9844"/></g><g class="participant participant-head" data-participant="Student"><text fill="#000000" font-family="sans-serif" font-size="14" lengthAdjust="spacing" textLength="55.1113" x="20" y="115.292">Student</text><ellipse cx="50.5557" cy="50.7969" fill="#E2E2F0" rx="8" ry="8" style="stroke:#181818;stroke-width:0.5;"/><path d="M50.5557,58.7969 L50.5557,85.7969 M37.5557,66.7969 L63.5557,66.7969 M50.5557,85.7969 L37.5557,100.7969 M50.5557,85.7969 L63.5557,100.7969" fill="none" style="stroke:#181818;stroke-width:0.5;"/></g><g class="participant participant-tail" data-participant="Student"><text fill="#000000" font-family="sans-serif" font-size="14" lengthAdjust="spacing" textLength="55.1113" x="20" y="953.9795">Student</text><ellipse cx="50.5557" cy="965.7813" fill="#E2E2F0" rx="8" ry="8" style="stroke:#181818;stroke-width:0.5;"/><path d="M50.5557,973.7813 L50.5557,1000.7813 M37.5557,981.7813 L63.5557,981.7813 M50.5557,1000.7813 L37.5557,1015.7813 M50.5557,1000.7813 L63.5557,1015.7813" fill="none" style="stroke:#181818;stroke-width:0.5;"/></g><g class="participant participant-head" data-participant="WebApp"><rect fill="#E2E2F0" height="30.2969" rx="2.5" ry="2.5" style="stroke:#181818;stroke-width:0.5;" width="159.5303" x="221.2876" y="87.2969"/><text fill="#000000" font-family="sans-serif" font-size="14" lengthAdjust="spacing" textLength="145.5303" x="228.2876" y="107.292">WebApp (React SPA)</text></g><g class="participant participant-tail" data-participant="WebApp"><rect fill="#E2E2F0" height="30.2969" rx="2.5" ry="2.5" style="stroke:#181818;stroke-width:0.5;" width="159.5303" x="221.2876" y="940.9844"/><text fill="#000000" font-family="sans-serif" font-size="14" lengthAdjust="spacing" textLength="145.5303" x="228.2876" y="960.9795">WebApp (React SPA)</text></g><g class="participant participant-head" data-participant="Auth"><rect fill="#E2E2F0" height="30.2969" rx="2.5" ry="2.5" style="stroke:#181818;stroke-width:0.5;" width="131.9063" x="390.8179" y="87.2969"/><text fill="#000000" font-family="sans-serif" font-size="14" lengthAdjust="spacing" textLength="117.9063" x="397.8179" y="107.292">Auth Middleware</text></g><g class="participant participant-tail" data-participant="Auth"><rect fill="#E2E2F0" height="30.2969" rx="2.5" ry="2.5" style="stroke:#181818;stroke-width:0.5;" width="131.9063" x="390.8179" y="940.9844"/><text fill="#000000" font-family="sans-serif" font-size="14" lengthAdjust="spacing" textLength="117.9063" x="397.8179" y="960.9795">Auth Middleware</text></g><g class="participant participant-head" data-participant="UserService"><rect fill="#E2E2F0" height="30.2969" rx="2.5" ry="2.5" style="stroke:#181818;stroke-width:0.5;" width="102.1016" x="568.2896" y="87.2969"/><text fill="#000000" font-family="sans-serif" font-size="14" lengthAdjust="spacing" textLength="88.1016" x="575.2896" y="107.292">User Service</text></g><g class="participant participant-tail" data-participant="UserService"><rect fill="#E2E2F0" height="30.2969" rx="2.5" ry="2.5" style="stroke:#181818;stroke-width:0.5;" width="102.1016" x="568.2896" y="940.9844"/><text fill="#000000" font-family="sans-serif" font-size="14" lengthAdjust="spacing" textLength="88.1016" x="575.2896" y="960.9795">User Service</text></g><g class="participant participant-head" data-participant="RatingService"><rect fill="#E2E2F0" height="30.2969" rx="2.5" ry="2.5" style="stroke:#181818;stroke-width:0.5;" width="115.6367" x="680.3911" y="87.2969"/><text fill="#000000" font-family="sans-serif" font-size="14" lengthAdjust="spacing" textLength="101.6367" x="687.3911" y="107.292">Rating Service</text></g><g class="participant participant-tail" data-participant="RatingService"><rect fill="#E2E2F0" height="30.2969" rx="2.5" ry="2.5" style="stroke:#181818;stroke-width:0.5;" width="115.6367" x="680.3911" y="940.9844"/><text fill="#000000" font-family="sans-serif" font-size="14" lengthAdjust="spacing" textLength="101.6367" x="687.3911" y="960.9795">Rating Service</text></g><g class="participant participant-head" data-participant="CourseService"><rect fill="#E2E2F0" height="30.2969" rx="2.5" ry="2.5" style="stroke:#181818;stroke-width:0.5;" width="119.0684" x="806.0278" y="87.2969"/><text fill="#000000" font-family="sans-serif" font-size="14" lengthAdjust="spacing" textLength="105.0684" x="813.0278" y="107.292">Course Service</text></g><g class="participant participant-tail" data-participant="CourseService"><rect fill="#E2E2F0" height="30.2969" rx="2.5" ry="2.5" style="stroke:#181818;stroke-width:0.5;" width="119.0684" x="806.0278" y="940.9844"/><text fill="#000000" font-family="sans-serif" font-size="14" lengthAdjust="spacing" textLength="105.0684" x="813.0278" y="960.9795">Course Service</text></g><g class="participant participant-head" data-participant="DB"><text fill="#000000" font-family="sans-serif" font-size="14" lengthAdjust="spacing" textLength="80.7529" x="935.0962" y="115.292">PostgreSQL</text><path d="M960.4727,66.2969 C960.4727,56.2969 978.4727,56.2969 978.4727,56.2969 C978.4727,56.2969 996.4727,56.2969 996.4727,66.2969 L996.4727,92.2969 C996.4727,102.2969 978.4727,102.2969 978.4727,102.2969 C978.4727,102.2969 960.4727,102.2969 960.4727,92.2969 L960.4727,66.2969" fill="#E2E2F0" style="stroke:#181818;stroke-width:0.5;"/><path d="M960.4727,66.2969 C960.4727,76.2969 978.4727,76.2969 978.4727,76.2969 C978.4727,76.2969 996.4727,76.2969 996.4727,66.2969" fill="none" style="stroke:#181818;stroke-width:0.5;"/></g><g class="participant participant-tail" data-participant="DB"><text fill="#000000" font-family="sans-serif" font-size="14" lengthAdjust="spacing" textLength="80.7529" x="935.0962" y="953.9795">PostgreSQL</text><path d="M960.4727,967.2813 C960.4727,957.2813 978.4727,957.2813 978.4727,957.2813 C978.4727,957.2813 996.4727,957.2813 996.4727,967.2813 L996.4727,993.2813 C996.4727,1003.2813 978.4727,1003.2813 978.4727,1003.2813 C978.4727,1003.2813 960.4727,1003.2813 960.4727,993.2813 L960.4727,967.2813" fill="#E2E2F0" style="stroke:#181818;stroke-width:0.5;"/><path d="M960.4727,967.2813 C960.4727,977.2813 978.4727,977.2813 978.4727,977.2813 C978.4727,977.2813 996.4727,977.2813 996.4727,967.2813" fill="none" style="stroke:#181818;stroke-width:0.5;"/></g><g class="message" data-participant-1="Student" data-participant-2="WebApp"><polygon fill="#181818" points="289.0527,145.7266,299.0527,149.7266,289.0527,153.7266,293.0527,149.7266" style="stroke:#181818;stroke-width:1;"/><line style="stroke:#181818;stroke-width:1;" x1="50.5557" x2="295.0527" y1="149.7266" y2="149.7266"/><text fill="#000000" font-family="sans-serif" font-size="13" lengthAdjust="spacing" textLength="143.0254" x="57.5557" y="144.6606">Open Grading Section</text></g><g class="message" data-participant-1="WebApp" data-participant-2="UserService"><polygon fill="#181818" points="607.3403,174.8594,617.3403,178.8594,607.3403,182.8594,611.3403,178.8594" style="stroke:#181818;stroke-width:1;"/><line style="stroke:#181818;stroke-width:1;" x1="301.0527" x2="613.3403" y1="178.8594" y2="178.8594"/><text fill="#000000" font-family="sans-serif" font-size="13" lengthAdjust="spacing" textLength="88.1372" x="308.0527" y="173.7935">GET /user/me</text></g><g class="message" data-participant-1="UserService" data-participant-2="Auth"><polygon fill="#181818" points="467.771,203.9922,457.771,207.9922,467.771,211.9922,463.771,207.9922" style="stroke:#181818;stroke-width:1;"/><line style="stroke:#181818;stroke-width:1;" x1="461.771" x2="618.3403" y1="207.9922" y2="207.9922"/><text fill="#000000" font-family="sans-serif" font-size="13" lengthAdjust="spacing" textLength="138.5693" x="473.771" y="202.9263">Check session cookie</text></g><g class="message" data-participant-1="Auth" data-participant-2="DB"><polygon fill="#181818" points="966.4727,233.125,976.4727,237.125,966.4727,241.125,970.4727,237.125" style="stroke:#181818;stroke-width:1;"/><line style="stroke:#181818;stroke-width:1;" x1="456.771" x2="972.4727" y1="237.125" y2="237.125"/><text fill="#000000" font-family="sans-serif" font-size="13" lengthAdjust="spacing" textLength="105.6504" x="463.771" y="232.0591">Validate session</text></g><path d="M10,252.125 L74.4429,252.125 L74.4429,259.2578 L64.4429,269.2578 L10,269.2578 L10,252.125" fill="#EEEEEE" style="stroke:#000000;stroke-width:1.5;"/><rect fill="none" height="672.8594" style="stroke:#000000;stroke-width:1.5;" width="1021.8491" x="10" y="252.125"/><text fill="#000000" font-family="sans-serif" font-size="13" font-weight="bold" lengthAdjust="spacing" textLength="19.4429" x="25" y="265.1919">alt</text><text fill="#000000" font-family="sans-serif" font-size="11" font-weight="bold" lengthAdjust="spacing" textLength="91.5288" x="89.4429" y="264.3354">[Session valid]</text><g class="message" data-participant-1="DB" data-participant-2="Auth"><polygon fill="#181818" points="467.771,286.3906,457.771,290.3906,467.771,294.3906,463.771,290.3906" style="stroke:#181818;stroke-width:1;"/><line style="stroke:#181818;stroke-width:1;stroke-dasharray:2,2;" x1="461.771" x2="977.4727" y1="290.3906" y2="290.3906"/><text fill="#000000" font-family="sans-serif" font-size="13" lengthAdjust="spacing" textLength="18.7573" x="473.771" y="285.3247">OK</text></g><g class="message" data-participant-1="Auth" data-participant-2="UserService"><polygon fill="#181818" points="607.3403,315.5234,617.3403,319.5234,607.3403,323.5234,611.3403,319.5234" style="stroke:#181818;stroke-width:1;"/><line style="stroke:#181818;stroke-width:1;stroke-dasharray:2,2;" x1="456.771" x2="613.3403" y1="319.5234" y2="319.5234"/><text fill="#000000" font-family="sans-serif" font-size="13" lengthAdjust="spacing" textLength="58.1445" x="463.771" y="314.4575">User info</text></g><g class="message" data-participant-1="UserService" data-participant-2="WebApp"><polygon fill="#181818" points="312.0527,344.6563,302.0527,348.6563,312.0527,352.6563,308.0527,348.6563" style="stroke:#181818;stroke-width:1;"/><line style="stroke:#181818;stroke-width:1;stroke-dasharray:2,2;" x1="306.0527" x2="618.3403" y1="348.6563" y2="348.6563"/><text fill="#000000" font-family="sans-serif" font-size="13" lengthAdjust="spacing" textLength="183.4282" x="318.0527" y="343.5903">Profile + completed courses</text></g><g class="message" data-participant-1="WebApp" data-participant-2="Student"><polygon fill="#181818" points="61.5557,373.7891,51.5557,377.7891,61.5557,381.7891,57.5557,377.7891" style="stroke:#181818;stroke-width:1;"/><line style="stroke:#181818;stroke-width:1;stroke-dasharray:2,2;" x1="55.5557" x2="300.0527" y1="377.7891" y2="377.7891"/><text fill="#000000" font-family="sans-serif" font-size="13" lengthAdjust="spacing" textLength="112.3535" x="67.5557" y="372.7231">Show grading list</text></g><g class="message" data-participant-1="Student" data-participant-2="WebApp"><polygon fill="#181818" points="289.0527,402.9219,299.0527,406.9219,289.0527,410.9219,293.0527,406.9219" style="stroke:#181818;stroke-width:1;"/><line style="stroke:#181818;stroke-width:1;" x1="50.5557" x2="295.0527" y1="406.9219" y2="406.9219"/><text fill="#000000" font-family="sans-serif" font-size="13" lengthAdjust="spacing" textLength="226.4971" x="57.5557" y="401.856">Submit rating + optional comment</text></g><g class="message" data-participant-1="WebApp" data-participant-2="RatingService"><polygon fill="#181818" points="726.2095,432.0547,736.2095,436.0547,726.2095,440.0547,730.2095,436.0547" style="stroke:#181818;stroke-width:1;"/><line style="stroke:#181818;stroke-width:1;" x1="301.0527" x2="732.2095" y1="436.0547" y2="436.0547"/><text fill="#000000" font-family="sans-serif" font-size="13" lengthAdjust="spacing" textLength="88.061" x="308.0527" y="430.9888">POST /ratings</text></g><g class="message" data-participant-1="RatingService" data-participant-2="Auth"><polygon fill="#181818" points="467.771,461.1875,457.771,465.1875,467.771,469.1875,463.771,465.1875" style="stroke:#181818;stroke-width:1;"/><line style="stroke:#181818;stroke-width:1;" x1="461.771" x2="737.2095" y1="465.1875" y2="465.1875"/><text fill="#000000" font-family="sans-serif" font-size="13" lengthAdjust="spacing" textLength="112.0361" x="473.771" y="460.1216">Re-check session</text></g><g class="message" data-participant-1="Auth" data-participant-2="DB"><polygon fill="#181818" points="966.4727,490.3203,976.4727,494.3203,966.4727,498.3203,970.4727,494.3203" style="stroke:#181818;stroke-width:1;"/><line style="stroke:#181818;stroke-width:1;" x1="456.771" x2="972.4727" y1="494.3203" y2="494.3203"/><text fill="#000000" font-family="sans-serif" font-size="13" lengthAdjust="spacing" textLength="105.6504" x="463.771" y="489.2544">Validate session</text></g><g class="message" data-participant-1="DB" data-participant-2="Auth"><polygon fill="#181818" points="467.771,519.4531,457.771,523.4531,467.771,527.4531,463.771,523.4531" style="stroke:#181818;stroke-width:1;"/><line style="stroke:#181818;stroke-width:1;stroke-dasharray:2,2;" x1="461.771" x2="977.4727" y1="523.4531" y2="523.4531"/><text fill="#000000" font-family="sans-serif" font-size="13" lengthAdjust="spacing" textLength="18.7573" x="473.771" y="518.3872">OK</text></g><g class="message" data-participant-1="Auth" data-participant-2="RatingService"><polygon fill="#181818" points="726.2095,548.5859,736.2095,552.5859,726.2095,556.5859,730.2095,552.5859" style="stroke:#181818;stroke-width:1;"/><line style="stroke:#181818;stroke-width:1;stroke-dasharray:2,2;" x1="456.771" x2="732.2095" y1="552.5859" y2="552.5859"/><text fill="#000000" font-family="sans-serif" font-size="13" lengthAdjust="spacing" textLength="45.627" x="463.771" y="547.52">User id</text></g><g class="message" data-participant-1="RatingService" data-participant-2="CourseService"><polygon fill="#181818" points="853.562,577.7188,863.562,581.7188,853.562,585.7188,857.562,581.7188" style="stroke:#181818;stroke-width:1;"/><line style="stroke:#181818;stroke-width:1;" x1="738.2095" x2="859.562" y1="581.7188" y2="581.7188"/><text fill="#000000" font-family="sans-serif" font-size="13" lengthAdjust="spacing" textLength="85.7061" x="745.2095" y="576.6528">Verify course</text></g><g class="message" data-participant-1="CourseService" data-participant-2="DB"><polygon fill="#181818" points="966.4727,606.8516,976.4727,610.8516,966.4727,614.8516,970.4727,610.8516" style="stroke:#181818;stroke-width:1;"/><line style="stroke:#181818;stroke-width:1;" x1="865.562" x2="972.4727" y1="610.8516" y2="610.8516"/><text fill="#000000" font-family="sans-serif" font-size="13" lengthAdjust="spacing" textLength="47.1694" x="872.562" y="605.7856">Lookup</text></g><g class="message" data-participant-1="DB" data-participant-2="CourseService"><polygon fill="#181818" points="876.562,635.9844,866.562,639.9844,876.562,643.9844,872.562,639.9844" style="stroke:#181818;stroke-width:1;"/><line style="stroke:#181818;stroke-width:1;stroke-dasharray:2,2;" x1="870.562" x2="977.4727" y1="639.9844" y2="639.9844"/><text fill="#000000" font-family="sans-serif" font-size="13" lengthAdjust="spacing" textLength="18.7573" x="882.562" y="634.9185">OK</text></g><g class="message" data-participant-1="CourseService" data-participant-2="RatingService"><polygon fill="#181818" points="749.2095,665.1172,739.2095,669.1172,749.2095,673.1172,745.2095,669.1172" style="stroke:#181818;stroke-width:1;"/><line style="stroke:#181818;stroke-width:1;stroke-dasharray:2,2;" x1="743.2095" x2="864.562" y1="669.1172" y2="669.1172"/><text fill="#000000" font-family="sans-serif" font-size="13" lengthAdjust="spacing" textLength="73.8994" x="755.2095" y="664.0513">Course info</text></g><g class="message" data-participant-1="RatingService" data-participant-2="DB"><polygon fill="#181818" points="966.4727,694.25,976.4727,698.25,966.4727,702.25,970.4727,698.25" style="stroke:#181818;stroke-width:1;"/><line style="stroke:#181818;stroke-width:1;" x1="738.2095" x2="972.4727" y1="698.25" y2="698.25"/><text fill="#000000" font-family="sans-serif" font-size="13" lengthAdjust="spacing" textLength="144.6567" x="745.2095" y="693.1841">Store or update rating</text></g><g class="message" data-participant-1="DB" data-participant-2="RatingService"><polygon fill="#181818" points="749.2095,723.3828,739.2095,727.3828,749.2095,731.3828,745.2095,727.3828" style="stroke:#181818;stroke-width:1;"/><line style="stroke:#181818;stroke-width:1;stroke-dasharray:2,2;" x1="743.2095" x2="977.4727" y1="727.3828" y2="727.3828"/><text fill="#000000" font-family="sans-serif" font-size="13" lengthAdjust="spacing" textLength="52.3301" x="755.2095" y="722.3169">Success</text></g><g class="message" data-participant-1="RatingService" data-participant-2="WebApp"><polygon fill="#181818" points="312.0527,752.5156,302.0527,756.5156,312.0527,760.5156,308.0527,756.5156" style="stroke:#181818;stroke-width:1;"/><line style="stroke:#181818;stroke-width:1;stroke-dasharray:2,2;" x1="306.0527" x2="737.2095" y1="756.5156" y2="756.5156"/><text fill="#000000" font-family="sans-serif" font-size="13" lengthAdjust="spacing" textLength="84.335" x="318.0527" y="751.4497">Confirmation</text></g><g class="message" data-participant-1="WebApp" data-participant-2="Student"><polygon fill="#181818" points="61.5557,781.6484,51.5557,785.6484,61.5557,789.6484,57.5557,785.6484" style="stroke:#181818;stroke-width:1;"/><line style="stroke:#181818;stroke-width:1;stroke-dasharray:2,2;" x1="55.5557" x2="300.0527" y1="785.6484" y2="785.6484"/><text fill="#000000" font-family="sans-serif" font-size="13" lengthAdjust="spacing" textLength="157.1172" x="67.5557" y="780.5825">Show updated feedback</text></g><line style="stroke:#000000;stroke-width:1;stroke-dasharray:2,2;" x1="10" x2="1031.8491" y1="794.6484" y2="794.6484"/><text fill="#000000" font-family="sans-serif" font-size="11" font-weight="bold" lengthAdjust="spacing" textLength="161.7666" x="15" y="804.8589">[Session invalid / expired]</text><g class="message" data-participant-1="DB" data-participant-2="Auth"><polygon fill="#181818" points="467.771,825.5859,457.771,829.5859,467.771,833.5859,463.771,829.5859" style="stroke:#181818;stroke-width:1;"/><line style="stroke:#181818;stroke-width:1;stroke-dasharray:2,2;" x1="461.771" x2="977.4727" y1="829.5859" y2="829.5859"/><text fill="#000000" font-family="sans-serif" font-size="13" lengthAdjust="spacing" textLength="64.1685" x="473.771" y="824.52">Not found</text></g><g class="message" data-participant-1="Auth" data-participant-2="UserService"><polygon fill="#181818" points="607.3403,854.7188,617.3403,858.7188,607.3403,862.7188,611.3403,858.7188" style="stroke:#181818;stroke-width:1;"/><line style="stroke:#181818;stroke-width:1;stroke-dasharray:2,2;" x1="456.771" x2="613.3403" y1="858.7188" y2="858.7188"/><text fill="#000000" font-family="sans-serif" font-size="13" lengthAdjust="spacing" textLength="116.2256" x="463.771" y="853.6528">401 Unauthorized</text></g><g class="message" data-participant-1="UserService" data-participant-2="WebApp"><polygon fill="#181818" points="312.0527,883.8516,302.0527,887.8516,312.0527,891.8516,308.0527,887.8516" style="stroke:#181818;stroke-width:1;"/><line style="stroke:#181818;stroke-width:1;stroke-dasharray:2,2;" x1="306.0527" x2="618.3403" y1="887.8516" y2="887.8516"/><text fill="#000000" font-family="sans-serif" font-size="13" lengthAdjust="spacing" textLength="96.7192" x="318.0527" y="882.7856">Session invalid</text></g><g class="message" data-participant-1="WebApp" data-participant-2="Student"><polygon fill="#181818" points="61.5557,912.9844,51.5557,916.9844,61.5557,920.9844,57.5557,916.9844" style="stroke:#181818;stroke-width:1;"/><line style="stroke:#181818;stroke-width:1;stroke-dasharray:2,2;" x1="55.5557" x2="300.0527" y1="916.9844" y2="916.9844"/><text fill="#000000" font-family="sans-serif" font-size="13" lengthAdjust="spacing" textLength="107.4658" x="67.5557" y="911.9185">Redirect to login</text></g><!--SRC=[VLHDZzem4BtxLumuLArM22hrKWuhiMorXsuBJKfxgFPWuWbO1Djo76Zxwpl-e2GXx8tCl9bvy-OP9rs5y6kTZwVJZo-GDvk3TB3GZQqHCkwasi8RoF0eySGOBvosaBj6e7BCSEja8GrN3aO_SJCt1jvcI238L_Dt8-0rn70NEc_S3hv88IeySOi1vsDTrBf66eNsA8i8yO7qtKKcccri30sYqsvjT0oTqO8xlk446QrqxROMys_F0VRum5ZQ7SRtQJMOmTAWWYVBHMHHEAaLIrd2jNWJ-EdJTvWq59eSaBLJX0p2p62nms8FDTOrDO92wxr45dA4UNmWn0zUIQA9Pn1TfYBHKyNHPnbuwFZITVcPGh7B5QcWjLIb9aY7KtlDbTMb9BFS4QM3gT2Xe5zUkPhApljInLcZ6UGxVO9jKgQIjME4798m-Sx6Izw1Dbv4NlbH1- -rou3xxd4ziMLEciPQJwMRloYGuRXeI_jVZrkglYvXdqOKKR0X1Xs7-L5ePVadoKS5tVoPq3ETlZ4N6lqkWK-lT81OSdouxn2vC2kdbur0hxinGOCevsLslsdU50N9TDslVTQ5LgMq1-wYchSz4eSAA175XXTxnh0AZpGwMghWQPW0_ZRIuhMxlse7fMwKk6to3zFti5QSajhAlw77JQ_t1j_Ydg4WDlH_vpHKUYiLGoN-0G00]--></g></svg>