<svg xmlns="http://www.w3.org/2000/svg" xmlns:xlink="http://www.w3.org/1999/xlink" contentStyleType="text/css" data-diagram-type="SEQUENCE" height="1256px" preserveAspectRatio="none" style="width:1482px;height:1256px;background:#FFFFFF;" version="1.1" viewBox="0 0 1482 1256" width="1482px" zoomAndPan="magnify"><title>[US-001] Login with Corporate Email</title><defs/><g><text fill="#000000" font-family="sans-serif" font-size="14" font-weight="bold" lengthAdjust="spacing" textLength="288.668" x="598.1399" y="27.9951">[US-001] Login with Corporate Email</text><rect fill="none" height="906.5938" style="stroke:#000000;stroke-width:1.5;" width="1465.9478" x="10" y="252.125"/><rect fill="none" height="381.5313" style="stroke:#000000;stroke-width:1.5;" width="1445.9478" x="20" y="770.1875"/><g><title>Student</title><rect fill="#000000" fill-opacity="0.00000" height="1057.125" width="8" x="56.5557" y="118.5938"/><line style="stroke:#181818;stroke-width:0.5;stroke-dasharray:5,5;" x1="60" x2="60" y1="118.5938" y2="1175.7188"/></g><g><title>WebApp .React SPA.</title><rect fill="#000000" fill-opacity="0.00000" height="1057.125" width="8" x="334.8682" y="118.5938"/><line style="stroke:#181818;stroke-width:0.5;stroke-dasharray:5,5;" x1="338.103" x2="338.103" y1="118.5938" y2="1175.7188"/></g><g><title>REST Fa.ade</title><rect fill="#000000" fill-opacity="0.00000" height="1057.125" width="8" x="573.9839" y="118.5938"/><line style="stroke:#181818;stroke-width:0.5;stroke-dasharray:5,5;" x1="577.5488" x2="577.5488" y1="118.5938" y2="1175.7188"/></g><g><title>Auth Middleware</title><rect fill="#000000" fill-opacity="0.00000" height="1057.125" width="8" x="806.6885" y="118.5938"/><line style="stroke:#181818;stroke-width:0.5;stroke-dasharray:5,5;" x1="809.7354" x2="809.7354" y1="118.5938" y2="1175.7188"/></g><g><title>User Service</title><rect fill="#000000" fill-opacity="0.00000" height="1057.125" width="8" x="1113.0806" y="118.5938"/><line style="stroke:#181818;stroke-width:0.5;stroke-dasharray:5,5;" x1="1117.0298" x2="1117.0298" y1="118.5938" y2="1175.7188"/></g><g><title>Microsoft OIDC Provider</title><rect fill="#000000" fill-opacity="0.00000" height="1057.125" width="8" x="1264.6631" y="118.5938"/><line style="stroke:#181818;stroke-width:0.5;stroke-dasharray:5,5;" x1="1268.1313" x2="1268.1313" y1="118.5938" y2="1175.7188"/></g><g><title>PostgreSQL</title><rect fill="#000000" fill-opacity="0.00000" height="1057.125" width="8" x="1408.5713" y="118.5938"/><line style="stroke:#181818;stroke-width:0.5;stroke-dasharray:5,5;" x1="1412.1948" x2="1412.1948" y1="118.5938" y2="1175.7188"/></g><g class="participant participant-head" data-participant="Student"><text fill="#000000" font-family="sans-serif" font-size="14" lengthAdjust="spacing" textLength="55.1113" x="30" y="115.292">Student</text><ellipse cx="60.5557" cy="50.7969" fill="#E2E2F0" rx="8" ry="8" style="stroke:#181818;stroke-width:0.5;"/><path d="M60.5557,58.7969 L60.5557,85.7969 M47.5557,66.7969 L73.5557,66.7969 M60.5557,85.7969 L47.5557,100.7969 M60.5557,85.7969 L73.5557,100.7969" fill="none" style="stroke:#181818;stroke-width:0.5;"/></g><g class="participant participant-tail" data-participant="Student"><text fill="#000000" font-family="sans-serif" font-size="14" lengthAdjust="spacing" textLength="55.1113" x="30" y="1187.7139">Student</text><ellipse cx="60.5557" cy="1199.5156" fill="#E2E2F0" rx="8" ry="8" style="stroke:#181818;stroke-width:0.5;"/><path d="M60.5557,1207.5156 L60.5557,1234.5156 M47.5557,1215.5156 L73.5557,1215.5156 M60.5557,1234.5156 L47.5557,1249.5156 M60.5557,1234.5156 L73.5557,1249.5156" fill="none" style="stroke:#181818;stroke-width:0.5;"/></g><g class="participant participant-head" data-participant="WebApp"><rect fill="#E2E2F0" height="30.2969" rx="2.5" ry="2.5" style="stroke:#181818;stroke-width:0.5;" width="159.5303" x="259.103" y="87.2969"/><text fill="#000000" font-family="sans-serif" font-size="14" lengthAdjust="spacing" textLength="145.5303" x="266.103" y="107.292">WebApp (React SPA)</text></g><g class="participant participant-tail" data-participant="WebApp"><rect fill="#E2E2F0" height="30.2969" rx="2.5" ry="2.5" style="stroke:#181818;stroke-width:0.5;" width="159.5303" x="259.103" y="1174.7188"/><text fill="#000000" font-family="sans-serif" font-size="14" lengthAdjust="spacing" textLength="145.5303" x="266.103" y="1194.7139">WebApp (React SPA)</text></g><g class="participant participant-head" data-participant="RestFacade"><rect fill="#E2E2F0" height="30.2969" rx="2.5" ry="2.5" style="stroke:#181818;stroke-width:0.5;" width="104.8701" x="525.5488" y="87.2969"/><text fill="#000000" font-family="sans-serif" font-size="14" lengthAdjust="spacing" textLength="90.8701" x="532.5488" y="107.292">REST Fa&#231;ade</text></g><g class="participant participant-tail" data-participant="RestFacade"><rect fill="#E2E2F0" height="30.2969" rx="2.5" ry="2.5" style="stroke:#181818;stroke-width:0.5;" width="104.8701" x="525.5488" y="1174.7188"/><text fill="#000000" font-family="sans-serif" font-size="14" lengthAdjust="spacing" textLength="90.8701" x="532.5488" y="1194.7139">REST Fa&#231;ade</text></g><g class="participant participant-head" data-participant="Auth"><rect fill="#E2E2F0" height="30.2969" rx="2.5" ry="2.5" style="stroke:#181818;stroke-width:0.5;" width="131.9063" x="744.7354" y="87.2969"/><text fill="#000000" font-family="sans-serif" font-size="14" lengthAdjust="spacing" textLength="117.9063" x="751.7354" y="107.292">Auth Middleware</text></g><g class="participant participant-tail" data-participant="Auth"><rect fill="#E2E2F0" height="30.2969" rx="2.5" ry="2.5" style="stroke:#181818;stroke-width:0.5;" width="131.9063" x="744.7354" y="1174.7188"/><text fill="#000000" font-family="sans-serif" font-size="14" lengthAdjust="spacing" textLength="117.9063" x="751.7354" y="1194.7139">Auth Middleware</text></g><g class="participant participant-head" data-participant="UserService"><rect fill="#E2E2F0" height="30.2969" rx="2.5" ry="2.5" style="stroke:#181818;stroke-width:0.5;" width="102.1016" x="1066.0298" y="87.2969"/><text fill="#000000" font-family="sans-serif" font-size="14" lengthAdjust="spacing" textLength="88.1016" x="1073.0298" y="107.292">User Service</text></g><g class="participant participant-tail" data-participant="UserService"><rect fill="#E2E2F0" height="30.2969" rx="2.5" ry="2.5" style="stroke:#181818;stroke-width:0.5;" width="102.1016" x="1066.0298" y="1174.7188"/><text fill="#000000" font-family="sans-serif" font-size="14" lengthAdjust="spacing" textLength="88.1016" x="1073.0298" y="1194.7139">User Service</text></g><g class="participant participant-head" data-participant="OIDC"><rect fill="#E2E2F0" height="30.2969" rx="2.5" ry="2.5" style="stroke:#181818;stroke-width:0.5;" width="181.0635" x="1178.1313" y="87.2969"/><text fill="#000000" font-family="sans-serif" font-size="14" lengthAdjust="spacing" textLength="167.0635" x="1185.1313" y="107.292">Microsoft OIDC Provider</text></g><g class="participant participant-tail" data-participant="OIDC"><rect fill="#E2E2F0" height="30.2969" rx="2.5" ry="2.5" style="stroke:#181818;stroke-width:0.5;" width="181.0635" x="1178.1313" y="1174.7188"/><text fill="#000000" font-family="sans-serif" font-size="14" lengthAdjust="spacing" textLength="167.0635" x="1185.1313" y="1194.7139">Microsoft OIDC Provider</text></g><g class="participant participant-head" data-participant="DB"><text fill="#000000" font-family="sans-serif" font-size="14" lengthAdjust="spacing" textLength="80.7529" x="1369.1948" y="115.292">PostgreSQL</text><path d="M1394.5713,66.2969 C1394.5713,56.2969 1412.5713,56.2969 1412.5713,56.2969 C1412.5713,56.2969 1430.5713,56.2969 1430.5713,66.2969 L1430.5713,92.2969 C1430.5713,102.2969 1412.5713,102.2969 1412.5713,102.2969 C1412.5713,102.2969 1394.5713,102.2969 1394.5713,92.2969 L1394.5713,66.2969" fill="#E2E2F0" style="stroke:#181818;stroke-width:0.5;"/><path d="M1394.5713,66.2969 C1394.5713,76.2969 1412.5713,76.2969 1412.5713,76.2969 C1412.5713,76.2969 1430.5713,76.2969 1430.5713,66.2969" fill="none" style="stroke:#181818;stroke-width:0.5;"/></g><g class="participant participant-tail" data-participant="DB"><text fill="#000000" font-family="sans-serif" font-size="14" lengthAdjust="spacing" textLength="80.7529" x="1369.1948" y="1187.7139">PostgreSQL</text><path d="M1394.5713,1201.0156 C1394.5713,1191.0156 1412.5713,1191.0156 1412.5713,1191.0156 C1412.5713,1191.0156 1430.5713,1191.0156 1430.5713,1201.0156 L1430.5713,1227.0156 C1430.5713,1237.0156 1412.5713,1237.0156 1412.5713,1237.0156 C1412.5713,1237.0156 1394.5713,1237.0156 1394.5713,1227.0156 L1394.5713,1201.0156" fill="#E2E2F0" style="stroke:#181818;stroke-width:0.5;"/><path d="M1394.5713,1201.0156 C1394.5713,1211.0156 1412.5713,1211.0156 1412.5713,1211.0156 C1412.5713,1211.0156 1430.5713,1211.0156 1430.5713,1201.0156" fill="none" style="stroke:#181818;stroke-width:0.5;"/></g><g class="message" data-participant-1="Student" data-participant-2="WebApp"><polygon fill="#181818" points="326.8682,145.7266,336.8682,149.7266,326.8682,153.7266,330.8682,149.7266" style="stroke:#181818;stroke-width:1;"/><line style="stroke:#181818;stroke-width:1;" x1="60.5557" x2="332.8682" y1="149.7266" y2="149.7266"/><text fill="#000000" font-family="sans-serif" font-size="13" lengthAdjust="spacing" textLength="157.2632" x="67.5557" y="144.6606">Request protected page</text></g><g class="message" data-participant-1="WebApp" data-participant-2="RestFacade"><polygon fill="#181818" points="565.9839,174.8594,575.9839,178.8594,565.9839,182.8594,569.9839,178.8594" style="stroke:#181818;stroke-width:1;"/><line style="stroke:#181818;stroke-width:1;" x1="338.8682" x2="571.9839" y1="178.8594" y2="178.8594"/><text fill="#000000" font-family="sans-serif" font-size="13" lengthAdjust="spacing" textLength="215.1157" x="345.8682" y="173.7935">Validate session (cookie + CSRF)</text></g><g class="message" data-participant-1="RestFacade" data-participant-2="Auth"><polygon fill="#181818" points="798.6885,203.9922,808.6885,207.9922,798.6885,211.9922,802.6885,207.9922" style="stroke:#181818;stroke-width:1;"/><line style="stroke:#181818;stroke-width:1;" x1="577.9839" x2="804.6885" y1="207.9922" y2="207.9922"/><text fill="#000000" font-family="sans-serif" font-size="13" lengthAdjust="spacing" textLength="117.7363" x="584.9839" y="202.9263">Session validation</text></g><g class="message" data-participant-1="Auth" data-participant-2="DB"><polygon fill="#181818" points="1400.5713,233.125,1410.5713,237.125,1400.5713,241.125,1404.5713,237.125" style="stroke:#181818;stroke-width:1;"/><line style="stroke:#181818;stroke-width:1;" x1="810.6885" x2="1406.5713" y1="237.125" y2="237.125"/><text fill="#000000" font-family="sans-serif" font-size="13" lengthAdjust="spacing" textLength="138.417" x="817.6885" y="232.0591">Check session record</text></g><path d="M10,252.125 L74.4429,252.125 L74.4429,259.2578 L64.4429,269.2578 L10,269.2578 L10,252.125" fill="#EEEEEE" style="stroke:#000000;stroke-width:1.5;"/><rect fill="none" height="906.5938" style="stroke:#000000;stroke-width:1.5;" width="1465.9478" x="10" y="252.125"/><text fill="#000000" font-family="sans-serif" font-size="13" font-weight="bold" lengthAdjust="spacing" textLength="19.4429" x="25" y="265.1919">alt</text><text fill="#000000" font-family="sans-serif" font-size="11" font-weight="bold" lengthAdjust="spacing" textLength="91.5288" x="89.4429" y="264.3354">[Session valid]</text><g class="message" data-participant-1="DB" data-participant-2="Auth"><polygon fill="#181818" points="821.6885,286.3906,811.6885,290.3906,821.6885,294.3906,817.6885,290.3906" style="stroke:#181818;stroke-width:1;"/><line style="stroke:#181818;stroke-width:1;stroke-dasharray:2,2;" x1="815.6885" x2="1411.5713" y1="290.3906" y2="290.3906"/><text fill="#000000" font-family="sans-serif" font-size="13" lengthAdjust="spacing" textLength="90.9937" x="827.6885" y="285.3247">Session found</text></g><g class="message" data-participant-1="Auth" data-participant-2="RestFacade"><polygon fill="#181818" points="588.9839,315.5234,578.9839,319.5234,588.9839,323.5234,584.9839,319.5234" style="stroke:#181818;stroke-width:1;"/><line style="stroke:#181818;stroke-width:1;stroke-dasharray:2,2;" x1="582.9839" x2="809.6885" y1="319.5234" y2="319.5234"/><text fill="#000000" font-family="sans-serif" font-size="13" lengthAdjust="spacing" textLength="72.4902" x="594.9839" y="314.4575">Session OK</text></g><g class="message" data-participant-1="RestFacade" data-participant-2="WebApp"><polygon fill="#181818" points="349.8682,344.6563,339.8682,348.6563,349.8682,352.6563,345.8682,348.6563" style="stroke:#181818;stroke-width:1;"/><line style="stroke:#181818;stroke-width:1;stroke-dasharray:2,2;" x1="343.8682" x2="576.9839" y1="348.6563" y2="348.6563"/><text fill="#000000" font-family="sans-serif" font-size="13" lengthAdjust="spacing" textLength="156.4697" x="355.8682" y="343.5903">OK (user authenticated)</text></g><g class="message" data-participant-1="WebApp" data-participant-2="Student"><polygon fill="#181818" points="71.5557,373.7891,61.5557,377.7891,71.5557,381.7891,67.5557,377.7891" style="stroke:#181818;stroke-width:1;"/><line style="stroke:#181818;stroke-width:1;stroke-dasharray:2,2;" x1="65.5557" x2="337.8682" y1="377.7891" y2="377.7891"/><text fill="#000000" font-family="sans-serif" font-size="13" lengthAdjust="spacing" textLength="125.5757" x="77.5557" y="372.7231">Render Home Page</text></g><line style="stroke:#000000;stroke-width:1;stroke-dasharray:2,2;" x1="10" x2="1475.9478" y1="386.7891" y2="386.7891"/><text fill="#000000" font-family="sans-serif" font-size="11" font-weight="bold" lengthAdjust="spacing" textLength="160.3003" x="15" y="396.9995">[Session missing/expired]</text><g class="message" data-participant-1="DB" data-participant-2="Auth"><polygon fill="#181818" points="821.6885,417.7266,811.6885,421.7266,821.6885,425.7266,817.6885,421.7266" style="stroke:#181818;stroke-width:1;"/><line style="stroke:#181818;stroke-width:1;stroke-dasharray:2,2;" x1="815.6885" x2="1411.5713" y1="421.7266" y2="421.7266"/><text fill="#000000" font-family="sans-serif" font-size="13" lengthAdjust="spacing" textLength="116.416" x="827.6885" y="416.6606">Session not found</text></g><g class="message" data-participant-1="Auth" data-participant-2="RestFacade"><polygon fill="#181818" points="588.9839,446.8594,578.9839,450.8594,588.9839,454.8594,584.9839,450.8594" style="stroke:#181818;stroke-width:1;"/><line style="stroke:#181818;stroke-width:1;stroke-dasharray:2,2;" x1="582.9839" x2="809.6885" y1="450.8594" y2="450.8594"/><text fill="#000000" font-family="sans-serif" font-size="13" lengthAdjust="spacing" textLength="96.7192" x="594.9839" y="445.7935">Session invalid</text></g><g class="message" data-participant-1="RestFacade" data-participant-2="WebApp"><polygon fill="#181818" points="349.8682,475.9922,339.8682,479.9922,349.8682,483.9922,345.8682,479.9922" style="stroke:#181818;stroke-width:1;"/><line style="stroke:#181818;stroke-width:1;stroke-dasharray:2,2;" x1="343.8682" x2="576.9839" y1="479.9922" y2="479.9922"/><text fill="#000000" font-family="sans-serif" font-size="13" lengthAdjust="spacing" textLength="86.2773" x="355.8682" y="474.9263">Require login</text></g><g class="message" data-participant-1="WebApp" data-participant-2="Student"><polygon fill="#181818" points="71.5557,505.125,61.5557,509.125,71.5557,513.125,67.5557,509.125" style="stroke:#181818;stroke-width:1;"/><line style="stroke:#181818;stroke-width:1;stroke-dasharray:2,2;" x1="65.5557" x2="337.8682" y1="509.125" y2="509.125"/><text fill="#000000" font-family="sans-serif" font-size="13" lengthAdjust="spacing" textLength="254.3125" x="77.5557" y="504.0591">Show Login Page (with Outlook button)</text></g><g class="message" data-participant-1="Student" data-participant-2="WebApp"><polygon fill="#181818" points="326.8682,534.2578,336.8682,538.2578,326.8682,542.2578,330.8682,538.2578" style="stroke:#181818;stroke-width:1;"/><line style="stroke:#181818;stroke-width:1;" x1="60.5557" x2="332.8682" y1="538.2578" y2="538.2578"/><text fill="#000000" font-family="sans-serif" font-size="13" lengthAdjust="spacing" textLength="168.8286" x="67.5557" y="533.1919">Click "Login with Outlook"</text></g><g class="message" data-participant-1="WebApp" data-participant-2="OIDC"><polygon fill="#181818" points="1256.6631,563.3906,1266.6631,567.3906,1256.6631,571.3906,1260.6631,567.3906" style="stroke:#181818;stroke-width:1;"/><line style="stroke:#181818;stroke-width:1;" x1="338.8682" x2="1262.6631" y1="567.3906" y2="567.3906"/><text fill="#000000" font-family="sans-serif" font-size="13" lengthAdjust="spacing" textLength="171.2725" x="345.8682" y="562.3247">Redirect to Microsoft login</text></g><g class="message" data-participant-1="Student" data-participant-2="OIDC"><polygon fill="#181818" points="1256.6631,592.5234,1266.6631,596.5234,1256.6631,600.5234,1260.6631,596.5234" style="stroke:#181818;stroke-width:1;"/><line style="stroke:#181818;stroke-width:1;" x1="60.5557" x2="1262.6631" y1="596.5234" y2="596.5234"/><text fill="#000000" font-family="sans-serif" font-size="13" lengthAdjust="spacing" textLength="155.2256" x="67.5557" y="591.4575">Enter email &amp; password</text></g><g class="message" data-participant-1="OIDC" data-participant-2="RestFacade"><polygon fill="#181818" points="588.9839,621.6563,578.9839,625.6563,588.9839,629.6563,584.9839,625.6563" style="stroke:#181818;stroke-width:1;"/><line style="stroke:#181818;stroke-width:1;stroke-dasharray:2,2;" x1="582.9839" x2="1267.6631" y1="625.6563" y2="625.6563"/><text fill="#000000" font-family="sans-serif" font-size="13" lengthAdjust="spacing" textLength="242.2266" x="594.9839" y="620.5903">Redirect to /auth/callback?code=XYZ</text></g><g class="message" data-participant-1="RestFacade" data-participant-2="Auth"><polygon fill="#181818" points="798.6885,650.7891,808.6885,654.7891,798.6885,658.7891,802.6885,654.7891" style="stroke:#181818;stroke-width:1;"/><line style="stroke:#181818;stroke-width:1;" x1="577.9839" x2="804.6885" y1="654.7891" y2="654.7891"/><text fill="#000000" font-family="sans-serif" font-size="13" lengthAdjust="spacing" textLength="208.7046" x="584.9839" y="649.7231">Handle /auth/callback with code</text></g><g class="message" data-participant-1="Auth" data-participant-2="OIDC"><polygon fill="#181818" points="1256.6631,679.9219,1266.6631,683.9219,1256.6631,687.9219,1260.6631,683.9219" style="stroke:#181818;stroke-width:1;"/><line style="stroke:#181818;stroke-width:1;" x1="810.6885" x2="1262.6631" y1="683.9219" y2="683.9219"/><text fill="#000000" font-family="sans-serif" font-size="13" lengthAdjust="spacing" textLength="168.9619" x="817.6885" y="678.856">Exchange code for tokens</text></g><g class="message" data-participant-1="OIDC" data-participant-2="Auth"><polygon fill="#181818" points="821.6885,709.0547,811.6885,713.0547,821.6885,717.0547,817.6885,713.0547" style="stroke:#181818;stroke-width:1;"/><line style="stroke:#181818;stroke-width:1;stroke-dasharray:2,2;" x1="815.6885" x2="1267.6631" y1="713.0547" y2="713.0547"/><text fill="#000000" font-family="sans-serif" font-size="13" lengthAdjust="spacing" textLength="165.3184" x="827.6885" y="707.9888">ID Token + Access Token</text></g><g class="message" data-participant-1="Auth" data-participant-2="Auth"><line style="stroke:#181818;stroke-width:1;" x1="810.6885" x2="852.6885" y1="742.1875" y2="742.1875"/><line style="stroke:#181818;stroke-width:1;" x1="852.6885" x2="852.6885" y1="742.1875" y2="755.1875"/><line style="stroke:#181818;stroke-width:1;" x1="811.6885" x2="852.6885" y1="755.1875" y2="755.1875"/><polygon fill="#181818" points="821.6885,751.1875,811.6885,755.1875,821.6885,759.1875,817.6885,755.1875" style="stroke:#181818;stroke-width:1;"/><text fill="#000000" font-family="sans-serif" font-size="13" lengthAdjust="spacing" textLength="292.3921" x="817.6885" y="737.1216">Validate ID Token + check corporate domain</text></g><path d="M20,770.1875 L84.4429,770.1875 L84.4429,777.3203 L74.4429,787.3203 L20,787.3203 L20,770.1875" fill="#EEEEEE" style="stroke:#000000;stroke-width:1.5;"/><rect fill="none" height="381.5313" style="stroke:#000000;stroke-width:1.5;" width="1445.9478" x="20" y="770.1875"/><text fill="#000000" font-family="sans-serif" font-size="13" font-weight="bold" lengthAdjust="spacing" textLength="19.4429" x="35" y="783.2544">alt</text><text fill="#000000" font-family="sans-serif" font-size="11" font-weight="bold" lengthAdjust="spacing" textLength="155.1226" x="99.4429" y="782.3979">[Invalid or unauthorized]</text><g class="message" data-participant-1="Auth" data-participant-2="RestFacade"><polygon fill="#181818" points="588.9839,804.4531,578.9839,808.4531,588.9839,812.4531,584.9839,808.4531" style="stroke:#181818;stroke-width:1;"/><line style="stroke:#181818;stroke-width:1;stroke-dasharray:2,2;" x1="582.9839" x2="809.6885" y1="808.4531" y2="808.4531"/><text fill="#000000" font-family="sans-serif" font-size="13" lengthAdjust="spacing" textLength="62.2705" x="594.9839" y="803.3872">401 / 403</text></g><g class="message" data-participant-1="RestFacade" data-participant-2="WebApp"><polygon fill="#181818" points="349.8682,833.5859,339.8682,837.5859,349.8682,841.5859,345.8682,837.5859" style="stroke:#181818;stroke-width:1;"/><line style="stroke:#181818;stroke-width:1;stroke-dasharray:2,2;" x1="343.8682" x2="576.9839" y1="837.5859" y2="837.5859"/><text fill="#000000" font-family="sans-serif" font-size="13" lengthAdjust="spacing" textLength="110.8428" x="355.8682" y="832.52">Show Login Error</text></g><g class="message" data-participant-1="WebApp" data-participant-2="Student"><polygon fill="#181818" points="71.5557,862.7188,61.5557,866.7188,71.5557,870.7188,67.5557,866.7188" style="stroke:#181818;stroke-width:1;"/><line style="stroke:#181818;stroke-width:1;stroke-dasharray:2,2;" x1="65.5557" x2="337.8682" y1="866.7188" y2="866.7188"/><text fill="#000000" font-family="sans-serif" font-size="13" lengthAdjust="spacing" textLength="146.5928" x="77.5557" y="861.6528">Display error message</text></g><line style="stroke:#000000;stroke-width:1;stroke-dasharray:2,2;" x1="20" x2="1465.9478" y1="875.7188" y2="875.7188"/><text fill="#000000" font-family="sans-serif" font-size="11" font-weight="bold" lengthAdjust="spacing" textLength="178.9058" x="25" y="885.9292">[Valid corporate credentials]</text><g class="message" data-participant-1="Auth" data-participant-2="DB"><polygon fill="#181818" points="1400.5713,906.6563,1410.5713,910.6563,1400.5713,914.6563,1404.5713,910.6563" style="stroke:#181818;stroke-width:1;"/><line style="stroke:#181818;stroke-width:1;" x1="810.6885" x2="1406.5713" y1="910.6563" y2="910.6563"/><text fill="#000000" font-family="sans-serif" font-size="13" lengthAdjust="spacing" textLength="172.9102" x="817.6885" y="905.5903">Create new session record</text></g><g class="message" data-participant-1="DB" data-participant-2="Auth"><polygon fill="#181818" points="821.6885,935.7891,811.6885,939.7891,821.6885,943.7891,817.6885,939.7891" style="stroke:#181818;stroke-width:1;"/><line style="stroke:#181818;stroke-width:1;stroke-dasharray:2,2;" x1="815.6885" x2="1411.5713" y1="939.7891" y2="939.7891"/><text fill="#000000" font-family="sans-serif" font-size="13" lengthAdjust="spacing" textLength="18.7573" x="827.6885" y="934.7231">OK</text></g><g class="message" data-participant-1="Auth" data-participant-2="UserService"><polygon fill="#181818" points="1105.0806,964.9219,1115.0806,968.9219,1105.0806,972.9219,1109.0806,968.9219" style="stroke:#181818;stroke-width:1;"/><line style="stroke:#181818;stroke-width:1;" x1="810.6885" x2="1111.0806" y1="968.9219" y2="968.9219"/><text fill="#000000" font-family="sans-serif" font-size="13" lengthAdjust="spacing" textLength="194.9556" x="817.6885" y="963.856">Ensure user exists in platform</text></g><g class="message" data-participant-1="UserService" data-participant-2="DB"><polygon fill="#181818" points="1400.5713,994.0547,1410.5713,998.0547,1400.5713,1002.0547,1404.5713,998.0547" style="stroke:#181818;stroke-width:1;"/><line style="stroke:#181818;stroke-width:1;" x1="1117.0806" x2="1406.5713" y1="998.0547" y2="998.0547"/><text fill="#000000" font-family="sans-serif" font-size="13" lengthAdjust="spacing" textLength="125.5884" x="1124.0806" y="992.9888">Lookup/create user</text></g><g class="message" data-participant-1="DB" data-participant-2="UserService"><polygon fill="#181818" points="1128.0806,1023.1875,1118.0806,1027.1875,1128.0806,1031.1875,1124.0806,1027.1875" style="stroke:#181818;stroke-width:1;"/><line style="stroke:#181818;stroke-width:1;stroke-dasharray:2,2;" x1="1122.0806" x2="1411.5713" y1="1027.1875" y2="1027.1875"/><text fill="#000000" font-family="sans-serif" font-size="13" lengthAdjust="spacing" textLength="75.8037" x="1134.0806" y="1022.1216">User record</text></g><g class="message" data-participant-1="UserService" data-participant-2="Auth"><polygon fill="#181818" points="821.6885,1052.3203,811.6885,1056.3203,821.6885,1060.3203,817.6885,1056.3203" style="stroke:#181818;stroke-width:1;"/><line style="stroke:#181818;stroke-width:1;stroke-dasharray:2,2;" x1="815.6885" x2="1116.0806" y1="1056.3203" y2="1056.3203"/><text fill="#000000" font-family="sans-serif" font-size="13" lengthAdjust="spacing" textLength="18.7573" x="827.6885" y="1051.2544">OK</text></g><g class="message" data-participant-1="Auth" data-participant-2="RestFacade"><polygon fill="#181818" points="588.9839,1081.4531,578.9839,1085.4531,588.9839,1089.4531,584.9839,1085.4531" style="stroke:#181818;stroke-width:1;"/><line style="stroke:#181818;stroke-width:1;stroke-dasharray:2,2;" x1="582.9839" x2="809.6885" y1="1085.4531" y2="1085.4531"/><text fill="#000000" font-family="sans-serif" font-size="13" lengthAdjust="spacing" textLength="103.5366" x="594.9839" y="1080.3872">Session created</text></g><g class="message" data-participant-1="RestFacade" data-participant-2="WebApp"><polygon fill="#181818" points="349.8682,1110.5859,339.8682,1114.5859,349.8682,1118.5859,345.8682,1114.5859" style="stroke:#181818;stroke-width:1;"/><line style="stroke:#181818;stroke-width:1;stroke-dasharray:2,2;" x1="343.8682" x2="576.9839" y1="1114.5859" y2="1114.5859"/><text fill="#000000" font-family="sans-serif" font-size="13" lengthAdjust="spacing" textLength="197.4185" x="355.8682" y="1109.52">Set-Cookie (sessionid) + CSRF</text></g><g class="message" data-participant-1="WebApp" data-participant-2="Student"><polygon fill="#181818" points="71.5557,1139.7188,61.5557,1143.7188,71.5557,1147.7188,67.5557,1143.7188" style="stroke:#181818;stroke-width:1;"/><line style="stroke:#181818;stroke-width:1;stroke-dasharray:2,2;" x1="65.5557" x2="337.8682" y1="1143.7188" y2="1143.7188"/><text fill="#000000" font-family="sans-serif" font-size="13" lengthAdjust="spacing" textLength="150.376" x="77.5557" y="1138.6528">Redirect to Home Page</text></g><!--SRC=[ZLJRRXen47tVhnZnK84gHABsAL9J4I1Ab4HGDkbLVJ3s12mMUsjx0-qFzKFwOnrxTy5BibKVkEpwpCoPcNFifCiGlZsa_PEJq-zmgvTImLQw5OoqoRLX3c6oOJ9B4iQTDf2wGg1oISwCarpcJ3deVCB5CC-XEqS2GJeRzZh0B9Ilcz3v9Bs7I_RdDnCOG7Eqxf9nUcm2XmMHk9D2PBXbfiJwTqtKWqNYXEP9yXBYNrJFJUITv4PR_UXWUZqUmSpe9odGX23_9X7CiGMp29sPjcvfCFrm6qx75qbIjGtzywehE2FcFmeY3xdH3hb30JbRObAT4_BG6g4_iamAFqwBragjeCkrNak4rp1AvvUz949JR6Z_Z5ehmKzbDFrDmWaXnXTqFbeXN-zJ6kJQ25fLvfgH2NXu_tdUHrqeVrecFUPSewOt18dvnMEOta2ty6jWb8Dc93brANeKKK-2qFNy_DGKZHskz0PXvkULO4P3hqjj9FsgvG1tkJJOJbnfzv_afQf7qDQ1NoGLWyohlurtkjBRoX-UDdI3IwQ5osYDi2YSqwgNKFHBKXbbajRKYUnL1NQYSkUbCZqVGNJ8IKx3GROrkoX_XPyeHnD5RrDuHIAqTkjb0ENviy74wGT-QGFEicp1-FezrmBVVVxozMXO- -bVCKL-F8eg6_AX-rqSgEtuYYaQbp-cXHagkaPbOt9LxkintFipCiIGSrfU-HZbh81x9qKHFFY0x-yieMaQog_3U-6wb01G-K9vxjh8Nq5SRU9vUt8A0_f-4p1jmeaqCJ56cm1-KJrZQVEC_GJqCDXGTq7w047yeQE8FIVbUoUnp4OSQyiRz1Y5ssFVUsZJBS6uX_ZeSWooiGMfFdWNTz8wIru1ekbeJviG60VKzMz9jaK-u2KD7nqNRfO8rtF4hf6lXMQRZyk2ujyBGTSVbTTgjngE5BtgYctVJko8myL4ow7hXJv_0G00]--></g></svg>